<svg width="735" height="357" viewBox="0 0 735 357" fill="none" xmlns="http://www.w3.org/2000/svg">
  <rect x="32" y="122.674" width="164" height="38.3261" rx="19.163" fill="#317b8a" />
  <path
    d="M80.3059 147.797C78.8638 147.797 77.6194 147.555 76.5724 147.071C75.5304 146.583 74.7378 145.916 74.1946 145.071C73.6514 144.222 73.3798 143.264 73.3798 142.197C73.3798 141.116 73.6563 140.143 74.2094 139.279C74.7625 138.409 75.5699 137.726 76.6317 137.227C77.6934 136.728 78.9552 136.479 80.417 136.479C81.3108 136.479 82.1281 136.567 82.8689 136.745C83.6146 136.923 84.3232 137.18 84.9949 137.516V140.649C84.5652 140.348 84.0269 140.103 83.38 139.916C82.738 139.728 82.0541 139.634 81.3281 139.634C80.533 139.634 79.8491 139.738 79.2762 139.945C78.7034 140.153 78.2663 140.444 77.9651 140.819C77.6688 141.19 77.5206 141.619 77.5206 142.108C77.5206 142.602 77.6712 143.039 77.9725 143.419C78.2786 143.795 78.7182 144.089 79.291 144.301C79.8639 144.508 80.5429 144.612 81.3281 144.612C82.0787 144.612 82.7775 144.513 83.4245 144.316C84.0714 144.113 84.6047 143.844 85.0245 143.508V146.568C84.2986 146.992 83.5652 147.304 82.8244 147.501C82.0886 147.699 81.2491 147.797 80.3059 147.797ZM92.6567 147.797C91.2789 147.797 90.0665 147.543 89.0196 147.034C87.9727 146.526 87.1652 145.837 86.5973 144.968C86.0294 144.099 85.7454 143.136 85.7454 142.079C85.7454 141.002 86.0269 140.042 86.5899 139.197C87.1578 138.348 87.9653 137.684 89.0122 137.205C90.0591 136.721 91.2789 136.479 92.6715 136.479C94.0543 136.479 95.2667 136.721 96.3087 137.205C97.3556 137.684 98.1606 138.348 98.7235 139.197C99.2915 140.042 99.5754 141.002 99.5754 142.079C99.5754 143.14 99.289 144.106 98.7161 144.975C98.1482 145.844 97.3408 146.533 96.2939 147.042C95.2469 147.546 94.0345 147.797 92.6567 147.797ZM92.6567 144.716C93.2246 144.716 93.7234 144.607 94.1531 144.39C94.5827 144.168 94.9136 143.859 95.1457 143.464C95.3778 143.069 95.4938 142.617 95.4938 142.108C95.4938 141.605 95.3778 141.16 95.1457 140.775C94.9136 140.39 94.5827 140.091 94.1531 139.879C93.7234 139.666 93.2246 139.56 92.6567 139.56C92.0839 139.56 91.5826 139.666 91.153 139.879C90.7233 140.091 90.39 140.39 90.153 140.775C89.9209 141.16 89.8048 141.605 89.8048 142.108C89.8048 142.617 89.9209 143.069 90.153 143.464C90.39 143.859 90.7233 144.168 91.153 144.39C91.5826 144.607 92.0839 144.716 92.6567 144.716ZM110.348 144.353V147.449H100.593V136.827H104.385V144.353H110.348ZM120.847 144.353V147.449H111.092V136.827H114.884V144.353H120.847ZM131.48 144.745V147.449H121.591V136.827H131.435V139.531H125.383V140.834H131.132V143.323H125.383V144.745H131.48ZM139.038 147.797C137.596 147.797 136.351 147.555 135.304 147.071C134.262 146.583 133.47 145.916 132.927 145.071C132.383 144.222 132.112 143.264 132.112 142.197C132.112 141.116 132.388 140.143 132.941 139.279C133.495 138.409 134.302 137.726 135.364 137.227C136.426 136.728 137.687 136.479 139.149 136.479C140.043 136.479 140.86 136.567 141.601 136.745C142.347 136.923 143.055 137.18 143.727 137.516V140.649C143.297 140.348 142.759 140.103 142.112 139.916C141.47 139.728 140.786 139.634 140.06 139.634C139.265 139.634 138.581 139.738 138.008 139.945C137.435 140.153 136.998 140.444 136.697 140.819C136.401 141.19 136.253 141.619 136.253 142.108C136.253 142.602 136.403 143.039 136.705 143.419C137.011 143.795 137.45 144.089 138.023 144.301C138.596 144.508 139.275 144.612 140.06 144.612C140.811 144.612 141.51 144.513 142.157 144.316C142.803 144.113 143.337 143.844 143.757 143.508V146.568C143.031 146.992 142.297 147.304 141.557 147.501C140.821 147.699 139.981 147.797 139.038 147.797ZM155.293 139.819H151.678V147.449H147.885V139.819H144.203V136.827H155.293V139.819Z"
    fill="#dce7ea" />
  <path d="M269.135 0L269.135 357" stroke="#dce7ea" stroke-opacity="0.08" stroke-dasharray="7 4" />
  <path d="M465.865 0L465.865 357" stroke="#dce7ea" stroke-opacity="0.08" stroke-dasharray="7 4" />
  <path d="M0 65.5H735" stroke="#dce7ea" stroke-opacity="0.08" stroke-dasharray="7 4" />
  <path d="M0 178.5H735" stroke="#dce7ea" stroke-opacity="0.08" stroke-dasharray="7 4" />
  <path d="M0 292.5H735" stroke="#dce7ea" stroke-opacity="0.08" stroke-dasharray="7 4" />
  <rect x="125.562" y="22.5624" width="484.875" height="291.45" rx="28.4448" fill="#dce7ea" fill-opacity="0.9" />
  <g clip-path="url(#clip0_6358_49562)">
    <rect x="154.007" y="51.0073" width="42.0108" height="42.0108" fill="#317b8a" />
    <path fill-rule="evenodd" clip-rule="evenodd"
      d="M180.684 68.4771C181.872 67.479 183.198 67.0993 184.469 67.1953C185.825 67.2977 187.08 67.9377 188.017 68.8674C188.955 69.7971 189.598 71.0406 189.702 72.3827C189.806 73.7369 189.355 75.1554 188.168 76.4003C188.059 76.5148 187.948 76.628 187.835 76.7398C182.449 82.0812 175.296 82.0953 175.222 82.0954C175.186 82.0954 168.009 82.0951 162.609 76.739L162.608 76.7378C162.497 76.6266 162.387 76.5146 162.279 76.402L162.278 76.4011C161.09 75.1572 160.639 73.7392 160.743 72.3849C160.846 71.0431 161.489 69.7994 162.426 68.8693C163.363 67.9394 164.618 67.2988 165.974 67.196C167.245 67.0996 168.571 67.4789 169.76 68.4765C169.888 66.9378 170.554 65.7402 171.521 64.9169C172.552 64.0388 173.895 63.6106 175.222 63.6106C176.549 63.6106 177.892 64.0388 178.923 64.9169C179.89 65.7403 180.556 66.9381 180.684 68.4771Z"
      fill="#dce7ea" fill-opacity="0.9" />
  </g>
  <rect x="153.373" y="50.373" width="43.2794" height="43.2794" rx="21.6397" stroke="#317b8a" stroke-width="1.26856" />
  <path
    d="M218.723 87.7413V86.7577C218.543 87.1331 218.271 87.427 217.909 87.6396C217.552 87.8476 217.116 87.9516 216.6 87.9516C216.112 87.9516 215.68 87.8499 215.305 87.6464C214.929 87.4429 214.638 87.1625 214.43 86.8052C214.226 86.448 214.124 86.0432 214.124 85.591C214.124 85.1433 214.228 84.7385 214.436 84.3768C214.644 84.015 214.943 83.7323 215.332 83.5288C215.721 83.3208 216.175 83.2168 216.695 83.2168C217.197 83.2168 217.622 83.314 217.97 83.5085C218.319 83.6984 218.57 83.9607 218.723 84.2954V84.2818C218.723 83.418 218.479 82.7646 217.991 82.3214C217.507 81.8782 216.833 81.6566 215.969 81.6566C215.219 81.6566 214.558 81.8307 213.989 82.1789C213.423 82.5272 212.987 83.0043 212.679 83.6102C212.376 84.2162 212.225 84.8968 212.225 85.652C212.225 86.4525 212.406 87.167 212.768 87.7956C213.134 88.4242 213.649 88.9149 214.314 89.2676C214.979 89.6203 215.743 89.7967 216.607 89.7967C217.303 89.7967 217.973 89.6836 218.615 89.4575C219.262 89.2314 219.836 88.9284 220.338 88.5486V90.1359C219.764 90.5429 219.158 90.8413 218.52 91.0313C217.887 91.2212 217.202 91.3162 216.465 91.3162C215.262 91.3162 214.215 91.072 213.324 90.5836C212.433 90.0952 211.75 89.4259 211.275 88.5757C210.8 87.721 210.563 86.7577 210.563 85.686C210.563 84.6006 210.798 83.6419 211.268 82.8098C211.739 81.9732 212.385 81.3265 213.209 80.8698C214.036 80.4085 214.968 80.1778 216.003 80.1778C216.935 80.1778 217.726 80.3474 218.377 80.6866C219.033 81.0213 219.528 81.4961 219.863 82.1111C220.198 82.7216 220.365 83.4361 220.365 84.2547V87.7413H218.723ZM217.143 86.7306C217.446 86.7306 217.717 86.6786 217.957 86.5746C218.201 86.4661 218.389 86.3191 218.52 86.1337C218.656 85.9483 218.723 85.7402 218.723 85.5096C218.723 85.288 218.656 85.089 218.52 84.9127C218.389 84.7318 218.206 84.5916 217.97 84.4921C217.735 84.3881 217.469 84.3361 217.17 84.3361C216.731 84.3361 216.392 84.4469 216.153 84.6685C215.913 84.8855 215.793 85.1727 215.793 85.5299C215.793 85.8917 215.911 86.1834 216.146 86.405C216.381 86.6221 216.713 86.7306 217.143 86.7306ZM228.563 79.642V89.6475H226.86V88.3383C226.661 88.786 226.363 89.1523 225.965 89.4372C225.567 89.7176 225.078 89.8577 224.499 89.8577C223.889 89.8577 223.351 89.7017 222.885 89.3897C222.419 89.0731 222.06 88.6367 221.806 88.0805C221.558 87.5243 221.433 86.8934 221.433 86.1879C221.433 85.487 221.569 84.8539 221.84 84.2886C222.112 83.7188 222.492 83.2711 222.98 82.9455C223.468 82.6199 224.025 82.4571 224.649 82.4571C225.644 82.4571 226.374 82.898 226.84 83.7798V79.642H228.563ZM225.001 88.3586C225.377 88.3586 225.705 88.2636 225.985 88.0737C226.27 87.8838 226.489 87.6215 226.643 87.2868C226.797 86.9477 226.874 86.5633 226.874 86.1337C226.874 85.7086 226.799 85.331 226.65 85.0008C226.501 84.6707 226.288 84.4129 226.012 84.2275C225.736 84.0421 225.413 83.9494 225.042 83.9494C224.671 83.9494 224.346 84.0421 224.065 84.2275C223.789 84.4129 223.575 84.6752 223.421 85.0144C223.272 85.3491 223.197 85.7402 223.197 86.1879C223.197 86.6266 223.272 87.011 223.421 87.3411C223.57 87.6667 223.78 87.9177 224.052 88.0941C224.323 88.2704 224.64 88.3586 225.001 88.3586ZM231.184 81.6024C230.994 81.6024 230.82 81.5594 230.662 81.4735C230.504 81.3876 230.379 81.27 230.289 81.1207C230.199 80.967 230.153 80.7974 230.153 80.612C230.153 80.3361 230.251 80.1078 230.445 79.9269C230.644 79.7415 230.89 79.6487 231.184 79.6487C231.483 79.6487 231.727 79.7392 231.917 79.9201C232.107 80.101 232.202 80.3316 232.202 80.612C232.202 80.8969 232.105 81.1343 231.91 81.3242C231.72 81.5097 231.478 81.6024 231.184 81.6024ZM230.323 82.6674H232.046V89.6475H230.323V82.6674ZM240.413 82.6674V88.8742C240.413 89.6429 240.255 90.3009 239.938 90.8481C239.622 91.3953 239.176 91.8091 238.602 92.0895C238.028 92.3744 237.361 92.5168 236.601 92.5168C235.552 92.5168 234.711 92.2613 234.077 91.7503V90.1833C234.385 90.4773 234.745 90.7011 235.156 90.8549C235.572 91.0087 236.02 91.0855 236.499 91.0855C237.241 91.0855 237.793 90.8775 238.154 90.4615C238.516 90.0454 238.697 89.4756 238.697 88.7521V87.9787C238.231 88.942 237.469 89.4236 236.411 89.4236C235.8 89.4236 235.267 89.2789 234.81 88.9895C234.353 88.7 234.001 88.2976 233.752 87.782C233.508 87.262 233.386 86.6696 233.386 86.0048C233.386 85.3355 233.517 84.7318 233.779 84.1936C234.046 83.6509 234.419 83.2259 234.898 82.9183C235.382 82.6108 235.938 82.4571 236.567 82.4571C237.092 82.4571 237.528 82.5724 237.876 82.803C238.229 83.0337 238.505 83.3864 238.704 83.8612V82.6674H240.413ZM236.893 87.9991C237.254 87.9991 237.571 87.9132 237.842 87.7413C238.118 87.5695 238.331 87.3275 238.48 87.0155C238.629 86.7035 238.704 86.344 238.704 85.9369C238.704 85.5345 238.629 85.1795 238.48 84.872C238.331 84.5644 238.12 84.327 237.849 84.1597C237.582 83.9924 237.277 83.9087 236.933 83.9087C236.576 83.9087 236.262 83.9969 235.99 84.1733C235.724 84.3496 235.516 84.5961 235.366 84.9127C235.222 85.2292 235.149 85.5955 235.149 86.0116C235.149 86.4095 235.219 86.76 235.36 87.063C235.5 87.3615 235.701 87.5921 235.963 87.7549C236.226 87.9177 236.535 87.9991 236.893 87.9991ZM243.021 81.6024C242.831 81.6024 242.657 81.5594 242.499 81.4735C242.341 81.3876 242.216 81.27 242.126 81.1207C242.035 80.967 241.99 80.7974 241.99 80.612C241.99 80.3361 242.087 80.1078 242.282 79.9269C242.481 79.7415 242.727 79.6487 243.021 79.6487C243.32 79.6487 243.564 79.7392 243.754 79.9201C243.944 80.101 244.039 80.3316 244.039 80.612C244.039 80.8969 243.942 81.1343 243.747 81.3242C243.557 81.5097 243.315 81.6024 243.021 81.6024ZM242.16 82.6674H243.883V89.6475H242.16V82.6674ZM250.1 84.0851H248.268V89.6475H246.545V84.0851H244.89V82.6674H246.545V80.863L248.268 80.4153V82.6674H250.1V84.0851ZM253.42 82.4571C254.08 82.4571 254.648 82.5814 255.123 82.8302C255.598 83.0744 255.959 83.4271 256.208 83.8884C256.457 84.3496 256.581 84.8968 256.581 85.5299V89.6475H254.885V88.7724C254.7 89.1161 254.438 89.3829 254.099 89.5728C253.764 89.7628 253.373 89.8577 252.925 89.8577C252.473 89.8577 252.063 89.7605 251.697 89.5661C251.335 89.3671 251.053 89.0957 250.849 88.7521C250.646 88.4038 250.544 88.0149 250.544 87.5853C250.544 87.1376 250.65 86.7442 250.863 86.405C251.075 86.0658 251.372 85.8035 251.751 85.6181C252.136 85.4282 252.574 85.3332 253.067 85.3332C253.479 85.3332 253.838 85.4056 254.146 85.5503C254.458 85.695 254.704 85.8895 254.885 86.1337V85.7063C254.885 85.1365 254.725 84.6978 254.404 84.3903C254.087 84.0783 253.649 83.9223 253.088 83.9223C252.667 83.9223 252.272 83.9992 251.901 84.1529C251.534 84.3067 251.209 84.5215 250.924 84.7973V83.2372C251.263 82.9975 251.641 82.8075 252.057 82.6674C252.477 82.5272 252.932 82.4571 253.42 82.4571ZM253.542 88.6367C253.814 88.6367 254.051 88.587 254.255 88.4875C254.463 88.388 254.623 88.2501 254.736 88.0737C254.849 87.8973 254.906 87.7006 254.906 87.4836C254.906 87.2755 254.849 87.0879 254.736 86.9205C254.628 86.7532 254.472 86.6243 254.268 86.5339C254.065 86.4389 253.827 86.3914 253.556 86.3914C253.135 86.3914 252.805 86.4932 252.565 86.6967C252.326 86.8957 252.206 87.1647 252.206 87.5039C252.206 87.8521 252.324 88.128 252.559 88.3315C252.794 88.535 253.122 88.6367 253.542 88.6367ZM258.246 79.642H259.969V89.6475H258.246V79.642ZM264.199 82.4571C264.859 82.4571 265.427 82.5814 265.901 82.8302C266.376 83.0744 266.738 83.4271 266.987 83.8884C267.236 84.3496 267.36 84.8968 267.36 85.5299V89.6475H265.664V88.7724C265.479 89.1161 265.216 89.3829 264.877 89.5728C264.543 89.7628 264.151 89.8577 263.704 89.8577C263.251 89.8577 262.842 89.7605 262.476 89.5661C262.114 89.3671 261.831 89.0957 261.628 88.7521C261.424 88.4038 261.323 88.0149 261.323 87.5853C261.323 87.1376 261.429 86.7442 261.642 86.405C261.854 86.0658 262.15 85.8035 262.53 85.6181C262.915 85.4282 263.353 85.3332 263.846 85.3332C264.258 85.3332 264.617 85.4056 264.925 85.5503C265.237 85.695 265.483 85.8895 265.664 86.1337V85.7063C265.664 85.1365 265.504 84.6978 265.182 84.3903C264.866 84.0783 264.427 83.9223 263.866 83.9223C263.446 83.9223 263.05 83.9992 262.679 84.1529C262.313 84.3067 261.987 84.5215 261.703 84.7973V83.2372C262.042 82.9975 262.419 82.8075 262.835 82.6674C263.256 82.5272 263.71 82.4571 264.199 82.4571ZM264.321 88.6367C264.592 88.6367 264.83 88.587 265.033 88.4875C265.241 88.388 265.402 88.2501 265.515 88.0737C265.628 87.8973 265.684 87.7006 265.684 87.4836C265.684 87.2755 265.628 87.0879 265.515 86.9205C265.406 86.7532 265.25 86.6243 265.047 86.5339C264.843 86.4389 264.606 86.3914 264.335 86.3914C263.914 86.3914 263.584 86.4932 263.344 86.6967C263.104 86.8957 262.985 87.1647 262.985 87.5039C262.985 87.8521 263.102 88.128 263.337 88.3315C263.573 88.535 263.9 88.6367 264.321 88.6367ZM273.244 89.6475L271.671 87.1037L270.117 89.6475H268.164L270.592 86.0183L268.279 82.6674H270.253L271.677 85.0144L273.17 82.6674H275.09L272.79 85.9776L275.225 89.6475H273.244Z"
    fill="#353535" fill-opacity="0.5" />
  <path
    d="M216.161 70.3256C215.154 70.3256 214.199 70.1948 213.298 69.9332C212.396 69.666 211.606 69.3015 210.927 68.8395V66.4017C211.661 66.9082 212.446 67.3033 213.281 67.5872C214.122 67.8655 214.998 68.0046 215.911 68.0046C216.729 68.0046 217.347 67.8905 217.764 67.6623C218.187 67.4341 218.399 67.0918 218.399 66.6354C218.399 66.4072 218.343 66.2124 218.232 66.051C218.121 65.884 217.931 65.7366 217.664 65.6085C217.403 65.475 217.038 65.3525 216.57 65.2412L214.4 64.757C213.186 64.4954 212.296 64.0807 211.728 63.513C211.166 62.9397 210.885 62.2217 210.885 61.359C210.885 60.641 211.091 60.0065 211.503 59.4555C211.92 58.9045 212.535 58.4759 213.348 58.1698C214.16 57.8581 215.143 57.7022 216.295 57.7022C217.314 57.7022 218.207 57.8219 218.975 58.0612C219.743 58.295 220.389 58.59 220.912 58.9462V61.3173C220.383 60.9443 219.743 60.6438 218.992 60.4156C218.246 60.1818 217.433 60.0649 216.554 60.0649C215.708 60.0649 215.068 60.1735 214.634 60.3905C214.199 60.602 213.982 60.9054 213.982 61.3006C213.982 61.59 214.105 61.8238 214.35 62.0019C214.595 62.18 215.018 62.3358 215.619 62.4694L217.906 62.962C219.164 63.2347 220.08 63.6521 220.653 64.2143C221.232 64.7709 221.521 65.5139 221.521 66.4434C221.521 67.2171 221.301 67.8989 220.862 68.4889C220.422 69.0733 219.796 69.5269 218.983 69.8497C218.176 70.167 217.236 70.3256 216.161 70.3256ZM230.446 62.2941H227.482V70H224.56V62.2941H221.805V60.1234H224.56V58.2867L227.482 57.7022V60.1234H230.446V62.2941ZM241.183 65.5167H233.301C233.463 66.2904 233.875 66.8915 234.537 67.32C235.199 67.743 236.07 67.9545 237.15 67.9545C237.863 67.9545 238.528 67.8488 239.146 67.6373C239.769 67.4258 240.337 67.1364 240.849 66.769V69.0232C240.32 69.4128 239.669 69.7245 238.895 69.9583C238.127 70.1865 237.326 70.3006 236.491 70.3006C235.272 70.3006 234.203 70.0751 233.285 69.6243C232.366 69.1735 231.657 68.5417 231.156 67.7291C230.66 66.9165 230.413 65.9842 230.413 64.9323C230.413 63.9527 230.638 63.0677 231.089 62.2774C231.545 61.487 232.199 60.8636 233.051 60.4072C233.908 59.9453 234.913 59.7143 236.065 59.7143C237.161 59.7143 238.091 59.9063 238.853 60.2904C239.621 60.6688 240.2 61.2143 240.59 61.9267C240.985 62.6336 241.183 63.4796 241.183 64.4648V65.5167ZM236.132 61.9685C235.369 61.9685 234.749 62.1521 234.27 62.5195C233.791 62.8813 233.485 63.3683 233.352 63.9805H238.728C238.667 63.3349 238.411 62.8395 237.96 62.4944C237.515 62.1438 236.905 61.9685 236.132 61.9685ZM249.673 59.7143C250.586 59.7143 251.393 59.9425 252.095 60.3989C252.796 60.8553 253.336 61.4842 253.714 62.2857C254.098 63.0816 254.29 63.9722 254.29 64.9573C254.29 65.9981 254.079 66.9249 253.656 67.7375C253.238 68.5501 252.668 69.1818 251.944 69.6327C251.221 70.0779 250.416 70.3006 249.532 70.3006C248.585 70.3006 247.767 70.1002 247.077 69.6994C246.387 69.2987 245.852 68.7199 245.474 67.9629V73.2477H242.577V60.1234H245.474V62.461C245.791 61.5983 246.306 60.9249 247.019 60.4406C247.737 59.9564 248.621 59.7143 249.673 59.7143ZM248.329 67.9462C248.919 67.9462 249.437 67.821 249.882 67.5705C250.327 67.3145 250.67 66.9638 250.909 66.5186C251.148 66.0677 251.268 65.5612 251.268 64.9991C251.268 64.4425 251.151 63.9416 250.917 63.4963C250.684 63.051 250.347 62.7032 249.907 62.4527C249.473 62.1967 248.964 62.0687 248.379 62.0687C247.795 62.0687 247.28 62.1995 246.835 62.461C246.39 62.7171 246.047 63.0705 245.808 63.5213C245.569 63.9722 245.449 64.4815 245.449 65.0492C245.449 65.6058 245.566 66.1039 245.8 66.5436C246.033 66.9777 246.367 67.32 246.801 67.5705C247.236 67.821 247.745 67.9462 248.329 67.9462ZM262.38 59.7143C263.243 59.7143 263.975 59.898 264.576 60.2653C265.177 60.6271 265.634 61.1614 265.945 61.8683C266.262 62.5696 266.421 63.4239 266.421 64.4314V70H263.516V65.0742C263.516 64.1002 263.321 63.3738 262.931 62.8952C262.542 62.411 261.952 62.1688 261.161 62.1688C260.599 62.1688 260.121 62.2857 259.725 62.5195C259.336 62.7533 259.041 63.0844 258.84 63.513C258.646 63.9416 258.548 64.4397 258.548 65.0074V70H255.651V57.6855H258.548V62.3275C258.899 61.4481 259.389 60.7941 260.018 60.3655C260.652 59.9314 261.44 59.7143 262.38 59.7143ZM272.274 59.7143C273.37 59.7143 274.311 59.9035 275.095 60.282C275.88 60.6605 276.479 61.2171 276.89 61.9518C277.308 62.6865 277.517 63.5798 277.517 64.6317V70H274.678V68.6642C274.339 69.2152 273.877 69.6327 273.292 69.9165C272.713 70.1948 272.037 70.334 271.263 70.334C270.54 70.334 269.905 70.192 269.36 69.9082C268.814 69.6243 268.391 69.2375 268.091 68.7477C267.796 68.2523 267.648 67.6985 267.648 67.0863C267.648 66.4685 267.801 65.9174 268.108 65.4332C268.419 64.9434 268.859 64.5622 269.427 64.2894C270 64.0111 270.662 63.872 271.414 63.872C272.866 63.872 273.952 64.3451 274.67 65.2913V64.8905C274.659 64.2783 274.514 63.7635 274.236 63.346C273.957 62.9286 273.576 62.6169 273.092 62.411C272.613 62.1995 272.059 62.0937 271.43 62.0937C270.156 62.0937 269.065 62.5306 268.158 63.4045V61C269.326 60.1429 270.698 59.7143 272.274 59.7143ZM272.416 68.4805C272.85 68.4805 273.236 68.4137 273.576 68.2802C273.921 68.1466 274.191 67.9601 274.386 67.7208C274.581 67.4814 274.678 67.2143 274.678 66.9193C274.678 66.6354 274.586 66.3822 274.403 66.1596C274.219 65.9314 273.957 65.7533 273.618 65.6252C273.284 65.4972 272.897 65.4332 272.457 65.4332C272.029 65.4332 271.659 65.4972 271.347 65.6252C271.035 65.7533 270.796 65.9314 270.629 66.1596C270.467 66.3878 270.387 66.6494 270.387 66.9443C270.387 67.2449 270.467 67.5121 270.629 67.7458C270.79 67.9796 271.024 68.1605 271.33 68.2885C271.636 68.4165 271.998 68.4805 272.416 68.4805ZM286.024 59.7143C286.887 59.7143 287.619 59.898 288.22 60.2653C288.821 60.6271 289.277 61.1614 289.589 61.8683C289.906 62.5696 290.065 63.4239 290.065 64.4314V70H287.159V65.0742C287.159 64.1002 286.965 63.3738 286.575 62.8952C286.185 62.411 285.595 62.1688 284.805 62.1688C284.243 62.1688 283.764 62.2857 283.369 62.5195C282.98 62.7533 282.685 63.0844 282.484 63.513C282.289 63.9416 282.192 64.4397 282.192 65.0074V70H279.295V60.1234H282.175V62.3692C282.526 61.4731 283.018 60.808 283.653 60.3738C284.287 59.9341 285.078 59.7143 286.024 59.7143ZM293.371 59.6892C293.048 59.6892 292.759 59.6308 292.503 59.5139C292.247 59.3915 292.046 59.2245 291.902 59.013C291.757 58.8015 291.685 58.5649 291.685 58.3034C291.685 58.0473 291.757 57.8163 291.902 57.6104C292.052 57.4045 292.255 57.2431 292.511 57.1262C292.767 57.0093 293.054 56.9508 293.371 56.9508C293.683 56.9508 293.964 57.0093 294.214 57.1262C294.465 57.2431 294.659 57.4045 294.799 57.6104C294.943 57.8163 295.016 58.0473 295.016 58.3034C295.016 58.5649 294.943 58.8015 294.799 59.013C294.659 59.2245 294.465 59.3915 294.214 59.5139C293.964 59.6308 293.683 59.6892 293.371 59.6892ZM291.902 60.4657H294.807V70H291.902V60.4657ZM306.938 65.5167H299.057C299.218 66.2904 299.63 66.8915 300.292 67.32C300.954 67.743 301.826 67.9545 302.905 67.9545C303.618 67.9545 304.283 67.8488 304.901 67.6373C305.524 67.4258 306.092 67.1364 306.604 66.769V69.0232C306.075 69.4128 305.424 69.7245 304.65 69.9583C303.882 70.1865 303.081 70.3006 302.246 70.3006C301.027 70.3006 299.958 70.0751 299.04 69.6243C298.121 69.1735 297.412 68.5417 296.911 67.7291C296.416 66.9165 296.168 65.9842 296.168 64.9323C296.168 63.9527 296.393 63.0677 296.844 62.2774C297.3 61.487 297.954 60.8636 298.806 60.4072C299.663 59.9453 300.668 59.7143 301.82 59.7143C302.916 59.7143 303.846 59.9063 304.608 60.2904C305.377 60.6688 305.955 61.2143 306.345 61.9267C306.74 62.6336 306.938 63.4796 306.938 64.4648V65.5167ZM301.887 61.9685C301.124 61.9685 300.504 62.1521 300.025 62.5195C299.546 62.8813 299.24 63.3683 299.107 63.9805H304.483C304.422 63.3349 304.166 62.8395 303.715 62.4944C303.27 62.1438 302.66 61.9685 301.887 61.9685Z"
    fill="#317b8a" />
  <path
    d="M327.907 56.2747C327.532 56.2743 327.162 56.3478 326.816 56.4909C326.47 56.634 326.156 56.8439 325.891 57.1086C325.626 57.3733 325.416 57.6876 325.273 58.0335C325.13 58.3794 325.057 58.7501 325.057 59.1244C325.057 58.3686 324.757 57.6438 324.222 57.1093C323.688 56.5749 322.963 56.2747 322.207 56.2747C321.452 56.2747 320.727 56.5749 320.192 57.1093C319.658 57.6438 319.358 58.3686 319.358 59.1244C319.358 58.3686 319.057 57.6438 318.523 57.1093C317.989 56.5749 317.264 56.2747 316.508 56.2747C315.752 56.2747 315.027 56.5749 314.493 57.1093C313.958 57.6438 313.658 58.3686 313.658 59.1244V63.2218C313.658 65.4892 314.559 67.6637 316.162 69.267C317.765 70.8703 319.94 71.771 322.207 71.771C324.475 71.7704 326.649 70.8694 328.252 69.2663C329.855 67.6632 330.756 65.489 330.757 63.2218V59.1244C330.757 58.3686 330.456 57.6438 329.922 57.1093C329.387 56.5749 328.663 56.2747 327.907 56.2747V56.2747Z"
    fill="#317b8a" />
  <path d="M319.449 64.4868L321.558 66.5148L325.618 61.6582" stroke="#dce7ea" stroke-opacity="0.9" stroke-width="2.62564" stroke-linecap="round"
    stroke-linejoin="round" />
  <g opacity="0.5" filter="url(#filter0_d_6358_49562)">
    <rect x="210" y="113" width="331" height="19" rx="9.5" fill="black" fill-opacity="0.3" shape-rendering="crispEdges" />
  </g>
  <g opacity="0.5" filter="url(#filter1_d_6358_49562)">
    <rect x="210.022" y="219.926" width="266.853" height="18.3797" rx="9.18987" fill="black" fill-opacity="0.3" shape-rendering="crispEdges" />
  </g>
  <g opacity="0.5" filter="url(#filter2_d_6358_49562)">
    <rect x="210.022" y="244.432" width="134.34" height="18.3797" rx="9.18987" fill="black" fill-opacity="0.3" shape-rendering="crispEdges" />
  </g>
  <g opacity="0.5" filter="url(#filter3_d_6358_49562)">
    <rect x="210.022" y="154.284" width="285.13" height="18.3797" rx="9.18987" fill="black" fill-opacity="0.3" shape-rendering="crispEdges" />
  </g>
  <g opacity="0.5" filter="url(#filter4_d_6358_49562)">
    <rect x="210.022" y="178.79" width="206.537" height="18.3797" rx="9.18987" fill="black" fill-opacity="0.3" shape-rendering="crispEdges" />
  </g>
  <circle cx="579.5" cy="57.5" r="1.5" fill="#317b8a" />
  <circle cx="579.5" cy="62.8999" r="1.5" fill="#317b8a" />
  <circle cx="579.5" cy="68.3" r="1.5" fill="#317b8a" />
  <rect x="125.562" y="22.5624" width="484.875" height="291.45" rx="28.4448" stroke="#317b8a" stroke-width="0.875226" />
  <rect x="212" y="287" width="312.342" height="57.6631" rx="28.8315" fill="#317b8a" />
  <path
    d="M317.539 324.745C315.37 324.745 313.497 324.381 311.922 323.653C310.355 322.917 309.162 321.914 308.345 320.644C307.527 319.366 307.119 317.924 307.119 316.319C307.119 314.692 307.535 313.228 308.367 311.928C309.199 310.62 310.414 309.591 312.011 308.841C313.609 308.091 315.507 307.715 317.707 307.715C319.051 307.715 320.281 307.849 321.396 308.117C322.517 308.384 323.584 308.77 324.594 309.276V313.99C323.948 313.537 323.138 313.169 322.165 312.887C321.199 312.604 320.17 312.463 319.077 312.463C317.881 312.463 316.852 312.619 315.99 312.931C315.128 313.243 314.471 313.682 314.018 314.246C313.572 314.804 313.349 315.45 313.349 316.186C313.349 316.929 313.575 317.586 314.029 318.158C314.489 318.723 315.151 319.165 316.012 319.484C316.874 319.797 317.896 319.953 319.077 319.953C320.207 319.953 321.258 319.804 322.231 319.507C323.205 319.202 324.007 318.797 324.639 318.292V322.895C323.547 323.534 322.443 324.002 321.329 324.299C320.222 324.596 318.958 324.745 317.539 324.745ZM336.122 324.745C334.049 324.745 332.225 324.362 330.65 323.597C329.074 322.832 327.86 321.795 327.005 320.487C326.151 319.18 325.723 317.731 325.723 316.141C325.723 314.521 326.147 313.076 326.994 311.806C327.848 310.528 329.063 309.528 330.638 308.808C332.214 308.079 334.049 307.715 336.144 307.715C338.224 307.715 340.048 308.079 341.616 308.808C343.191 309.528 344.402 310.528 345.249 311.806C346.104 313.076 346.531 314.521 346.531 316.141C346.531 317.738 346.1 319.191 345.238 320.499C344.384 321.806 343.169 322.843 341.594 323.608C340.019 324.366 338.195 324.745 336.122 324.745ZM336.122 320.109C336.976 320.109 337.727 319.945 338.373 319.618C339.019 319.284 339.517 318.819 339.866 318.225C340.216 317.631 340.39 316.951 340.39 316.186C340.39 315.428 340.216 314.759 339.866 314.179C339.517 313.6 339.019 313.15 338.373 312.831C337.727 312.511 336.976 312.352 336.122 312.352C335.26 312.352 334.506 312.511 333.859 312.831C333.213 313.15 332.711 313.6 332.355 314.179C332.006 314.759 331.831 315.428 331.831 316.186C331.831 316.951 332.006 317.631 332.355 318.225C332.711 318.819 333.213 319.284 333.859 319.618C334.506 319.945 335.26 320.109 336.122 320.109ZM362.74 319.562V324.221H348.062V308.239H353.768V319.562H362.74ZM378.536 319.562V324.221H363.858V308.239H369.564V319.562H378.536ZM394.532 320.153V324.221H379.654V308.239H394.466V312.307H385.36V314.269H394.009V318.013H385.36V320.153H394.532ZM405.904 324.745C403.734 324.745 401.862 324.381 400.287 323.653C398.719 322.917 397.527 321.914 396.709 320.644C395.892 319.366 395.483 317.924 395.483 316.319C395.483 314.692 395.9 313.228 396.732 311.928C397.564 310.62 398.779 309.591 400.376 308.841C401.974 308.091 403.872 307.715 406.071 307.715C407.416 307.715 408.646 307.849 409.76 308.117C410.882 308.384 411.948 308.77 412.959 309.276V313.99C412.312 313.537 411.503 313.169 410.529 312.887C409.563 312.604 408.534 312.463 407.442 312.463C406.246 312.463 405.217 312.619 404.355 312.931C403.493 313.243 402.835 313.682 402.382 314.246C401.936 314.804 401.714 315.45 401.714 316.186C401.714 316.929 401.94 317.586 402.393 318.158C402.854 318.723 403.515 319.165 404.377 319.484C405.239 319.797 406.261 319.953 407.442 319.953C408.571 319.953 409.623 319.804 410.596 319.507C411.569 319.202 412.372 318.797 413.003 318.292V322.895C411.911 323.534 410.808 324.002 409.693 324.299C408.586 324.596 407.323 324.745 405.904 324.745ZM430.36 312.742H424.921V324.221H419.215V312.742H413.676V308.239H430.36V312.742Z"
    fill="#dce7ea" fill-opacity="0.9" />
  <rect x="551" y="205" width="184" height="43" rx="21.5" fill="#317b8a" />
  <path
    d="M605.136 232.724C603.518 232.724 602.122 232.452 600.947 231.91C599.778 231.361 598.889 230.613 598.279 229.666C597.67 228.713 597.365 227.638 597.365 226.441C597.365 225.228 597.675 224.136 598.296 223.166C598.916 222.191 599.822 221.424 601.014 220.864C602.205 220.305 603.62 220.025 605.261 220.025C606.263 220.025 607.18 220.125 608.011 220.324C608.848 220.524 609.643 220.812 610.397 221.188V224.704C609.915 224.366 609.311 224.092 608.585 223.881C607.865 223.671 607.097 223.565 606.283 223.565C605.391 223.565 604.623 223.682 603.981 223.914C603.338 224.147 602.848 224.474 602.51 224.895C602.177 225.311 602.011 225.793 602.011 226.341C602.011 226.895 602.18 227.386 602.518 227.812C602.861 228.233 603.355 228.563 603.997 228.801C604.64 229.034 605.402 229.15 606.283 229.15C607.125 229.15 607.909 229.039 608.635 228.818C609.361 228.591 609.959 228.289 610.43 227.912V231.344C609.615 231.821 608.793 232.17 607.962 232.392C607.136 232.613 606.194 232.724 605.136 232.724ZM618.993 232.724C617.447 232.724 616.087 232.439 614.912 231.868C613.738 231.297 612.832 230.524 612.195 229.549C611.557 228.574 611.239 227.494 611.239 226.308C611.239 225.1 611.555 224.022 612.186 223.075C612.823 222.122 613.729 221.377 614.904 220.839C616.079 220.296 617.447 220.025 619.01 220.025C620.561 220.025 621.921 220.296 623.09 220.839C624.265 221.377 625.168 222.122 625.8 223.075C626.437 224.022 626.755 225.1 626.755 226.308C626.755 227.499 626.434 228.582 625.791 229.558C625.154 230.533 624.248 231.306 623.074 231.876C621.899 232.441 620.539 232.724 618.993 232.724ZM618.993 229.267C619.63 229.267 620.19 229.145 620.672 228.901C621.154 228.652 621.525 228.305 621.785 227.862C622.046 227.419 622.176 226.912 622.176 226.341C622.176 225.776 622.046 225.277 621.785 224.845C621.525 224.413 621.154 224.078 620.672 223.84C620.19 223.601 619.63 223.482 618.993 223.482C618.35 223.482 617.788 223.601 617.306 223.84C616.824 224.078 616.45 224.413 616.184 224.845C615.923 225.277 615.793 225.776 615.793 226.341C615.793 226.912 615.923 227.419 616.184 227.862C616.45 228.305 616.824 228.652 617.306 228.901C617.788 229.145 618.35 229.267 618.993 229.267ZM638.842 228.859V232.333H627.897V220.415H632.152V228.859H638.842ZM650.622 228.859V232.333H639.676V220.415H643.931V228.859H650.622ZM662.55 229.3V232.333H651.455V220.415H662.501V223.449H655.711V224.912H662.16V227.704H655.711V229.3H662.55ZM671.03 232.724C669.412 232.724 668.016 232.452 666.842 231.91C665.673 231.361 664.783 230.613 664.174 229.666C663.564 228.713 663.26 227.638 663.26 226.441C663.26 225.228 663.57 224.136 664.19 223.166C664.811 222.191 665.717 221.424 666.908 220.864C668.099 220.305 669.515 220.025 671.155 220.025C672.158 220.025 673.075 220.125 673.906 220.324C674.743 220.524 675.538 220.812 676.291 221.188V224.704C675.809 224.366 675.205 224.092 674.479 223.881C673.759 223.671 672.992 223.565 672.177 223.565C671.285 223.565 670.518 223.682 669.875 223.914C669.232 224.147 668.742 224.474 668.404 224.895C668.072 225.311 667.905 225.793 667.905 226.341C667.905 226.895 668.074 227.386 668.412 227.812C668.756 228.233 669.249 228.563 669.892 228.801C670.534 229.034 671.296 229.15 672.177 229.15C673.019 229.15 673.803 229.039 674.529 228.818C675.255 228.591 675.853 228.289 676.324 227.912V231.344C675.51 231.821 674.687 232.17 673.856 232.392C673.031 232.613 672.089 232.724 671.03 232.724ZM689.267 223.773H685.212V232.333H680.956V223.773H676.826V220.415H689.267V223.773Z"
    fill="#dce7ea" />
  <defs>
    <filter id="filter0_d_6358_49562" x="206.84" y="109.84" width="337.321" height="25.3206" filterUnits="userSpaceOnUse" color-interpolation-filters="sRGB">
      <feFlood flood-opacity="0" result="BackgroundImageFix" />
      <feColorMatrix in="SourceAlpha" type="matrix" values="0 0 0 0 0 0 0 0 0 0 0 0 0 0 0 0 0 0 127 0" result="hardAlpha" />
      <feOffset />
      <feGaussianBlur stdDeviation="1.58015" />
      <feComposite in2="hardAlpha" operator="out" />
      <feColorMatrix type="matrix" values="0 0 0 0 0 0 0 0 0 0 0 0 0 0 0 0 0 0 0.05 0" />
      <feBlend mode="normal" in2="BackgroundImageFix" result="effect1_dropShadow_6358_49562" />
      <feBlend mode="normal" in="SourceGraphic" in2="effect1_dropShadow_6358_49562" result="shape" />
    </filter>
    <filter id="filter1_d_6358_49562" x="206.862" y="216.766" width="273.173" height="24.7004" filterUnits="userSpaceOnUse" color-interpolation-filters="sRGB">
      <feFlood flood-opacity="0" result="BackgroundImageFix" />
      <feColorMatrix in="SourceAlpha" type="matrix" values="0 0 0 0 0 0 0 0 0 0 0 0 0 0 0 0 0 0 127 0" result="hardAlpha" />
      <feOffset />
      <feGaussianBlur stdDeviation="1.58015" />
      <feComposite in2="hardAlpha" operator="out" />
      <feColorMatrix type="matrix" values="0 0 0 0 0 0 0 0 0 0 0 0 0 0 0 0 0 0 0.05 0" />
      <feBlend mode="normal" in2="BackgroundImageFix" result="effect1_dropShadow_6358_49562" />
      <feBlend mode="normal" in="SourceGraphic" in2="effect1_dropShadow_6358_49562" result="shape" />
    </filter>
    <filter id="filter2_d_6358_49562" x="206.862" y="241.272" width="140.661" height="24.7004" filterUnits="userSpaceOnUse" color-interpolation-filters="sRGB">
      <feFlood flood-opacity="0" result="BackgroundImageFix" />
      <feColorMatrix in="SourceAlpha" type="matrix" values="0 0 0 0 0 0 0 0 0 0 0 0 0 0 0 0 0 0 127 0" result="hardAlpha" />
      <feOffset />
      <feGaussianBlur stdDeviation="1.58015" />
      <feComposite in2="hardAlpha" operator="out" />
      <feColorMatrix type="matrix" values="0 0 0 0 0 0 0 0 0 0 0 0 0 0 0 0 0 0 0.05 0" />
      <feBlend mode="normal" in2="BackgroundImageFix" result="effect1_dropShadow_6358_49562" />
      <feBlend mode="normal" in="SourceGraphic" in2="effect1_dropShadow_6358_49562" result="shape" />
    </filter>
    <filter id="filter3_d_6358_49562" x="206.862" y="151.124" width="291.45" height="24.7003" filterUnits="userSpaceOnUse" color-interpolation-filters="sRGB">
      <feFlood flood-opacity="0" result="BackgroundImageFix" />
      <feColorMatrix in="SourceAlpha" type="matrix" values="0 0 0 0 0 0 0 0 0 0 0 0 0 0 0 0 0 0 127 0" result="hardAlpha" />
      <feOffset />
      <feGaussianBlur stdDeviation="1.58015" />
      <feComposite in2="hardAlpha" operator="out" />
      <feColorMatrix type="matrix" values="0 0 0 0 0 0 0 0 0 0 0 0 0 0 0 0 0 0 0.05 0" />
      <feBlend mode="normal" in2="BackgroundImageFix" result="effect1_dropShadow_6358_49562" />
      <feBlend mode="normal" in="SourceGraphic" in2="effect1_dropShadow_6358_49562" result="shape" />
    </filter>
    <filter id="filter4_d_6358_49562" x="206.862" y="175.63" width="212.857" height="24.7004" filterUnits="userSpaceOnUse" color-interpolation-filters="sRGB">
      <feFlood flood-opacity="0" result="BackgroundImageFix" />
      <feColorMatrix in="SourceAlpha" type="matrix" values="0 0 0 0 0 0 0 0 0 0 0 0 0 0 0 0 0 0 127 0" result="hardAlpha" />
      <feOffset />
      <feGaussianBlur stdDeviation="1.58015" />
      <feComposite in2="hardAlpha" operator="out" />
      <feColorMatrix type="matrix" values="0 0 0 0 0 0 0 0 0 0 0 0 0 0 0 0 0 0 0.05 0" />
      <feBlend mode="normal" in2="BackgroundImageFix" result="effect1_dropShadow_6358_49562" />
      <feBlend mode="normal" in="SourceGraphic" in2="effect1_dropShadow_6358_49562" result="shape" />
    </filter>
    <clipPath id="clip0_6358_49562">
      <rect x="154.007" y="51.0073" width="42.0108" height="42.0108" rx="21.0054" fill="#dce7ea" />
    </clipPath>
  </defs>
</svg>