<svg width="735" height="357" viewBox="0 0 735 357" fill="none" xmlns="http://www.w3.org/2000/svg">
  <path d="M269.135 0L269.135 357" stroke="#dce7ea" stroke-opacity="0.08" stroke-dasharray="7 4" />
  <path d="M465.865 0L465.865 357" stroke="#dce7ea" stroke-opacity="0.08" stroke-dasharray="7 4" />
  <path d="M0 65.5H735" stroke="#dce7ea" stroke-opacity="0.08" stroke-dasharray="7 4" />
  <path d="M0 178.5H735" stroke="#dce7ea" stroke-opacity="0.08" stroke-dasharray="7 4" />
  <path d="M0 292.5H735" stroke="#dce7ea" stroke-opacity="0.08" stroke-dasharray="7 4" />
  <g clip-path="url(#clip0_6352_49561)">
    <rect x="185.207" y="36" width="167.734" height="175.887" rx="8" fill="#317b8a" />
    <rect width="167.734" height="69.3067" transform="translate(185.207 36)" fill="#dce7ea" fill-opacity="0.9" />
    <rect x="282.755" y="71.8126" width="59.9995" height="59.9995" rx="29.9998" fill="#dce7ea" fill-opacity="0.9" />
    <path fill-rule="evenodd" clip-rule="evenodd"
      d="M320.618 96.911C322.265 95.5272 324.103 95.0008 325.865 95.1339C327.745 95.2758 329.485 96.1631 330.784 97.4519C332.084 98.7408 332.976 100.465 333.119 102.325C333.263 104.203 332.639 106.169 330.993 107.895C330.842 108.054 330.689 108.211 330.531 108.366C323.065 115.771 313.148 115.79 313.046 115.79C312.996 115.79 303.046 115.79 295.561 108.365L295.559 108.363C295.404 108.209 295.252 108.054 295.102 107.897L295.101 107.896C293.454 106.172 292.829 104.206 292.973 102.328C293.115 100.468 294.008 98.744 295.306 97.4547C296.605 96.1654 298.345 95.2774 300.225 95.1348C301.988 95.0012 303.826 95.527 305.474 96.9101C305.651 94.7769 306.574 93.1167 307.914 91.9753C309.344 90.758 311.206 90.1643 313.046 90.1643C314.885 90.1643 316.748 90.758 318.177 91.9753C319.518 93.1168 320.441 94.7774 320.618 96.911Z"
      fill="#317b8a" />
    <rect x="282.755" y="71.8126" width="59.9995" height="59.9995" rx="29.9998" stroke="#317b8a" stroke-width="1.75865" />
    <path
      d="M198.116 119.422V118.886C198.017 119.09 197.869 119.25 197.672 119.366C197.477 119.48 197.239 119.536 196.958 119.536C196.692 119.536 196.457 119.481 196.252 119.37C196.048 119.259 195.889 119.106 195.775 118.911C195.665 118.717 195.609 118.496 195.609 118.25C195.609 118.006 195.666 117.785 195.779 117.588C195.892 117.391 196.055 117.237 196.267 117.126C196.479 117.012 196.727 116.956 197.01 116.956C197.284 116.956 197.515 117.009 197.705 117.115C197.895 117.218 198.032 117.361 198.116 117.544V117.536C198.116 117.065 197.982 116.709 197.716 116.468C197.453 116.226 197.085 116.105 196.615 116.105C196.206 116.105 195.846 116.2 195.535 116.39C195.227 116.58 194.989 116.84 194.822 117.17C194.656 117.5 194.574 117.871 194.574 118.283C194.574 118.719 194.673 119.109 194.87 119.451C195.069 119.794 195.35 120.061 195.713 120.253C196.075 120.446 196.491 120.542 196.962 120.542C197.342 120.542 197.706 120.48 198.056 120.357C198.409 120.234 198.722 120.069 198.995 119.862V120.727C198.682 120.948 198.352 121.111 198.005 121.215C197.66 121.318 197.286 121.37 196.885 121.37C196.229 121.37 195.658 121.237 195.173 120.971C194.687 120.704 194.315 120.34 194.056 119.876C193.798 119.411 193.668 118.886 193.668 118.301C193.668 117.71 193.796 117.187 194.053 116.734C194.309 116.278 194.661 115.926 195.11 115.677C195.561 115.425 196.069 115.3 196.633 115.3C197.141 115.3 197.572 115.392 197.927 115.577C198.284 115.759 198.554 116.018 198.737 116.353C198.919 116.686 199.01 117.075 199.01 117.521V119.422H198.116ZM197.254 118.871C197.419 118.871 197.567 118.842 197.698 118.786C197.831 118.727 197.933 118.646 198.005 118.545C198.079 118.444 198.116 118.331 198.116 118.205C198.116 118.085 198.079 117.976 198.005 117.88C197.933 117.781 197.833 117.705 197.705 117.651C197.577 117.594 197.432 117.566 197.269 117.566C197.03 117.566 196.845 117.626 196.714 117.747C196.584 117.865 196.519 118.022 196.519 118.216C196.519 118.414 196.583 118.573 196.711 118.693C196.839 118.812 197.02 118.871 197.254 118.871ZM201.696 116.586C201.886 116.586 202.051 116.643 202.191 116.756V117.632C202.031 117.519 201.829 117.462 201.585 117.462C201.425 117.462 201.283 117.505 201.16 117.592C201.039 117.675 200.944 117.8 200.875 117.965C200.806 118.128 200.771 118.324 200.768 118.553V120.46H199.829V116.656H200.768V117.418C200.854 117.144 200.978 116.937 201.138 116.797C201.298 116.656 201.484 116.586 201.696 116.586ZM206.071 118.76H203.384C203.428 119.09 203.565 119.344 203.794 119.521C204.023 119.699 204.334 119.788 204.726 119.788C204.945 119.788 205.161 119.754 205.373 119.688C205.587 119.619 205.771 119.525 205.923 119.407V120.176C205.771 120.294 205.572 120.39 205.328 120.464C205.087 120.538 204.825 120.575 204.544 120.575C204.118 120.575 203.745 120.492 203.424 120.327C203.106 120.16 202.86 119.922 202.685 119.614C202.51 119.306 202.422 118.946 202.422 118.534C202.422 118.147 202.499 117.804 202.652 117.503C202.807 117.2 203.03 116.964 203.321 116.797C203.614 116.627 203.96 116.542 204.36 116.542C204.712 116.542 205.016 116.609 205.273 116.745C205.529 116.878 205.726 117.074 205.864 117.333C206.002 117.589 206.071 117.9 206.071 118.264V118.76ZM204.36 117.303C204.086 117.303 203.868 117.381 203.705 117.536C203.545 117.689 203.445 117.9 203.406 118.168H205.225C205.22 117.892 205.14 117.679 204.984 117.529C204.832 117.378 204.623 117.303 204.36 117.303ZM208.495 120.575C208.118 120.575 207.781 120.49 207.485 120.32C207.192 120.147 206.963 119.908 206.798 119.603C206.633 119.297 206.55 118.951 206.55 118.564C206.55 118.172 206.631 117.823 206.794 117.518C206.959 117.212 207.188 116.973 207.482 116.8C207.777 116.628 208.115 116.542 208.495 116.542C208.879 116.542 209.219 116.628 209.515 116.8C209.811 116.973 210.04 117.212 210.203 117.518C210.368 117.823 210.45 118.172 210.45 118.564C210.45 118.951 210.368 119.297 210.203 119.603C210.037 119.908 209.806 120.147 209.508 120.32C209.212 120.49 208.874 120.575 208.495 120.575ZM208.495 119.758C208.699 119.758 208.877 119.708 209.027 119.606C209.177 119.505 209.292 119.365 209.371 119.185C209.45 119.005 209.489 118.797 209.489 118.56C209.489 118.324 209.45 118.115 209.371 117.935C209.292 117.753 209.177 117.611 209.027 117.51C208.877 117.409 208.699 117.359 208.495 117.359C208.29 117.359 208.114 117.409 207.966 117.51C207.818 117.611 207.705 117.753 207.626 117.935C207.549 118.115 207.511 118.324 207.511 118.56C207.511 118.797 207.551 119.005 207.63 119.185C207.708 119.365 207.822 119.505 207.97 119.606C208.118 119.708 208.293 119.758 208.495 119.758ZM212.962 120.579C212.556 120.579 212.197 120.491 211.887 120.316C211.576 120.141 211.336 119.9 211.166 119.592C210.996 119.284 210.911 118.936 210.911 118.549C210.911 118.16 210.996 117.813 211.166 117.51C211.336 117.205 211.576 116.967 211.887 116.797C212.2 116.624 212.562 116.538 212.973 116.538C213.457 116.538 213.861 116.638 214.186 116.837V117.743C214.028 117.615 213.859 117.52 213.68 117.459C213.5 117.397 213.302 117.366 213.088 117.366C212.842 117.366 212.626 117.415 212.441 117.514C212.259 117.613 212.118 117.751 212.02 117.928C211.921 118.106 211.872 118.31 211.872 118.542C211.872 118.776 211.92 118.984 212.016 119.167C212.115 119.349 212.26 119.492 212.452 119.595C212.644 119.699 212.876 119.751 213.147 119.751C213.352 119.751 213.55 119.717 213.742 119.651C213.935 119.584 214.096 119.498 214.227 119.392V120.235C213.862 120.464 213.44 120.579 212.962 120.579ZM216.809 116.586C216.999 116.586 217.164 116.643 217.304 116.756V117.632C217.144 117.519 216.942 117.462 216.698 117.462C216.538 117.462 216.396 117.505 216.273 117.592C216.152 117.675 216.057 117.8 215.988 117.965C215.919 118.128 215.884 118.324 215.881 118.553V120.46H214.942V116.656H215.881V117.418C215.967 117.144 216.091 116.937 216.251 116.797C216.411 116.656 216.597 116.586 216.809 116.586ZM219.132 116.542C219.492 116.542 219.802 116.609 220.06 116.745C220.319 116.878 220.516 117.07 220.652 117.322C220.787 117.573 220.855 117.871 220.855 118.216V120.46H219.931V119.984C219.83 120.171 219.687 120.316 219.502 120.42C219.32 120.523 219.107 120.575 218.863 120.575C218.616 120.575 218.393 120.522 218.193 120.416C217.996 120.308 217.842 120.16 217.731 119.972C217.62 119.783 217.565 119.571 217.565 119.337C217.565 119.093 217.623 118.878 217.739 118.693C217.855 118.508 218.016 118.366 218.223 118.264C218.433 118.161 218.672 118.109 218.94 118.109C219.165 118.109 219.36 118.149 219.528 118.228C219.698 118.306 219.832 118.412 219.931 118.545V118.313C219.931 118.002 219.844 117.763 219.669 117.595C219.496 117.425 219.257 117.34 218.951 117.34C218.722 117.34 218.506 117.382 218.304 117.466C218.105 117.55 217.927 117.667 217.772 117.817V116.967C217.957 116.836 218.163 116.733 218.389 116.656C218.619 116.58 218.866 116.542 219.132 116.542ZM219.199 119.91C219.347 119.91 219.476 119.882 219.587 119.828C219.701 119.774 219.788 119.699 219.85 119.603C219.911 119.507 219.942 119.399 219.942 119.281C219.942 119.168 219.911 119.065 219.85 118.974C219.791 118.883 219.705 118.813 219.595 118.764C219.484 118.712 219.354 118.686 219.206 118.686C218.977 118.686 218.797 118.741 218.667 118.852C218.536 118.961 218.471 119.107 218.471 119.292C218.471 119.482 218.535 119.632 218.663 119.743C218.791 119.854 218.97 119.91 219.199 119.91ZM225.345 116.656V120.039C225.345 120.458 225.259 120.817 225.086 121.115C224.914 121.413 224.671 121.639 224.358 121.791C224.045 121.947 223.682 122.024 223.267 122.024C222.696 122.024 222.237 121.885 221.892 121.606V120.753C222.06 120.913 222.256 121.035 222.48 121.119C222.707 121.202 222.951 121.244 223.212 121.244C223.616 121.244 223.917 121.131 224.114 120.904C224.311 120.677 224.41 120.367 224.41 119.972V119.551C224.156 120.076 223.741 120.338 223.164 120.338C222.831 120.338 222.54 120.26 222.291 120.102C222.043 119.944 221.85 119.725 221.715 119.444C221.582 119.16 221.515 118.837 221.515 118.475C221.515 118.11 221.587 117.781 221.73 117.488C221.875 117.192 222.078 116.961 222.34 116.793C222.603 116.625 222.906 116.542 223.249 116.542C223.535 116.542 223.773 116.605 223.962 116.73C224.155 116.856 224.305 117.048 224.414 117.307V116.656H225.345ZM223.426 119.562C223.624 119.562 223.796 119.515 223.944 119.422C224.094 119.328 224.21 119.196 224.292 119.026C224.373 118.856 224.414 118.66 224.414 118.438C224.414 118.219 224.373 118.025 224.292 117.858C224.21 117.69 224.096 117.561 223.948 117.47C223.802 117.378 223.636 117.333 223.449 117.333C223.254 117.333 223.083 117.381 222.935 117.477C222.789 117.573 222.676 117.707 222.595 117.88C222.516 118.053 222.476 118.252 222.476 118.479C222.476 118.696 222.515 118.887 222.591 119.052C222.667 119.215 222.777 119.34 222.92 119.429C223.063 119.518 223.232 119.562 223.426 119.562ZM229.709 116.656V120.46H228.781V119.795C228.675 120.039 228.521 120.229 228.319 120.364C228.117 120.497 227.879 120.564 227.606 120.564C227.317 120.564 227.071 120.505 226.866 120.387C226.662 120.266 226.505 120.093 226.397 119.869C226.291 119.645 226.238 119.375 226.238 119.059V116.656H227.177V118.837C227.177 119.466 227.431 119.78 227.939 119.78C228.207 119.78 228.413 119.682 228.556 119.484C228.699 119.287 228.77 119.008 228.77 118.645V116.656H229.709ZM232.82 116.542C233.091 116.542 233.327 116.602 233.526 116.723C233.726 116.844 233.879 117.02 233.985 117.252C234.093 117.481 234.147 117.756 234.147 118.076V120.46H233.208V118.283C233.208 117.96 233.149 117.723 233.031 117.573C232.915 117.42 232.727 117.344 232.465 117.344C232.189 117.344 231.975 117.439 231.822 117.629C231.669 117.818 231.593 118.081 231.593 118.416V120.46H230.654V116.656H231.582V117.274C231.69 117.042 231.849 116.862 232.059 116.734C232.268 116.606 232.522 116.542 232.82 116.542Z"
      fill="#DCDCDC" fill-opacity="0.5" />
    <path
      d="M200.937 134.625L197.013 130.394V134.625H194.563V124.838H200.425C201.099 124.838 201.693 124.968 202.207 125.227C202.725 125.486 203.126 125.85 203.408 126.319C203.69 126.783 203.831 127.313 203.831 127.909C203.831 128.505 203.701 129.029 203.442 129.479C203.183 129.93 202.807 130.28 202.316 130.53C201.829 130.776 201.256 130.899 200.596 130.899H200.309L203.995 134.625H200.937ZM197.013 129.52H199.477C200.059 129.52 200.507 129.395 200.821 129.145C201.135 128.894 201.292 128.535 201.292 128.066C201.292 127.634 201.146 127.297 200.855 127.056C200.564 126.815 200.155 126.694 199.627 126.694H197.013V129.52ZM213.334 130.96H206.891C207.023 131.593 207.36 132.084 207.901 132.434C208.443 132.78 209.155 132.953 210.037 132.953C210.62 132.953 211.163 132.867 211.669 132.694C212.178 132.521 212.642 132.284 213.061 131.984V133.827C212.629 134.145 212.096 134.4 211.464 134.591C210.836 134.778 210.181 134.871 209.498 134.871C208.502 134.871 207.628 134.687 206.877 134.318C206.127 133.95 205.546 133.433 205.137 132.769C204.732 132.105 204.529 131.342 204.529 130.482C204.529 129.682 204.714 128.958 205.082 128.312C205.455 127.666 205.99 127.156 206.686 126.783C207.387 126.406 208.208 126.217 209.15 126.217C210.046 126.217 210.806 126.374 211.43 126.688C212.058 126.997 212.531 127.443 212.849 128.025C213.172 128.603 213.334 129.295 213.334 130.1V130.96ZM209.205 128.059C208.581 128.059 208.074 128.21 207.683 128.51C207.291 128.806 207.041 129.204 206.932 129.704H211.327C211.277 129.177 211.068 128.772 210.699 128.489C210.335 128.203 209.837 128.059 209.205 128.059ZM218.905 134.871C217.941 134.871 217.097 134.68 216.373 134.298C215.65 133.911 215.092 133.388 214.701 132.728C214.314 132.064 214.121 131.324 214.121 130.51C214.121 129.691 214.314 128.956 214.701 128.305C215.092 127.655 215.65 127.145 216.373 126.776C217.097 126.403 217.941 126.217 218.905 126.217C219.875 126.217 220.721 126.403 221.444 126.776C222.168 127.145 222.723 127.655 223.11 128.305C223.496 128.956 223.69 129.691 223.69 130.51C223.69 131.324 223.496 132.064 223.11 132.728C222.723 133.392 222.168 133.915 221.444 134.298C220.721 134.68 219.875 134.871 218.905 134.871ZM218.905 132.967C219.388 132.967 219.809 132.864 220.168 132.66C220.528 132.45 220.803 132.164 220.994 131.8C221.19 131.431 221.287 131.01 221.287 130.537C221.287 130.064 221.192 129.645 221.001 129.281C220.81 128.917 220.534 128.635 220.175 128.435C219.815 128.23 219.392 128.128 218.905 128.128C218.419 128.128 217.995 128.23 217.636 128.435C217.276 128.635 216.999 128.917 216.803 129.281C216.612 129.645 216.517 130.064 216.517 130.537C216.517 131.01 216.612 131.431 216.803 131.8C216.999 132.164 217.276 132.45 217.636 132.66C217.995 132.864 218.419 132.967 218.905 132.967ZM233.946 134.926C232.717 134.926 231.65 134.703 230.745 134.257C229.844 133.806 229.154 133.192 228.677 132.414C228.199 131.631 227.96 130.753 227.96 129.779C227.96 128.778 228.208 127.882 228.704 127.09C229.2 126.294 229.907 125.671 230.827 125.22C231.746 124.765 232.815 124.538 234.034 124.538C235.545 124.538 236.846 124.879 237.938 125.562V127.746C237.497 127.409 236.983 127.143 236.396 126.947C235.813 126.751 235.174 126.654 234.478 126.654C233.686 126.654 232.997 126.783 232.41 127.043C231.823 127.302 231.373 127.664 231.059 128.128C230.749 128.587 230.595 129.113 230.595 129.704C230.595 130.3 230.752 130.833 231.065 131.301C231.379 131.766 231.83 132.132 232.417 132.4C233.004 132.664 233.693 132.796 234.485 132.796C235.181 132.796 235.829 132.691 236.43 132.482C237.035 132.273 237.554 131.984 237.986 131.615V133.731C237.395 134.145 236.774 134.448 236.123 134.639C235.477 134.83 234.751 134.926 233.946 134.926ZM244.097 126.394C244.566 126.394 244.957 126.506 245.271 126.729V128.913C245.107 128.799 244.911 128.708 244.684 128.64C244.456 128.571 244.204 128.537 243.926 128.537C243.494 128.537 243.116 128.637 242.793 128.838C242.475 129.033 242.225 129.336 242.043 129.745C241.861 130.15 241.77 130.653 241.77 131.254V134.625H239.381V126.551H241.735V128.769C241.926 127.973 242.222 127.379 242.623 126.988C243.023 126.592 243.514 126.394 244.097 126.394ZM249.348 126.217C250.244 126.217 251.013 126.371 251.655 126.681C252.296 126.99 252.785 127.445 253.122 128.046C253.463 128.646 253.634 129.377 253.634 130.237V134.625H251.313V133.533C251.036 133.984 250.658 134.325 250.18 134.557C249.707 134.784 249.154 134.898 248.522 134.898C247.93 134.898 247.412 134.782 246.966 134.55C246.52 134.318 246.174 134.002 245.928 133.601C245.687 133.197 245.567 132.744 245.567 132.243C245.567 131.738 245.692 131.288 245.942 130.892C246.197 130.492 246.556 130.18 247.02 129.957C247.489 129.729 248.03 129.616 248.645 129.616C249.832 129.616 250.72 130.002 251.306 130.776V130.448C251.297 129.948 251.179 129.527 250.952 129.186C250.724 128.844 250.412 128.59 250.017 128.421C249.625 128.248 249.172 128.162 248.658 128.162C247.616 128.162 246.725 128.519 245.983 129.233V127.268C246.938 126.567 248.06 126.217 249.348 126.217ZM249.464 133.383C249.819 133.383 250.135 133.328 250.412 133.219C250.694 133.11 250.915 132.958 251.074 132.762C251.234 132.566 251.313 132.348 251.313 132.107C251.313 131.875 251.238 131.668 251.088 131.486C250.938 131.299 250.724 131.154 250.447 131.049C250.173 130.944 249.857 130.892 249.498 130.892C249.147 130.892 248.845 130.944 248.59 131.049C248.335 131.154 248.14 131.299 248.003 131.486C247.871 131.672 247.805 131.886 247.805 132.127C247.805 132.373 247.871 132.591 248.003 132.782C248.135 132.974 248.326 133.121 248.576 133.226C248.827 133.331 249.122 133.383 249.464 133.383ZM264.229 126.551V133.008C264.229 133.945 264.019 134.75 263.601 135.424C263.182 136.102 262.586 136.618 261.813 136.973C261.039 137.333 260.127 137.512 259.076 137.512C258.38 137.512 257.713 137.421 257.076 137.239C256.439 137.062 255.911 136.807 255.493 136.475V134.577C255.879 134.923 256.352 135.199 256.912 135.403C257.476 135.613 258.066 135.717 258.68 135.717C259.745 135.717 260.541 135.46 261.069 134.946C261.601 134.436 261.867 133.702 261.867 132.742V132.23C261.553 132.912 261.126 133.429 260.584 133.779C260.047 134.129 259.399 134.304 258.639 134.304C257.87 134.304 257.19 134.134 256.598 133.793C256.011 133.451 255.556 132.98 255.233 132.38C254.915 131.779 254.755 131.099 254.755 130.339C254.755 129.534 254.924 128.819 255.26 128.196C255.597 127.568 256.066 127.081 256.666 126.735C257.272 126.39 257.956 126.217 258.721 126.217C259.476 126.217 260.111 126.385 260.625 126.722C261.139 127.054 261.553 127.552 261.867 128.216V126.551H264.229ZM259.499 132.55C259.972 132.55 260.388 132.455 260.748 132.264C261.112 132.068 261.392 131.8 261.587 131.458C261.788 131.117 261.888 130.73 261.888 130.298C261.888 129.866 261.79 129.479 261.594 129.138C261.403 128.797 261.13 128.53 260.775 128.339C260.42 128.148 260.008 128.053 259.54 128.053C259.071 128.053 258.659 128.15 258.304 128.346C257.954 128.542 257.683 128.815 257.492 129.165C257.306 129.511 257.212 129.902 257.212 130.339C257.212 130.762 257.306 131.142 257.492 131.479C257.683 131.816 257.952 132.079 258.298 132.271C258.643 132.457 259.044 132.55 259.499 132.55ZM274.557 126.551V134.625H272.182V132.98C271.909 133.622 271.509 134.107 270.981 134.434C270.458 134.757 269.839 134.919 269.125 134.919C268.069 134.919 267.257 134.614 266.688 134.004C266.124 133.39 265.842 132.512 265.842 131.37V126.551H268.217V130.878C268.217 131.606 268.374 132.148 268.688 132.503C269.006 132.858 269.484 133.035 270.121 133.035C270.772 133.035 271.277 132.835 271.636 132.434C272 132.029 272.182 131.477 272.182 130.776V126.551H274.557ZM281.801 126.217C282.506 126.217 283.105 126.367 283.596 126.667C284.087 126.963 284.461 127.4 284.715 127.978C284.975 128.551 285.104 129.249 285.104 130.073V134.625H282.729V130.598C282.729 129.802 282.57 129.208 282.251 128.817C281.933 128.421 281.451 128.223 280.805 128.223C280.345 128.223 279.954 128.319 279.631 128.51C279.312 128.701 279.071 128.972 278.907 129.322C278.748 129.672 278.668 130.08 278.668 130.544V134.625H276.3V126.551H278.655V128.387C278.941 127.655 279.344 127.111 279.863 126.756C280.381 126.396 281.028 126.217 281.801 126.217Z"
      fill="#dce7ea" fill-opacity="0.9" />
    <rect x="193.361" y="148.772" width="106.581" height="15.1426" rx="7.57132" fill="#E1E1E1" />
    <rect x="193.361" y="173.233" width="151.426" height="28.8899" rx="14.4449" fill="#E9E9E9" />
    <path
      d="M244.271 185.894V186.948H248.464V188.753H244.271V191.552H241.505V183.803H248.685V185.894H244.271ZM254.112 191.805C253.107 191.805 252.223 191.62 251.459 191.249C250.695 190.878 250.106 190.375 249.692 189.741C249.278 189.107 249.071 188.405 249.071 187.634C249.071 186.849 249.276 186.148 249.687 185.532C250.101 184.913 250.69 184.428 251.454 184.079C252.217 183.726 253.107 183.549 254.123 183.549C255.131 183.549 256.016 183.726 256.776 184.079C257.54 184.428 258.127 184.913 258.537 185.532C258.952 186.148 259.159 186.849 259.159 187.634C259.159 188.409 258.95 189.113 258.532 189.747C258.118 190.381 257.529 190.883 256.765 191.254C256.001 191.622 255.117 191.805 254.112 191.805ZM254.112 189.558C254.526 189.558 254.89 189.478 255.204 189.32C255.517 189.158 255.758 188.933 255.928 188.645C256.097 188.356 256.182 188.027 256.182 187.656C256.182 187.288 256.097 186.964 255.928 186.683C255.758 186.402 255.517 186.184 255.204 186.029C254.89 185.875 254.526 185.797 254.112 185.797C253.694 185.797 253.329 185.875 253.015 186.029C252.702 186.184 252.459 186.402 252.286 186.683C252.116 186.964 252.032 187.288 252.032 187.656C252.032 188.027 252.116 188.356 252.286 188.645C252.459 188.933 252.702 189.158 253.015 189.32C253.329 189.478 253.694 189.558 254.112 189.558ZM267.017 189.293V191.552H259.901V183.803H262.667V189.293H267.017ZM274.675 189.293V191.552H267.559V183.803H270.325V189.293H274.675ZM279.691 191.805C278.686 191.805 277.801 191.62 277.038 191.249C276.274 190.878 275.685 190.375 275.271 189.741C274.857 189.107 274.65 188.405 274.65 187.634C274.65 186.849 274.855 186.148 275.266 185.532C275.68 184.913 276.269 184.428 277.032 184.079C277.796 183.726 278.686 183.549 279.702 183.549C280.71 183.549 281.594 183.726 282.355 184.079C283.118 184.428 283.705 184.913 284.116 185.532C284.53 186.148 284.737 186.849 284.737 187.634C284.737 188.409 284.528 189.113 284.111 189.747C283.696 190.381 283.107 190.883 282.344 191.254C281.58 191.622 280.696 191.805 279.691 191.805ZM279.691 189.558C280.105 189.558 280.469 189.478 280.782 189.32C281.096 189.158 281.337 188.933 281.506 188.645C281.676 188.356 281.76 188.027 281.76 187.656C281.76 187.288 281.676 186.964 281.506 186.683C281.337 186.402 281.096 186.184 280.782 186.029C280.469 185.875 280.105 185.797 279.691 185.797C279.273 185.797 278.907 185.875 278.594 186.029C278.281 186.184 278.037 186.402 277.864 186.683C277.695 186.964 277.611 187.288 277.611 187.656C277.611 188.027 277.695 188.356 277.864 188.645C278.037 188.933 278.281 189.158 278.594 189.32C278.907 189.478 279.273 189.558 279.691 189.558ZM297.966 183.803L296.021 191.552H292.476L291.109 186.78L289.813 191.552H286.614L284.653 183.803H287.441L288.478 188.331L289.699 183.803H292.79L294.119 188.574L295.2 183.803H297.966Z"
      fill="#317b8a" />
  </g>
  <rect x="185.498" y="36.2912" width="167.151" height="175.305" rx="7.7088" stroke="#317b8a" stroke-width="0.582409" />
  <g clip-path="url(#clip1_6352_49561)">
    <rect x="376.236" y="112" width="167.734" height="195.689" rx="8" fill="#317b8a" />
    <rect width="167.734" height="69.3067" transform="translate(376.236 112)" fill="#dce7ea" fill-opacity="0.9" />
    <rect x="473.785" y="147.813" width="59.9995" height="59.9995" rx="29.9998" fill="#dce7ea" fill-opacity="0.9" />
    <path fill-rule="evenodd" clip-rule="evenodd"
      d="M511.647 172.911C513.294 171.527 515.132 171.001 516.895 171.134C518.775 171.276 520.514 172.163 521.814 173.452C523.113 174.741 524.006 176.465 524.149 178.325C524.293 180.203 523.668 182.169 522.022 183.895C521.872 184.054 521.718 184.211 521.561 184.366C514.095 191.771 504.177 191.79 504.076 191.79C504.025 191.79 494.075 191.79 486.59 184.365L486.588 184.363C486.434 184.209 486.282 184.054 486.132 183.897L486.13 183.896C484.484 182.172 483.859 180.206 484.002 178.328C484.145 176.468 485.037 174.744 486.336 173.455C487.635 172.165 489.374 171.277 491.255 171.135C493.017 171.001 494.855 171.527 496.503 172.91C496.68 170.777 497.604 169.117 498.944 167.975C500.373 166.758 502.236 166.164 504.075 166.164C505.915 166.164 507.777 166.758 509.207 167.975C510.547 169.117 511.47 170.777 511.647 172.911Z"
      fill="#317b8a" />
    <rect x="473.785" y="147.813" width="59.9995" height="59.9995" rx="29.9998" stroke="#317b8a" stroke-width="1.75865" />
    <path
      d="M389.145 195.422V194.886C389.046 195.09 388.898 195.25 388.701 195.366C388.507 195.48 388.269 195.536 387.988 195.536C387.722 195.536 387.486 195.481 387.282 195.37C387.077 195.259 386.918 195.106 386.805 194.911C386.694 194.717 386.638 194.496 386.638 194.25C386.638 194.006 386.695 193.785 386.808 193.588C386.922 193.391 387.084 193.237 387.296 193.126C387.508 193.012 387.756 192.956 388.039 192.956C388.313 192.956 388.545 193.009 388.735 193.115C388.924 193.218 389.061 193.361 389.145 193.544V193.536C389.145 193.065 389.012 192.709 388.746 192.468C388.482 192.226 388.115 192.105 387.644 192.105C387.235 192.105 386.875 192.2 386.564 192.39C386.256 192.58 386.019 192.84 385.851 193.17C385.686 193.5 385.603 193.871 385.603 194.283C385.603 194.719 385.702 195.109 385.899 195.451C386.099 195.794 386.38 196.061 386.742 196.253C387.104 196.446 387.521 196.542 387.991 196.542C388.371 196.542 388.736 196.48 389.086 196.357C389.438 196.234 389.751 196.069 390.025 195.862V196.727C389.712 196.948 389.381 197.111 389.034 197.215C388.689 197.318 388.316 197.37 387.914 197.37C387.258 197.37 386.688 197.237 386.202 196.971C385.717 196.704 385.344 196.34 385.086 195.876C384.827 195.411 384.697 194.886 384.697 194.301C384.697 193.71 384.826 193.187 385.082 192.734C385.338 192.278 385.691 191.926 386.139 191.677C386.59 191.425 387.098 191.3 387.662 191.3C388.17 191.3 388.601 191.392 388.956 191.577C389.314 191.759 389.584 192.018 389.766 192.353C389.948 192.686 390.04 193.075 390.04 193.521V195.422H389.145ZM388.283 194.871C388.449 194.871 388.597 194.842 388.727 194.786C388.86 194.727 388.962 194.646 389.034 194.545C389.108 194.444 389.145 194.331 389.145 194.205C389.145 194.085 389.108 193.976 389.034 193.88C388.962 193.781 388.863 193.705 388.735 193.651C388.606 193.594 388.461 193.566 388.298 193.566C388.059 193.566 387.874 193.626 387.744 193.747C387.613 193.865 387.548 194.022 387.548 194.216C387.548 194.414 387.612 194.573 387.74 194.693C387.868 194.812 388.049 194.871 388.283 194.871ZM392.725 192.586C392.915 192.586 393.08 192.643 393.221 192.756V193.632C393.061 193.519 392.858 193.462 392.614 193.462C392.454 193.462 392.313 193.505 392.189 193.592C392.069 193.675 391.974 193.8 391.905 193.965C391.836 194.128 391.8 194.324 391.797 194.553V196.46H390.858V192.656H391.797V193.418C391.884 193.144 392.007 192.937 392.167 192.797C392.327 192.656 392.513 192.586 392.725 192.586ZM397.101 194.76H394.413C394.457 195.09 394.594 195.344 394.823 195.521C395.053 195.699 395.363 195.788 395.755 195.788C395.974 195.788 396.19 195.754 396.402 195.688C396.616 195.619 396.8 195.525 396.953 195.407V196.176C396.8 196.294 396.602 196.39 396.358 196.464C396.116 196.538 395.855 196.575 395.574 196.575C395.147 196.575 394.774 196.492 394.454 196.327C394.136 196.16 393.889 195.922 393.714 195.614C393.539 195.306 393.452 194.946 393.452 194.534C393.452 194.147 393.528 193.804 393.681 193.503C393.836 193.2 394.059 192.964 394.35 192.797C394.643 192.627 394.99 192.542 395.389 192.542C395.741 192.542 396.046 192.609 396.302 192.745C396.558 192.878 396.756 193.074 396.894 193.333C397.032 193.589 397.101 193.9 397.101 194.264V194.76ZM395.389 193.303C395.115 193.303 394.897 193.381 394.735 193.536C394.574 193.689 394.475 193.9 394.435 194.168H396.254C396.249 193.892 396.169 193.679 396.014 193.529C395.861 193.378 395.653 193.303 395.389 193.303ZM400.197 196.46L398.755 194.605V196.46H397.82V191.007H398.755V194.179L400.071 192.656H401.25L399.605 194.361L401.347 196.46H400.197ZM403.045 192.542C403.405 192.542 403.714 192.609 403.973 192.745C404.232 192.878 404.429 193.07 404.565 193.322C404.7 193.573 404.768 193.871 404.768 194.216V196.46H403.844V195.984C403.743 196.171 403.6 196.316 403.415 196.42C403.233 196.523 403.019 196.575 402.775 196.575C402.529 196.575 402.306 196.522 402.106 196.416C401.909 196.308 401.755 196.16 401.644 195.972C401.533 195.783 401.478 195.571 401.478 195.337C401.478 195.093 401.536 194.878 401.651 194.693C401.767 194.508 401.929 194.366 402.136 194.264C402.345 194.161 402.584 194.109 402.853 194.109C403.077 194.109 403.273 194.149 403.441 194.228C403.611 194.306 403.745 194.412 403.844 194.545V194.313C403.844 194.002 403.756 193.763 403.581 193.595C403.409 193.425 403.17 193.34 402.864 193.34C402.635 193.34 402.419 193.382 402.217 193.466C402.017 193.55 401.84 193.667 401.685 193.817V192.967C401.87 192.836 402.075 192.733 402.302 192.656C402.531 192.58 402.779 192.542 403.045 192.542ZM403.112 195.91C403.26 195.91 403.389 195.882 403.5 195.828C403.613 195.774 403.701 195.699 403.762 195.603C403.824 195.507 403.855 195.399 403.855 195.281C403.855 195.168 403.824 195.065 403.762 194.974C403.703 194.883 403.618 194.813 403.507 194.764C403.396 194.712 403.267 194.686 403.119 194.686C402.89 194.686 402.71 194.741 402.579 194.852C402.449 194.961 402.383 195.107 402.383 195.292C402.383 195.482 402.448 195.632 402.576 195.743C402.704 195.854 402.883 195.91 403.112 195.91ZM406.112 196.575C405.994 196.575 405.886 196.548 405.79 196.494C405.694 196.439 405.619 196.366 405.565 196.272C405.51 196.176 405.483 196.07 405.483 195.954C405.483 195.841 405.51 195.738 405.565 195.647C405.619 195.553 405.693 195.48 405.786 195.425C405.88 195.371 405.986 195.344 406.104 195.344C406.223 195.344 406.329 195.37 406.422 195.422C406.516 195.473 406.589 195.546 406.64 195.64C406.695 195.731 406.722 195.836 406.722 195.954C406.722 196.07 406.695 196.176 406.64 196.272C406.589 196.366 406.516 196.439 406.422 196.494C406.331 196.548 406.228 196.575 406.112 196.575ZM410.831 194.76H408.143C408.188 195.09 408.324 195.344 408.554 195.521C408.783 195.699 409.093 195.788 409.485 195.788C409.705 195.788 409.92 195.754 410.132 195.688C410.347 195.619 410.53 195.525 410.683 195.407V196.176C410.53 196.294 410.332 196.39 410.088 196.464C409.846 196.538 409.585 196.575 409.304 196.575C408.878 196.575 408.504 196.492 408.184 196.327C407.866 196.16 407.62 195.922 407.445 195.614C407.27 195.306 407.182 194.946 407.182 194.534C407.182 194.147 407.258 193.804 407.411 193.503C407.567 193.2 407.79 192.964 408.08 192.797C408.374 192.627 408.72 192.542 409.119 192.542C409.472 192.542 409.776 192.609 410.032 192.745C410.289 192.878 410.486 193.074 410.624 193.333C410.762 193.589 410.831 193.9 410.831 194.264V194.76ZM409.119 193.303C408.846 193.303 408.628 193.381 408.465 193.536C408.305 193.689 408.205 193.9 408.165 194.168H409.984C409.979 193.892 409.899 193.679 409.744 193.529C409.591 193.378 409.383 193.303 409.119 193.303ZM413.923 193.429H412.925V196.46H411.986V193.429H411.084V192.656H411.986V191.673L412.925 191.429V192.656H413.923V193.429ZM416.609 192.542C416.88 192.542 417.116 192.602 417.315 192.723C417.515 192.844 417.668 193.02 417.774 193.252C417.882 193.481 417.936 193.756 417.936 194.076V196.46H416.997V194.283C416.997 193.96 416.938 193.723 416.82 193.573C416.704 193.42 416.516 193.344 416.254 193.344C415.978 193.344 415.764 193.439 415.611 193.629C415.458 193.818 415.382 194.081 415.382 194.416V196.46H414.443V191.007H415.382V193.229C415.493 193.01 415.652 192.841 415.859 192.723C416.068 192.602 416.318 192.542 416.609 192.542Z"
      fill="#DCDCDC" fill-opacity="0.5" />
    <path
      d="M390.117 202.394C390.586 202.394 390.977 202.506 391.291 202.729V204.913C391.127 204.799 390.931 204.708 390.704 204.64C390.476 204.571 390.224 204.537 389.946 204.537C389.514 204.537 389.136 204.637 388.813 204.838C388.495 205.033 388.245 205.336 388.063 205.745C387.881 206.15 387.79 206.653 387.79 207.254V210.625H385.401V202.551H387.755V204.769C387.947 203.973 388.242 203.379 388.643 202.988C389.043 202.592 389.534 202.394 390.117 202.394ZM400.391 206.96H393.948C394.08 207.593 394.417 208.084 394.958 208.434C395.5 208.78 396.212 208.953 397.094 208.953C397.677 208.953 398.221 208.867 398.726 208.694C399.235 208.521 399.699 208.284 400.118 207.984V209.827C399.686 210.145 399.153 210.4 398.521 210.591C397.893 210.778 397.238 210.871 396.555 210.871C395.559 210.871 394.685 210.687 393.934 210.318C393.184 209.95 392.604 209.433 392.194 208.769C391.789 208.105 391.587 207.342 391.587 206.482C391.587 205.682 391.771 204.958 392.139 204.312C392.512 203.666 393.047 203.156 393.743 202.783C394.444 202.406 395.265 202.217 396.207 202.217C397.104 202.217 397.863 202.374 398.487 202.688C399.115 202.997 399.588 203.443 399.906 204.025C400.229 204.603 400.391 205.295 400.391 206.1V206.96ZM396.262 204.059C395.638 204.059 395.131 204.21 394.74 204.51C394.348 204.806 394.098 205.204 393.989 205.704H398.384C398.334 205.177 398.125 204.772 397.756 204.489C397.392 204.203 396.894 204.059 396.262 204.059ZM407.614 210.625L404.065 206.36V210.625H401.676V200.558H404.065V205.732L407.355 202.551H410.235L406.474 206.018L410.501 210.625H407.614ZM414.169 202.217C415.065 202.217 415.834 202.371 416.475 202.681C417.117 202.99 417.606 203.445 417.943 204.046C418.284 204.646 418.455 205.377 418.455 206.237V210.625H416.134V209.533C415.857 209.984 415.479 210.325 415.001 210.557C414.528 210.784 413.975 210.898 413.343 210.898C412.751 210.898 412.233 210.782 411.787 210.55C411.341 210.318 410.995 210.002 410.749 209.601C410.508 209.197 410.387 208.744 410.387 208.243C410.387 207.738 410.513 207.288 410.763 206.892C411.018 206.492 411.377 206.18 411.841 205.957C412.31 205.729 412.851 205.616 413.466 205.616C414.653 205.616 415.54 206.002 416.127 206.776V206.448C416.118 205.948 416 205.527 415.772 205.186C415.545 204.844 415.233 204.59 414.837 204.421C414.446 204.248 413.993 204.162 413.479 204.162C412.437 204.162 411.545 204.519 410.804 205.233V203.268C411.759 202.567 412.881 202.217 414.169 202.217ZM414.285 209.383C414.639 209.383 414.956 209.328 415.233 209.219C415.515 209.11 415.736 208.958 415.895 208.762C416.055 208.566 416.134 208.348 416.134 208.107C416.134 207.875 416.059 207.668 415.909 207.486C415.759 207.299 415.545 207.154 415.267 207.049C414.994 206.944 414.678 206.892 414.319 206.892C413.968 206.892 413.666 206.944 413.411 207.049C413.156 207.154 412.961 207.299 412.824 207.486C412.692 207.672 412.626 207.886 412.626 208.127C412.626 208.373 412.692 208.591 412.824 208.782C412.956 208.974 413.147 209.121 413.397 209.226C413.648 209.331 413.943 209.383 414.285 209.383ZM421.112 210.871C420.834 210.871 420.584 210.812 420.361 210.693C420.138 210.58 419.963 210.425 419.836 210.229C419.708 210.029 419.645 209.809 419.645 209.567C419.645 209.331 419.708 209.115 419.836 208.919C419.963 208.723 420.138 208.569 420.361 208.455C420.584 208.341 420.834 208.284 421.112 208.284C421.385 208.284 421.631 208.341 421.849 208.455C422.072 208.569 422.245 208.723 422.368 208.919C422.495 209.115 422.559 209.331 422.559 209.567C422.559 209.813 422.495 210.036 422.368 210.236C422.245 210.432 422.074 210.587 421.856 210.7C421.637 210.814 421.39 210.871 421.112 210.871ZM432.055 206.96H425.612C425.744 207.593 426.081 208.084 426.622 208.434C427.164 208.78 427.876 208.953 428.758 208.953C429.341 208.953 429.884 208.867 430.39 208.694C430.899 208.521 431.363 208.284 431.782 207.984V209.827C431.35 210.145 430.817 210.4 430.185 210.591C429.557 210.778 428.902 210.871 428.219 210.871C427.223 210.871 426.349 210.687 425.598 210.318C424.848 209.95 424.267 209.433 423.858 208.769C423.453 208.105 423.25 207.342 423.25 206.482C423.25 205.682 423.435 204.958 423.803 204.312C424.176 203.666 424.711 203.156 425.407 202.783C426.108 202.406 426.929 202.217 427.871 202.217C428.767 202.217 429.527 202.374 430.151 202.688C430.779 202.997 431.252 203.443 431.57 204.025C431.893 204.603 432.055 205.295 432.055 206.1V206.96ZM427.926 204.059C427.302 204.059 426.795 204.21 426.404 204.51C426.012 204.806 425.762 205.204 425.653 205.704H430.048C429.998 205.177 429.789 204.772 429.42 204.489C429.056 204.203 428.558 204.059 427.926 204.059ZM439.408 204.326H436.985V210.625H434.596V204.326H432.344V202.551H434.596V201.05L436.985 200.572V202.551H439.408V204.326ZM445.798 202.217C446.504 202.217 447.102 202.367 447.593 202.667C448.085 202.963 448.458 203.4 448.713 203.978C448.972 204.551 449.102 205.249 449.102 206.073V210.625H446.727V206.598C446.727 205.802 446.567 205.208 446.249 204.817C445.93 204.421 445.448 204.223 444.802 204.223C444.342 204.223 443.951 204.319 443.628 204.51C443.309 204.701 443.068 204.972 442.905 205.322C442.745 205.672 442.666 206.08 442.666 206.544V210.625H440.297V200.558H442.666V204.353C442.952 203.634 443.353 203.099 443.867 202.749C444.386 202.394 445.029 202.217 445.798 202.217Z"
      fill="#dce7ea" fill-opacity="0.9" />
    <rect x="384.391" y="224.772" width="106.581" height="15.1426" rx="7.57132" fill="#E1E1E1" />
    <rect x="384.391" y="244.574" width="143.855" height="15.1426" rx="7.57132" fill="#E1E1E1" />
    <rect x="384.391" y="269.035" width="151.426" height="28.8899" rx="14.4449" fill="#E9E9E9" />
    <path
      d="M435.3 281.696V282.75H439.493V284.554H435.3V287.353H432.534V279.605H439.715V281.696H435.3ZM445.141 287.607C444.136 287.607 443.252 287.422 442.488 287.051C441.725 286.68 441.136 286.177 440.722 285.543C440.307 284.909 440.1 284.207 440.1 283.436C440.1 282.651 440.305 281.95 440.716 281.334C441.13 280.715 441.719 280.23 442.483 279.881C443.247 279.528 444.136 279.351 445.152 279.351C446.161 279.351 447.045 279.528 447.805 279.881C448.569 280.23 449.156 280.715 449.567 281.334C449.981 281.95 450.188 282.651 450.188 283.436C450.188 284.21 449.979 284.915 449.561 285.549C449.147 286.183 448.558 286.685 447.794 287.056C447.031 287.424 446.146 287.607 445.141 287.607ZM445.141 285.359C445.556 285.359 445.919 285.28 446.233 285.122C446.546 284.96 446.788 284.735 446.957 284.446C447.126 284.158 447.211 283.829 447.211 283.458C447.211 283.09 447.126 282.766 446.957 282.485C446.788 282.204 446.546 281.986 446.233 281.831C445.919 281.676 445.556 281.599 445.141 281.599C444.724 281.599 444.358 281.676 444.045 281.831C443.731 281.986 443.488 282.204 443.315 282.485C443.146 282.766 443.061 283.09 443.061 283.458C443.061 283.829 443.146 284.158 443.315 284.446C443.488 284.735 443.731 284.96 444.045 285.122C444.358 285.28 444.724 285.359 445.141 285.359ZM458.046 285.095V287.353H450.93V279.605H453.696V285.095H458.046ZM465.704 285.095V287.353H458.588V279.605H461.355V285.095H465.704ZM470.72 287.607C469.715 287.607 468.831 287.422 468.067 287.051C467.303 286.68 466.714 286.177 466.3 285.543C465.886 284.909 465.679 284.207 465.679 283.436C465.679 282.651 465.884 281.95 466.295 281.334C466.709 280.715 467.298 280.23 468.062 279.881C468.825 279.528 469.715 279.351 470.731 279.351C471.739 279.351 472.624 279.528 473.384 279.881C474.147 280.23 474.735 280.715 475.145 281.334C475.56 281.95 475.767 282.651 475.767 283.436C475.767 284.21 475.558 284.915 475.14 285.549C474.726 286.183 474.137 286.685 473.373 287.056C472.609 287.424 471.725 287.607 470.72 287.607ZM470.72 285.359C471.134 285.359 471.498 285.28 471.811 285.122C472.125 284.96 472.366 284.735 472.536 284.446C472.705 284.158 472.789 283.829 472.789 283.458C472.789 283.09 472.705 282.766 472.536 282.485C472.366 282.204 472.125 281.986 471.811 281.831C471.498 281.676 471.134 281.599 470.72 281.599C470.302 281.599 469.937 281.676 469.623 281.831C469.31 281.986 469.067 282.204 468.894 282.485C468.724 282.766 468.64 283.09 468.64 283.458C468.64 283.829 468.724 284.158 468.894 284.446C469.067 284.735 469.31 284.96 469.623 285.122C469.937 285.28 470.302 285.359 470.72 285.359ZM488.995 279.605L487.05 287.353H483.506L482.139 282.582L480.842 287.353H477.643L475.682 279.605H478.47L479.507 284.133L480.729 279.605H483.819L485.148 284.376L486.229 279.605H488.995Z"
      fill="#317b8a" />
  </g>
  <rect x="376.528" y="112.291" width="167.151" height="195.107" rx="7.7088" stroke="#317b8a" stroke-width="0.582409" />
  <g clip-path="url(#clip2_6352_49561)">
    <rect x="567.266" y="175" width="167.734" height="152.009" rx="8" fill="#317b8a" />
    <rect width="167.734" height="69.3067" transform="translate(567.266 175)" fill="#dce7ea" fill-opacity="0.9" />
    <rect x="664.814" y="210.812" width="59.9995" height="59.9995" rx="29.9998" fill="#dce7ea" fill-opacity="0.9" />
    <path fill-rule="evenodd" clip-rule="evenodd"
      d="M702.677 235.911C704.324 234.527 706.162 234.001 707.924 234.134C709.804 234.276 711.544 235.163 712.843 236.452C714.142 237.741 715.035 239.464 715.178 241.325C715.322 243.203 714.698 245.169 713.052 246.895C712.901 247.054 712.747 247.21 712.59 247.365C705.124 254.77 695.206 254.79 695.105 254.79C695.054 254.79 685.105 254.79 677.619 247.364L677.618 247.363C677.463 247.209 677.311 247.053 677.161 246.897L677.16 246.896C675.513 245.172 674.888 243.206 675.032 241.328C675.174 239.468 676.066 237.744 677.365 236.454C678.664 235.165 680.404 234.277 682.284 234.135C684.046 234.001 685.884 234.527 687.532 235.91C687.71 233.777 688.633 232.116 689.973 230.975C691.402 229.758 693.265 229.164 695.104 229.164C696.944 229.164 698.807 229.758 700.236 230.975C701.576 232.117 702.5 233.777 702.677 235.911Z"
      fill="#317b8a" />
    <rect x="664.814" y="210.812" width="59.9995" height="59.9995" rx="29.9998" stroke="#317b8a" stroke-width="1.75865" />
    <path
      d="M580.174 258.421V257.885C580.076 258.09 579.928 258.25 579.731 258.366C579.536 258.479 579.298 258.536 579.017 258.536C578.751 258.536 578.515 258.481 578.311 258.37C578.106 258.259 577.947 258.106 577.834 257.911C577.723 257.717 577.668 257.496 577.668 257.25C577.668 257.006 577.724 256.785 577.838 256.588C577.951 256.391 578.114 256.237 578.326 256.126C578.538 256.012 578.785 255.956 579.069 255.956C579.342 255.956 579.574 256.009 579.764 256.115C579.954 256.218 580.09 256.361 580.174 256.543V256.536C580.174 256.065 580.041 255.709 579.775 255.468C579.511 255.226 579.144 255.105 578.673 255.105C578.264 255.105 577.904 255.2 577.594 255.39C577.286 255.58 577.048 255.84 576.88 256.17C576.715 256.5 576.633 256.871 576.633 257.283C576.633 257.719 576.731 258.108 576.928 258.451C577.128 258.794 577.409 259.061 577.771 259.253C578.133 259.446 578.55 259.542 579.021 259.542C579.4 259.542 579.765 259.48 580.115 259.357C580.467 259.234 580.78 259.068 581.054 258.861V259.727C580.741 259.948 580.411 260.111 580.063 260.215C579.718 260.318 579.345 260.37 578.943 260.37C578.288 260.37 577.717 260.237 577.231 259.971C576.746 259.704 576.374 259.34 576.115 258.876C575.856 258.41 575.727 257.885 575.727 257.301C575.727 256.71 575.855 256.187 576.111 255.734C576.368 255.278 576.72 254.925 577.169 254.676C577.62 254.425 578.127 254.299 578.692 254.299C579.199 254.299 579.631 254.392 579.986 254.577C580.343 254.759 580.613 255.018 580.795 255.353C580.978 255.686 581.069 256.075 581.069 256.521V258.421H580.174ZM579.313 257.871C579.478 257.871 579.626 257.842 579.756 257.786C579.89 257.726 579.992 257.646 580.063 257.545C580.137 257.444 580.174 257.331 580.174 257.205C580.174 257.084 580.137 256.976 580.063 256.88C579.992 256.781 579.892 256.705 579.764 256.651C579.636 256.594 579.49 256.566 579.328 256.566C579.089 256.566 578.904 256.626 578.773 256.747C578.642 256.865 578.577 257.022 578.577 257.216C578.577 257.413 578.641 257.572 578.769 257.693C578.898 257.811 579.079 257.871 579.313 257.871ZM584.113 255.542C584.446 255.542 584.737 255.629 584.986 255.804C585.237 255.979 585.431 256.218 585.566 256.521C585.702 256.822 585.769 257.156 585.769 257.523C585.769 257.905 585.696 258.253 585.548 258.566C585.4 258.879 585.194 259.125 584.93 259.305C584.669 259.485 584.376 259.575 584.05 259.575C583.777 259.575 583.532 259.507 583.315 259.372C583.098 259.234 582.931 259.048 582.816 258.813V259.46H581.888V254.007H582.827V256.34C582.945 256.104 583.114 255.911 583.333 255.763C583.555 255.616 583.815 255.542 584.113 255.542ZM583.788 258.762C583.99 258.762 584.169 258.711 584.324 258.61C584.479 258.507 584.599 258.365 584.683 258.185C584.769 258.003 584.812 257.794 584.812 257.56C584.812 257.328 584.77 257.123 584.686 256.943C584.602 256.76 584.484 256.619 584.331 256.518C584.181 256.417 584.007 256.366 583.81 256.366C583.608 256.366 583.431 256.418 583.278 256.521C583.127 256.625 583.012 256.769 582.93 256.954C582.849 257.136 582.808 257.347 582.808 257.586C582.808 257.815 582.848 258.019 582.927 258.196C583.005 258.373 583.119 258.513 583.267 258.614C583.415 258.712 583.588 258.762 583.788 258.762ZM586.496 254.007H587.435V259.46H586.496V254.007ZM590.102 259.575C589.725 259.575 589.389 259.49 589.093 259.32C588.8 259.147 588.57 258.908 588.405 258.603C588.24 258.297 588.158 257.951 588.158 257.564C588.158 257.172 588.239 256.823 588.402 256.518C588.567 256.212 588.796 255.973 589.089 255.8C589.385 255.628 589.723 255.542 590.102 255.542C590.487 255.542 590.827 255.628 591.123 255.8C591.418 255.973 591.648 256.212 591.81 256.518C591.975 256.823 592.058 257.172 592.058 257.564C592.058 257.951 591.975 258.297 591.81 258.603C591.645 258.908 591.413 259.147 591.115 259.32C590.819 259.49 590.482 259.575 590.102 259.575ZM590.102 258.758C590.307 258.758 590.484 258.707 590.635 258.606C590.785 258.505 590.9 258.365 590.978 258.185C591.057 258.005 591.097 257.797 591.097 257.56C591.097 257.324 591.057 257.115 590.978 256.935C590.9 256.753 590.785 256.611 590.635 256.51C590.484 256.409 590.307 256.359 590.102 256.359C589.898 256.359 589.721 256.409 589.574 256.51C589.426 256.611 589.312 256.753 589.233 256.935C589.157 257.115 589.119 257.324 589.119 257.56C589.119 257.797 589.158 258.005 589.237 258.185C589.316 258.365 589.429 258.505 589.577 258.606C589.725 258.707 589.9 258.758 590.102 258.758ZM594.929 255.542C595.2 255.542 595.435 255.602 595.635 255.723C595.834 255.843 595.987 256.02 596.093 256.251C596.201 256.481 596.256 256.755 596.256 257.076V259.46H595.317V257.283C595.317 256.96 595.258 256.723 595.139 256.573C595.023 256.42 594.835 256.344 594.574 256.344C594.298 256.344 594.083 256.439 593.93 256.628C593.778 256.818 593.701 257.081 593.701 257.416V259.46H592.762V255.656H593.69V256.274C593.798 256.042 593.957 255.862 594.167 255.734C594.376 255.606 594.63 255.542 594.929 255.542ZM600.805 254.007V259.46H599.877V258.747C599.768 258.991 599.606 259.19 599.389 259.346C599.172 259.499 598.906 259.575 598.59 259.575C598.258 259.575 597.964 259.49 597.71 259.32C597.457 259.147 597.261 258.909 597.123 258.606C596.987 258.303 596.919 257.959 596.919 257.575C596.919 257.193 596.993 256.848 597.141 256.54C597.289 256.229 597.496 255.985 597.762 255.808C598.028 255.63 598.332 255.542 598.672 255.542C599.214 255.542 599.612 255.782 599.866 256.262V254.007H600.805ZM598.864 258.758C599.068 258.758 599.247 258.706 599.4 258.603C599.555 258.499 599.675 258.356 599.759 258.174C599.842 257.989 599.884 257.779 599.884 257.545C599.884 257.314 599.844 257.108 599.762 256.928C599.681 256.748 599.565 256.608 599.415 256.506C599.264 256.405 599.088 256.355 598.886 256.355C598.684 256.355 598.507 256.405 598.354 256.506C598.203 256.608 598.086 256.75 598.002 256.935C597.921 257.118 597.88 257.331 597.88 257.575C597.88 257.814 597.921 258.023 598.002 258.203C598.084 258.381 598.198 258.518 598.346 258.614C598.494 258.71 598.667 258.758 598.864 258.758ZM602.234 255.076C602.13 255.076 602.035 255.052 601.949 255.006C601.863 254.959 601.795 254.895 601.746 254.813C601.696 254.729 601.672 254.637 601.672 254.536C601.672 254.386 601.725 254.261 601.831 254.163C601.939 254.062 602.073 254.011 602.234 254.011C602.396 254.011 602.529 254.06 602.633 254.159C602.736 254.258 602.788 254.383 602.788 254.536C602.788 254.691 602.735 254.821 602.629 254.924C602.526 255.025 602.394 255.076 602.234 255.076ZM601.764 255.656H602.703V259.46H601.764V255.656ZM604.927 259.575C604.385 259.575 603.901 259.423 603.478 259.12V258.314C603.672 258.472 603.889 258.596 604.128 258.688C604.37 258.779 604.603 258.824 604.827 258.824C605.034 258.824 605.195 258.785 605.311 258.706C605.43 258.627 605.489 258.513 605.489 258.362C605.489 258.259 605.455 258.171 605.389 258.1C605.322 258.026 605.211 257.966 605.056 257.919L604.424 257.738C603.796 257.558 603.481 257.206 603.481 256.684C603.481 256.457 603.542 256.258 603.662 256.085C603.783 255.913 603.956 255.779 604.18 255.686C604.404 255.59 604.668 255.542 604.971 255.542C605.442 255.542 605.867 255.662 606.247 255.904V256.691C606.077 256.561 605.886 256.461 605.674 256.392C605.462 256.323 605.248 256.288 605.034 256.288C604.832 256.288 604.679 256.32 604.576 256.384C604.475 256.446 604.424 256.536 604.424 256.654C604.424 256.854 604.563 256.99 604.842 257.061L605.459 257.224C606.117 257.386 606.446 257.755 606.446 258.329C606.446 258.576 606.382 258.794 606.254 258.983C606.128 259.171 605.951 259.316 605.722 259.42C605.492 259.523 605.227 259.575 604.927 259.575ZM609.287 255.542C609.558 255.542 609.794 255.602 609.993 255.723C610.193 255.843 610.346 256.02 610.452 256.251C610.56 256.481 610.614 256.755 610.614 257.076V259.46H609.675V257.283C609.675 256.96 609.616 256.723 609.498 256.573C609.382 256.42 609.194 256.344 608.932 256.344C608.656 256.344 608.442 256.439 608.289 256.628C608.136 256.818 608.06 257.081 608.06 257.416V259.46H607.121V254.007H608.06V256.229C608.171 256.01 608.33 255.841 608.537 255.723C608.746 255.602 608.996 255.542 609.287 255.542Z"
      fill="#DCDCDC" fill-opacity="0.5" />
    <path
      d="M583.931 268.274C584.581 268.433 585.075 268.727 585.412 269.155C585.753 269.582 585.924 270.106 585.924 270.724C585.924 271.289 585.78 271.789 585.494 272.226C585.207 272.663 584.77 273.006 584.183 273.257C583.601 273.502 582.877 273.625 582.013 273.625H576.621V263.838H582.163C582.868 263.838 583.474 263.945 583.979 264.159C584.488 264.373 584.875 264.664 585.139 265.032C585.403 265.401 585.535 265.81 585.535 266.261C585.535 266.757 585.396 267.18 585.118 267.53C584.845 267.876 584.45 268.124 583.931 268.274ZM579.03 265.585V267.892H581.59C582.036 267.892 582.375 267.794 582.607 267.599C582.843 267.403 582.962 267.125 582.962 266.766C582.962 266.384 582.841 266.092 582.6 265.892C582.359 265.688 582.002 265.585 581.528 265.585H579.03ZM581.563 271.871C582.149 271.871 582.591 271.762 582.887 271.543C583.182 271.321 583.33 271 583.33 270.581C583.33 270.176 583.189 269.867 582.907 269.653C582.625 269.439 582.211 269.332 581.665 269.332H579.03V271.871H581.563ZM587.236 263.558H589.598V273.625H587.236V263.558ZM595.64 273.871C594.676 273.871 593.832 273.68 593.108 273.298C592.385 272.911 591.827 272.388 591.436 271.728C591.049 271.063 590.856 270.324 590.856 269.51C590.856 268.691 591.049 267.956 591.436 267.305C591.827 266.654 592.385 266.145 593.108 265.776C593.832 265.403 594.676 265.217 595.64 265.217C596.61 265.217 597.456 265.403 598.179 265.776C598.903 266.145 599.458 266.654 599.845 267.305C600.231 267.956 600.425 268.691 600.425 269.51C600.425 270.324 600.231 271.063 599.845 271.728C599.458 272.392 598.903 272.915 598.179 273.298C597.456 273.68 596.61 273.871 595.64 273.871ZM595.64 271.967C596.123 271.967 596.544 271.864 596.903 271.659C597.263 271.45 597.538 271.164 597.729 270.8C597.925 270.431 598.022 270.01 598.022 269.537C598.022 269.064 597.927 268.645 597.736 268.281C597.545 267.917 597.269 267.635 596.91 267.435C596.55 267.23 596.127 267.128 595.64 267.128C595.154 267.128 594.73 267.23 594.371 267.435C594.012 267.635 593.734 267.917 593.538 268.281C593.347 268.645 593.252 269.064 593.252 269.537C593.252 270.01 593.347 270.431 593.538 270.8C593.734 271.164 594.012 271.45 594.371 271.659C594.73 271.864 595.154 271.967 595.64 271.967ZM607.157 265.217C607.862 265.217 608.46 265.367 608.952 265.667C609.443 265.963 609.816 266.4 610.071 266.977C610.33 267.551 610.46 268.249 610.46 269.073V273.625H608.085V269.598C608.085 268.802 607.926 268.208 607.607 267.817C607.289 267.421 606.806 267.223 606.16 267.223C605.701 267.223 605.309 267.319 604.986 267.51C604.668 267.701 604.427 267.972 604.263 268.322C604.104 268.672 604.024 269.08 604.024 269.544V273.625H601.656V265.551H604.01V267.387C604.297 266.654 604.7 266.111 605.218 265.756C605.737 265.396 606.383 265.217 607.157 265.217ZM621.191 263.558V273.625H618.816V271.782C618.52 272.433 618.086 272.945 617.513 273.318C616.939 273.687 616.241 273.871 615.417 273.871C614.671 273.871 614.009 273.687 613.431 273.318C612.853 272.945 612.405 272.433 612.087 271.782C611.768 271.132 611.609 270.399 611.609 269.585C611.604 268.738 611.775 267.985 612.121 267.326C612.467 266.661 612.944 266.145 613.554 265.776C614.168 265.403 614.858 265.217 615.622 265.217C616.386 265.217 617.035 265.389 617.567 265.735C618.1 266.081 618.516 266.584 618.816 267.244V263.558H621.191ZM616.407 271.946C616.889 271.946 617.315 271.841 617.683 271.632C618.056 271.418 618.343 271.125 618.543 270.752C618.743 270.379 618.844 269.96 618.844 269.496C618.844 269.041 618.746 268.636 618.55 268.281C618.354 267.922 618.075 267.642 617.711 267.442C617.347 267.241 616.921 267.141 616.434 267.141C615.956 267.141 615.538 267.244 615.178 267.448C614.824 267.649 614.548 267.931 614.353 268.295C614.161 268.659 614.066 269.073 614.066 269.537C614.066 270.001 614.161 270.417 614.353 270.786C614.548 271.15 614.821 271.434 615.172 271.639C615.527 271.844 615.938 271.946 616.407 271.946ZM624.156 265.196C623.892 265.196 623.655 265.148 623.446 265.053C623.237 264.953 623.073 264.816 622.955 264.643C622.836 264.47 622.777 264.277 622.777 264.063C622.777 263.854 622.836 263.665 622.955 263.497C623.077 263.328 623.243 263.196 623.453 263.101C623.662 263.005 623.896 262.957 624.156 262.957C624.411 262.957 624.64 263.005 624.845 263.101C625.05 263.196 625.209 263.328 625.323 263.497C625.441 263.665 625.5 263.854 625.5 264.063C625.5 264.277 625.441 264.47 625.323 264.643C625.209 264.816 625.05 264.953 624.845 265.053C624.64 265.148 624.411 265.196 624.156 265.196ZM622.955 265.831H625.33V273.625H622.955V265.831ZM630.608 273.871C629.889 273.871 629.193 273.778 628.519 273.591C627.85 273.404 627.243 273.131 626.697 272.772V270.95C627.197 271.332 627.775 271.628 628.431 271.837C629.09 272.046 629.752 272.151 630.417 272.151C630.917 272.151 631.295 272.076 631.55 271.926C631.804 271.776 631.932 271.568 631.932 271.305C631.932 271.113 631.866 270.947 631.734 270.806C631.606 270.661 631.356 270.54 630.983 270.445L629.202 270.021C628.328 269.808 627.698 269.51 627.311 269.127C626.929 268.745 626.738 268.267 626.738 267.694C626.738 267.203 626.89 266.77 627.195 266.397C627.505 266.024 627.946 265.735 628.519 265.531C629.097 265.321 629.773 265.217 630.546 265.217C631.247 265.217 631.884 265.298 632.457 265.462C633.031 265.622 633.524 265.835 633.938 266.104V267.865C633.52 267.578 633.04 267.351 632.498 267.182C631.957 267.009 631.381 266.923 630.772 266.923C630.23 266.923 629.825 266.991 629.557 267.128C629.288 267.26 629.154 267.446 629.154 267.687C629.154 267.887 629.245 268.047 629.427 268.165C629.614 268.283 629.921 268.39 630.348 268.486L631.945 268.834C632.746 268.998 633.354 269.268 633.768 269.646C634.182 270.024 634.389 270.554 634.389 271.236C634.389 271.76 634.239 272.221 633.938 272.622C633.643 273.018 633.21 273.325 632.642 273.543C632.073 273.762 631.395 273.871 630.608 273.871ZM641.087 265.217C641.792 265.217 642.39 265.367 642.882 265.667C643.373 265.963 643.746 266.4 644.001 266.977C644.26 267.551 644.39 268.249 644.39 269.073V273.625H642.015V269.598C642.015 268.802 641.855 268.208 641.537 267.817C641.218 267.421 640.736 267.223 640.09 267.223C639.631 267.223 639.239 267.319 638.916 267.51C638.598 267.701 638.356 267.972 638.193 268.322C638.033 268.672 637.954 269.08 637.954 269.544V273.625H635.585V263.558H637.954V267.353C638.24 266.634 638.641 266.099 639.155 265.749C639.674 265.394 640.318 265.217 641.087 265.217Z"
      fill="#dce7ea" fill-opacity="0.9" />
    <rect x="575.42" y="287.771" width="151.426" height="28.8899" rx="14.4449" fill="#E9E9E9" />
    <path
      d="M626.33 300.433V301.487H630.523V303.291H626.33V306.09H623.563V298.342H630.744V300.433H626.33ZM636.171 306.344C635.166 306.344 634.281 306.159 633.518 305.788C632.754 305.416 632.165 304.914 631.751 304.28C631.337 303.646 631.129 302.944 631.129 302.173C631.129 301.387 631.335 300.687 631.745 300.071C632.16 299.451 632.749 298.967 633.512 298.617C634.276 298.264 635.166 298.088 636.181 298.088C637.19 298.088 638.074 298.264 638.834 298.617C639.598 298.967 640.185 299.451 640.596 300.071C641.01 300.687 641.217 301.387 641.217 302.173C641.217 302.947 641.008 303.651 640.59 304.285C640.176 304.919 639.587 305.422 638.824 305.793C638.06 306.16 637.176 306.344 636.171 306.344ZM636.171 304.096C636.585 304.096 636.949 304.017 637.262 303.859C637.575 303.696 637.817 303.471 637.986 303.183C638.155 302.895 638.24 302.565 638.24 302.194C638.24 301.827 638.155 301.503 637.986 301.222C637.817 300.941 637.575 300.723 637.262 300.568C636.949 300.413 636.585 300.336 636.171 300.336C635.753 300.336 635.387 300.413 635.074 300.568C634.76 300.723 634.517 300.941 634.344 301.222C634.175 301.503 634.09 301.827 634.09 302.194C634.09 302.565 634.175 302.895 634.344 303.183C634.517 303.471 634.76 303.696 635.074 303.859C635.387 304.017 635.753 304.096 636.171 304.096ZM649.075 303.832V306.09H641.959V298.342H644.726V303.832H649.075ZM656.733 303.832V306.09H649.617V298.342H652.384V303.832H656.733ZM661.749 306.344C660.744 306.344 659.86 306.159 659.096 305.788C658.333 305.416 657.744 304.914 657.33 304.28C656.915 303.646 656.708 302.944 656.708 302.173C656.708 301.387 656.913 300.687 657.324 300.071C657.738 299.451 658.327 298.967 659.091 298.617C659.855 298.264 660.744 298.088 661.76 298.088C662.769 298.088 663.653 298.264 664.413 298.617C665.177 298.967 665.764 299.451 666.175 300.071C666.589 300.687 666.796 301.387 666.796 302.173C666.796 302.947 666.587 303.651 666.169 304.285C665.755 304.919 665.166 305.422 664.402 305.793C663.639 306.16 662.754 306.344 661.749 306.344ZM661.749 304.096C662.164 304.096 662.527 304.017 662.841 303.859C663.154 303.696 663.396 303.471 663.565 303.183C663.734 302.895 663.819 302.565 663.819 302.194C663.819 301.827 663.734 301.503 663.565 301.222C663.396 300.941 663.154 300.723 662.841 300.568C662.527 300.413 662.164 300.336 661.749 300.336C661.331 300.336 660.966 300.413 660.652 300.568C660.339 300.723 660.096 300.941 659.923 301.222C659.754 301.503 659.669 301.827 659.669 302.194C659.669 302.565 659.754 302.895 659.923 303.183C660.096 303.471 660.339 303.696 660.652 303.859C660.966 304.017 661.331 304.096 661.749 304.096ZM680.025 298.342L678.08 306.09H674.535L673.168 301.319L671.871 306.09H668.673L666.711 298.342H669.499L670.537 302.87L671.758 298.342H674.848L676.178 303.113L677.258 298.342H680.025Z"
      fill="#317b8a" />
  </g>
  <rect x="567.557" y="175.291" width="167.151" height="151.426" rx="7.7088" stroke="#317b8a" stroke-width="0.582409" />
  <g clip-path="url(#clip3_6352_49561)">
    <rect y="135" width="167.734" height="195.689" rx="8" fill="#317b8a" />
    <rect width="167.734" height="69.3067" transform="translate(0 135)" fill="#dce7ea" fill-opacity="0.9" />
    <g clip-path="url(#clip4_6352_49561)">
      <rect x="98.4277" y="171.692" width="58.2409" height="58.2409" fill="#dce7ea" fill-opacity="0.9" />
      <path fill-rule="evenodd" clip-rule="evenodd"
        d="M135.411 195.911C137.058 194.527 138.896 194.001 140.658 194.134C142.538 194.276 144.278 195.163 145.577 196.452C146.877 197.741 147.769 199.465 147.912 201.325C148.056 203.203 147.432 205.169 145.786 206.895C145.635 207.054 145.482 207.211 145.324 207.366C137.858 214.771 127.941 214.79 127.839 214.79C127.789 214.79 117.839 214.79 110.354 207.365L110.352 207.363C110.197 207.209 110.045 207.054 109.895 206.897L109.894 206.896C108.247 205.172 107.622 203.206 107.766 201.328C107.908 199.468 108.8 197.744 110.099 196.455C111.398 195.165 113.138 194.277 115.018 194.135C116.781 194.001 118.619 194.527 120.267 195.91C120.444 193.777 121.367 192.117 122.707 190.975C124.137 189.758 125.999 189.164 127.839 189.164C129.678 189.164 131.541 189.758 132.97 190.975C134.311 192.117 135.234 193.777 135.411 195.911Z"
        fill="#317b8a" />
    </g>
    <rect x="97.5484" y="170.813" width="59.9995" height="59.9995" rx="29.9998" stroke="#317b8a" stroke-width="1.75865" />
    <path
      d="M12.9086 218.422V217.886C12.81 218.09 12.6621 218.25 12.4649 218.366C12.2702 218.48 12.0324 218.536 11.7514 218.536C11.4852 218.536 11.2499 218.481 11.0453 218.37C10.8407 218.259 10.6818 218.106 10.5684 217.911C10.4575 217.717 10.402 217.496 10.402 217.25C10.402 217.006 10.4587 216.785 10.5721 216.588C10.6855 216.391 10.8481 216.237 11.0601 216.126C11.272 216.012 11.5197 215.956 11.8032 215.956C12.0767 215.956 12.3084 216.009 12.4982 216.115C12.688 216.218 12.8248 216.361 12.9086 216.544V216.536C12.9086 216.065 12.7755 215.709 12.5093 215.468C12.2456 215.226 11.8783 215.105 11.4076 215.105C10.9985 215.105 10.6386 215.2 10.3281 215.39C10.02 215.58 9.78218 215.84 9.61458 216.17C9.44946 216.5 9.36689 216.871 9.36689 217.283C9.36689 217.719 9.46548 218.109 9.66264 218.451C9.86228 218.794 10.1432 219.061 10.5055 219.253C10.8678 219.446 11.2844 219.542 11.7551 219.542C12.1347 219.542 12.4994 219.48 12.8494 219.357C13.2018 219.234 13.5148 219.069 13.7884 218.862V219.727C13.4754 219.948 13.1452 220.111 12.7976 220.215C12.4526 220.318 12.0792 220.37 11.6775 220.37C11.0219 220.37 10.4513 220.237 9.96579 219.971C9.48026 219.704 9.10811 219.34 8.84932 218.876C8.59053 218.411 8.46114 217.886 8.46114 217.301C8.46114 216.71 8.5893 216.187 8.84562 215.734C9.10194 215.278 9.45438 214.926 9.90295 214.677C10.354 214.425 10.8617 214.3 11.4261 214.3C11.9338 214.3 12.3651 214.392 12.72 214.577C13.0774 214.759 13.3473 215.018 13.5296 215.353C13.712 215.686 13.8032 216.075 13.8032 216.521V218.422H12.9086ZM12.0472 217.871C12.2123 217.871 12.3602 217.842 12.4908 217.786C12.6239 217.727 12.7262 217.646 12.7976 217.545C12.8716 217.444 12.9086 217.331 12.9086 217.205C12.9086 217.085 12.8716 216.976 12.7976 216.88C12.7262 216.781 12.6264 216.705 12.4982 216.651C12.37 216.594 12.2246 216.566 12.062 216.566C11.8229 216.566 11.638 216.626 11.5074 216.747C11.3768 216.865 11.3115 217.022 11.3115 217.216C11.3115 217.414 11.3756 217.573 11.5037 217.693C11.6319 217.812 11.813 217.871 12.0472 217.871ZM18.2709 214.007V219.46H17.343V218.747C17.2345 218.991 17.0719 219.191 16.855 219.346C16.6381 219.499 16.3719 219.575 16.0565 219.575C15.7237 219.575 15.4304 219.49 15.1766 219.32C14.9227 219.147 14.7268 218.91 14.5888 218.606C14.4532 218.303 14.3854 217.959 14.3854 217.575C14.3854 217.193 14.4594 216.848 14.6073 216.54C14.7551 216.229 14.9622 215.985 15.2283 215.808C15.4945 215.63 15.7977 215.542 16.1378 215.542C16.68 215.542 17.078 215.782 17.3319 216.263V214.007H18.2709ZM16.33 218.758C16.5346 218.758 16.7133 218.706 16.8661 218.603C17.0214 218.499 17.1409 218.356 17.2247 218.174C17.3085 217.989 17.3504 217.78 17.3504 217.545C17.3504 217.314 17.3097 217.108 17.2284 216.928C17.1471 216.748 17.0312 216.608 16.8809 216.507C16.7305 216.406 16.5543 216.355 16.3522 216.355C16.1501 216.355 15.9727 216.406 15.8199 216.507C15.6695 216.608 15.5524 216.751 15.4686 216.935C15.3873 217.118 15.3466 217.331 15.3466 217.575C15.3466 217.814 15.3873 218.024 15.4686 218.203C15.55 218.381 15.6646 218.518 15.8125 218.614C15.9603 218.71 16.1329 218.758 16.33 218.758ZM19.6998 215.076C19.5962 215.076 19.5014 215.052 19.4151 215.006C19.3288 214.959 19.2611 214.895 19.2118 214.813C19.1625 214.73 19.1378 214.637 19.1378 214.536C19.1378 214.386 19.1908 214.261 19.2968 214.163C19.4052 214.062 19.5396 214.011 19.6998 214.011C19.8624 214.011 19.9955 214.06 20.099 214.159C20.2025 214.258 20.2543 214.383 20.2543 214.536C20.2543 214.691 20.2013 214.821 20.0953 214.924C19.9918 215.025 19.86 215.076 19.6998 215.076ZM19.2302 215.656H20.1693V219.46H19.2302V215.656ZM24.7294 215.656V219.039C24.7294 219.458 24.6431 219.817 24.4706 220.115C24.2981 220.413 24.0553 220.639 23.7423 220.791C23.4293 220.947 23.0658 221.024 22.6517 221.024C22.0799 221.024 21.6215 220.885 21.2765 220.606V219.753C21.4441 219.913 21.64 220.035 21.8643 220.119C22.091 220.202 22.335 220.244 22.5963 220.244C23.0005 220.244 23.3012 220.131 23.4983 219.904C23.6955 219.677 23.7941 219.367 23.7941 218.972V218.551C23.5402 219.076 23.1249 219.338 22.5482 219.338C22.2155 219.338 21.9247 219.26 21.6757 219.102C21.4268 218.944 21.2346 218.725 21.099 218.444C20.9659 218.16 20.8994 217.837 20.8994 217.475C20.8994 217.11 20.9709 216.781 21.1138 216.488C21.2592 216.192 21.4625 215.961 21.7238 215.793C21.9875 215.625 22.2907 215.542 22.6332 215.542C22.9191 215.542 23.157 215.605 23.3468 215.73C23.539 215.856 23.6893 216.048 23.7978 216.307V215.656H24.7294ZM22.8107 218.562C23.0079 218.562 23.1804 218.515 23.3283 218.422C23.4786 218.328 23.5944 218.196 23.6758 218.026C23.7571 217.856 23.7978 217.66 23.7978 217.438C23.7978 217.219 23.7571 217.025 23.6758 216.858C23.5944 216.69 23.4798 216.561 23.332 216.47C23.1866 216.378 23.0202 216.333 22.8329 216.333C22.6382 216.333 22.4669 216.381 22.319 216.477C22.1736 216.573 22.0602 216.707 21.9789 216.88C21.9 217.053 21.8606 217.252 21.8606 217.479C21.8606 217.696 21.8988 217.887 21.9752 218.052C22.0516 218.215 22.1613 218.34 22.3042 218.429C22.4472 218.518 22.616 218.562 22.8107 218.562ZM26.1508 215.076C26.0473 215.076 25.9524 215.052 25.8662 215.006C25.7799 214.959 25.7121 214.895 25.6629 214.813C25.6136 214.73 25.5889 214.637 25.5889 214.536C25.5889 214.386 25.6419 214.261 25.7479 214.163C25.8563 214.062 25.9906 214.011 26.1508 214.011C26.3135 214.011 26.4466 214.06 26.5501 214.159C26.6536 214.258 26.7054 214.383 26.7054 214.536C26.7054 214.691 26.6524 214.821 26.5464 214.924C26.4429 215.025 26.311 215.076 26.1508 215.076ZM25.6813 215.656H26.6204V219.46H25.6813V215.656ZM30.0086 216.429H29.0104V219.46H28.0714V216.429H27.1693V215.656H28.0714V214.673L29.0104 214.429V215.656H30.0086V216.429ZM31.8182 215.542C32.178 215.542 32.4873 215.609 32.7461 215.745C33.0049 215.878 33.2021 216.07 33.3376 216.322C33.4732 216.573 33.541 216.871 33.541 217.216V219.46H32.6167V218.984C32.5157 219.171 32.3727 219.316 32.1879 219.42C32.0055 219.523 31.7923 219.575 31.5483 219.575C31.3018 219.575 31.0788 219.522 30.8792 219.416C30.682 219.308 30.528 219.16 30.417 218.972C30.3061 218.783 30.2507 218.571 30.2507 218.337C30.2507 218.093 30.3086 217.878 30.4244 217.693C30.5403 217.508 30.7017 217.366 30.9087 217.264C31.1182 217.161 31.3573 217.109 31.6259 217.109C31.8502 217.109 32.0462 217.149 32.2138 217.228C32.3838 217.306 32.5181 217.412 32.6167 217.545V217.313C32.6167 217.002 32.5292 216.763 32.3542 216.595C32.1817 216.425 31.9426 216.34 31.637 216.34C31.4078 216.34 31.1922 216.382 30.9901 216.466C30.7904 216.55 30.613 216.667 30.4577 216.817V215.967C30.6426 215.836 30.8484 215.733 31.0751 215.656C31.3043 215.58 31.552 215.542 31.8182 215.542ZM31.8847 218.91C32.0326 218.91 32.162 218.882 32.2729 218.828C32.3863 218.774 32.4738 218.699 32.5354 218.603C32.597 218.507 32.6278 218.399 32.6278 218.281C32.6278 218.168 32.597 218.065 32.5354 217.974C32.4762 217.883 32.3912 217.813 32.2803 217.764C32.1694 217.712 32.04 217.686 31.8921 217.686C31.6629 217.686 31.483 217.741 31.3524 217.852C31.2217 217.961 31.1564 218.107 31.1564 218.292C31.1564 218.482 31.2205 218.632 31.3487 218.743C31.4768 218.854 31.6555 218.91 31.8847 218.91ZM34.4485 214.007H35.3875V219.46H34.4485V214.007ZM37.6926 215.542C38.0524 215.542 38.3617 215.609 38.6205 215.745C38.8793 215.878 39.0764 216.07 39.212 216.322C39.3475 216.573 39.4153 216.871 39.4153 217.216V219.46H38.4911V218.984C38.39 219.171 38.2471 219.316 38.0622 219.42C37.8799 219.523 37.6667 219.575 37.4227 219.575C37.1762 219.575 36.9532 219.522 36.7535 219.416C36.5564 219.308 36.4023 219.16 36.2914 218.972C36.1805 218.783 36.1251 218.571 36.1251 218.337C36.1251 218.093 36.183 217.878 36.2988 217.693C36.4146 217.508 36.5761 217.366 36.7831 217.264C36.9926 217.161 37.2317 217.109 37.5003 217.109C37.7246 217.109 37.9205 217.149 38.0881 217.228C38.2582 217.306 38.3925 217.412 38.4911 217.545V217.313C38.4911 217.002 38.4036 216.763 38.2286 216.595C38.0561 216.425 37.817 216.34 37.5114 216.34C37.2822 216.34 37.0665 216.382 36.8644 216.466C36.6648 216.55 36.4874 216.667 36.3321 216.817V215.967C36.5169 215.836 36.7227 215.733 36.9495 215.656C37.1787 215.58 37.4264 215.542 37.6926 215.542ZM37.7591 218.91C37.907 218.91 38.0364 218.882 38.1473 218.828C38.2606 218.774 38.3481 218.699 38.4098 218.603C38.4714 218.507 38.5022 218.399 38.5022 218.281C38.5022 218.168 38.4714 218.065 38.4098 217.974C38.3506 217.883 38.2656 217.813 38.1547 217.764C38.0438 217.712 37.9144 217.686 37.7665 217.686C37.5373 217.686 37.3574 217.741 37.2267 217.852C37.0961 217.961 37.0308 218.107 37.0308 218.292C37.0308 218.482 37.0949 218.632 37.223 218.743C37.3512 218.854 37.5299 218.91 37.7591 218.91ZM42.6224 219.46L41.7647 218.074L40.9181 219.46H39.8534L41.1769 217.483L39.9162 215.656H40.992L41.7684 216.935L42.5817 215.656H43.6279L42.3747 217.46L43.7019 219.46H42.6224Z"
      fill="#DCDCDC" fill-opacity="0.5" />
    <path
      d="M9.35552 223.838H14.2355C15.4458 223.838 16.4695 224.045 17.3068 224.459C18.144 224.869 18.7719 225.44 19.1905 226.172C19.6136 226.9 19.8252 227.74 19.8252 228.691C19.8252 229.646 19.6 230.497 19.1495 231.243C18.6991 231.985 18.0257 232.567 17.1293 232.991C16.2329 233.414 15.1409 233.625 13.8533 233.625H9.35552V223.838ZM13.8191 231.755C14.5471 231.755 15.166 231.632 15.6756 231.387C16.1852 231.141 16.5697 230.788 16.829 230.329C17.0929 229.865 17.2249 229.314 17.2249 228.677C17.2249 227.762 16.961 227.041 16.4331 226.513C15.9053 225.981 15.1068 225.715 14.0375 225.715H11.8057V231.755H13.8191ZM21.3495 223.824H23.7997V233.625H21.3495V223.824ZM36.6127 227.967V228.998C36.6127 230.049 36.3943 230.943 35.9575 231.68C35.5207 232.413 34.9019 232.968 34.1011 233.345C33.3048 233.723 32.372 233.912 31.3028 233.912C30.097 233.912 29.0391 233.689 28.1291 233.243C27.2236 232.793 26.5252 232.176 26.0338 231.393C25.5469 230.606 25.3035 229.724 25.3035 228.745C25.3035 227.776 25.5401 226.9 26.0133 226.118C26.4911 225.33 27.2009 224.707 28.1428 224.248C29.0846 223.783 30.2267 223.551 31.569 223.551C32.4426 223.551 33.2206 223.638 33.9031 223.811C34.5857 223.979 35.2045 224.213 35.7596 224.514V226.684C35.2818 226.384 34.7153 226.145 34.0601 225.967C33.4095 225.785 32.711 225.694 31.9648 225.694C31.0275 225.694 30.2517 225.833 29.6375 226.111C29.0232 226.384 28.5727 226.752 28.2861 227.216C27.9994 227.681 27.8561 228.206 27.8561 228.793C27.8561 229.398 27.9994 229.933 28.2861 230.397C28.5773 230.861 28.9891 231.223 29.5214 231.482C30.0583 231.737 30.6862 231.864 31.4052 231.864C32.2469 231.864 32.9272 231.68 33.4459 231.312C33.9646 230.943 34.2808 230.422 34.3945 229.749H29.2348L29.6716 227.967H36.6127ZM38.1302 223.824H40.5804V233.625H38.1302V223.824ZM50.9705 225.845H47.5852V233.625H45.1486V225.845H41.7088V223.838H50.9705V225.845ZM57.4498 231.346H53.2796L52.4606 233.625H50.0036L53.7028 223.838H57.1358L60.7941 233.625H58.2688L57.4498 231.346ZM56.8969 229.796L55.3749 225.537L53.8393 229.796H56.8969ZM69.8464 231.55V233.625H61.8952V223.838H64.3454V231.55H69.8464ZM77.3973 231.346H73.2271L72.4081 233.625H69.9511L73.6503 223.838H77.0833L80.7416 233.625H78.2163L77.3973 231.346ZM76.8444 229.796L75.3224 225.537L73.7868 229.796H76.8444ZM88.0877 233.625L85.8081 230.035L83.5421 233.625H80.7165L84.1086 228.513L80.8257 223.838H83.6923L85.8217 227.1L88.0331 223.838H90.9474L87.6031 228.52L91.0361 233.625H88.0877Z"
      fill="#dce7ea" fill-opacity="0.9" />
    <rect x="8.1543" y="247.772" width="143.855" height="15.1426" rx="7.57132" fill="#E1E1E1" />
    <rect x="8.1543" y="267.574" width="106.581" height="15.1426" rx="7.57132" fill="#E1E1E1" />
    <rect x="8.1543" y="292.035" width="151.426" height="28.8899" rx="14.4449" fill="#E9E9E9" />
    <path
      d="M59.064 304.696V305.75H63.2569V307.554H59.064V310.353H56.2976V302.605H63.4785V304.696H59.064ZM68.905 310.607C67.9 310.607 67.0157 310.422 66.2521 310.051C65.4884 309.68 64.8995 309.177 64.4852 308.543C64.071 307.909 63.8638 307.207 63.8638 306.436C63.8638 305.651 64.0692 304.95 64.4798 304.334C64.8941 303.715 65.483 303.23 66.2467 302.881C67.0103 302.528 67.9 302.351 68.9158 302.351C69.9244 302.351 70.8088 302.528 71.5688 302.881C72.3325 303.23 72.9196 303.715 73.3303 304.334C73.7445 304.95 73.9516 305.651 73.9516 306.436C73.9516 307.21 73.7427 307.915 73.3249 308.549C72.9106 309.183 72.3217 309.685 71.558 310.056C70.7944 310.424 69.91 310.607 68.905 310.607ZM68.905 308.359C69.3193 308.359 69.6831 308.28 69.9965 308.122C70.3099 307.96 70.5512 307.735 70.7205 307.446C70.8898 307.158 70.9745 306.829 70.9745 306.458C70.9745 306.09 70.8898 305.766 70.7205 305.485C70.5512 305.204 70.3099 304.986 69.9965 304.831C69.6831 304.676 69.3193 304.599 68.905 304.599C68.4872 304.599 68.1216 304.676 67.8082 304.831C67.4948 304.986 67.2517 305.204 67.0788 305.485C66.9095 305.766 66.8248 306.09 66.8248 306.458C66.8248 306.829 66.9095 307.158 67.0788 307.446C67.2517 307.735 67.4948 307.96 67.8082 308.122C68.1216 308.28 68.4872 308.359 68.905 308.359ZM81.8097 308.095V310.353H74.6936V302.605H77.4601V308.095H81.8097ZM89.4678 308.095V310.353H82.3517V302.605H85.1182V308.095H89.4678ZM94.4837 310.607C93.4787 310.607 92.5944 310.422 91.8307 310.051C91.0671 309.68 90.4781 309.177 90.0639 308.543C89.6496 307.909 89.4425 307.207 89.4425 306.436C89.4425 305.651 89.6478 304.95 90.0585 304.334C90.4727 303.715 91.0617 303.23 91.8253 302.881C92.589 302.528 93.4787 302.351 94.4945 302.351C95.5031 302.351 96.3874 302.528 97.1475 302.881C97.9111 303.23 98.4983 303.715 98.9089 304.334C99.3232 304.95 99.5303 305.651 99.5303 306.436C99.5303 307.21 99.3214 307.915 98.9035 308.549C98.4893 309.183 97.9003 309.685 97.1367 310.056C96.373 310.424 95.4887 310.607 94.4837 310.607ZM94.4837 308.359C94.898 308.359 95.2618 308.28 95.5752 308.122C95.8885 307.96 96.1299 307.735 96.2992 307.446C96.4685 307.158 96.5531 306.829 96.5531 306.458C96.5531 306.09 96.4685 305.766 96.2992 305.485C96.1299 305.204 95.8885 304.986 95.5752 304.831C95.2618 304.676 94.898 304.599 94.4837 304.599C94.0659 304.599 93.7002 304.676 93.3869 304.831C93.0735 304.986 92.8303 305.204 92.6574 305.485C92.4881 305.766 92.4035 306.09 92.4035 306.458C92.4035 306.829 92.4881 307.158 92.6574 307.446C92.8303 307.735 93.0735 307.96 93.3869 308.122C93.7002 308.28 94.0659 308.359 94.4837 308.359ZM112.759 302.605L110.814 310.353H107.269L105.902 305.582L104.606 310.353H101.407L99.4456 302.605H102.234L103.271 307.133L104.492 302.605H107.583L108.912 307.376L109.993 302.605H112.759Z"
      fill="#317b8a" />
  </g>
  <rect x="0.291204" y="135.291" width="167.151" height="195.107" rx="7.7088" stroke="#317b8a" stroke-width="0.582409" />
  <defs>
    <clipPath id="clip0_6352_49561">
      <rect x="185.207" y="36" width="167.734" height="175.887" rx="8" fill="#dce7ea" />
    </clipPath>
    <clipPath id="clip1_6352_49561">
      <rect x="376.236" y="112" width="167.734" height="195.689" rx="8" fill="#dce7ea" />
    </clipPath>
    <clipPath id="clip2_6352_49561">
      <rect x="567.266" y="175" width="167.734" height="152.009" rx="8" fill="#dce7ea" />
    </clipPath>
    <clipPath id="clip3_6352_49561">
      <rect y="135" width="167.734" height="195.689" rx="8" fill="#dce7ea" />
    </clipPath>
    <clipPath id="clip4_6352_49561">
      <rect x="98.4277" y="171.692" width="58.2409" height="58.2409" rx="29.1204" fill="#dce7ea" />
    </clipPath>
  </defs>
</svg>