<svg width="743" height="386" viewBox="0 0 743 386" fill="none" xmlns="http://www.w3.org/2000/svg">
  <path d="M269.134 13L269.134 370" stroke="white" stroke-opacity="0.08" stroke-dasharray="7 4" />
  <path d="M465.865 13L465.865 370" stroke="white" stroke-opacity="0.08" stroke-dasharray="7 4" />
  <path d="M0 78.5H735" stroke="white" stroke-opacity="0.08" stroke-dasharray="7 4" />
  <path d="M0 191.5H735" stroke="white" stroke-opacity="0.08" stroke-dasharray="7 4" />
  <path d="M0 305.5H735" stroke="white" stroke-opacity="0.08" stroke-dasharray="7 4" />
  <g clip-path="url(#clip0_6358_49563)">
    <rect x="218" y="62" width="300" height="256.765" rx="24.7123" fill="#d0d9db" fill-opacity="0.9" />
    <g clip-path="url(#clip1_6358_49563)">
      <rect x="242.712" y="86.7122" width="37.0684" height="37.0684" fill="#317b8a" />
      <path fill-rule="evenodd" clip-rule="evenodd"
        d="M266.25 102.127C267.299 101.246 268.468 100.911 269.59 100.996C270.787 101.086 271.894 101.651 272.721 102.471C273.548 103.291 274.116 104.389 274.207 105.573C274.299 106.768 273.901 108.019 272.854 109.118C272.758 109.219 272.66 109.319 272.56 109.417C267.808 114.13 261.496 114.143 261.431 114.143C261.399 114.143 255.066 114.143 250.302 109.417L250.301 109.416C250.203 109.317 250.106 109.219 250.01 109.119L250.01 109.118C248.962 108.021 248.564 106.77 248.655 105.575C248.746 104.391 249.314 103.293 250.14 102.473C250.967 101.652 252.074 101.087 253.271 100.996C254.393 100.911 255.563 101.246 256.612 102.126C256.724 100.769 257.312 99.7119 258.165 98.9854C259.075 98.2106 260.26 97.8328 261.431 97.8328C262.602 97.8328 263.787 98.2106 264.697 98.9854C265.55 99.712 266.138 100.769 266.25 102.127Z"
        fill="white" fill-opacity="0.9" />
    </g>
    <rect x="242.152" y="86.1525" width="38.1877" height="38.1877" rx="19.0939" stroke="#317b8a" stroke-width="1.11932" />
    <path
      d="M299.815 119.536V118.669C299.656 119 299.416 119.259 299.097 119.447C298.782 119.63 298.397 119.722 297.942 119.722C297.511 119.722 297.13 119.632 296.799 119.453C296.468 119.273 296.21 119.026 296.027 118.71C295.847 118.395 295.757 118.038 295.757 117.639C295.757 117.244 295.849 116.887 296.033 116.568C296.216 116.248 296.479 115.999 296.823 115.819C297.166 115.636 297.567 115.544 298.026 115.544C298.469 115.544 298.844 115.63 299.151 115.802C299.458 115.969 299.68 116.201 299.815 116.496V116.484C299.815 115.722 299.6 115.145 299.169 114.754C298.742 114.363 298.147 114.168 297.385 114.168C296.723 114.168 296.14 114.321 295.638 114.628C295.139 114.936 294.754 115.357 294.482 115.891C294.215 116.426 294.081 117.027 294.081 117.693C294.081 118.399 294.241 119.03 294.56 119.584C294.883 120.139 295.338 120.572 295.925 120.883C296.511 121.194 297.186 121.35 297.948 121.35C298.562 121.35 299.153 121.25 299.72 121.051C300.29 120.851 300.797 120.584 301.24 120.249V121.649C300.733 122.008 300.198 122.272 299.636 122.439C299.077 122.607 298.473 122.691 297.822 122.691C296.761 122.691 295.837 122.475 295.051 122.044C294.265 121.613 293.662 121.023 293.243 120.273C292.824 119.518 292.615 118.669 292.615 117.723C292.615 116.765 292.822 115.919 293.237 115.185C293.652 114.447 294.223 113.876 294.949 113.473C295.679 113.066 296.501 112.863 297.415 112.863C298.237 112.863 298.935 113.012 299.51 113.312C300.089 113.607 300.526 114.026 300.821 114.569C301.116 115.107 301.264 115.738 301.264 116.46V119.536H299.815ZM298.421 118.645C298.688 118.645 298.927 118.599 299.139 118.507C299.354 118.411 299.52 118.281 299.636 118.118C299.755 117.954 299.815 117.771 299.815 117.567C299.815 117.372 299.755 117.196 299.636 117.04C299.52 116.881 299.358 116.757 299.151 116.669C298.943 116.578 298.708 116.532 298.445 116.532C298.058 116.532 297.758 116.629 297.547 116.825C297.335 117.017 297.23 117.27 297.23 117.585C297.23 117.904 297.333 118.162 297.541 118.357C297.748 118.549 298.042 118.645 298.421 118.645ZM308.73 119.231H307.408V121.218H305.965V119.231H302.033V117.854L305.456 113.066H307.408V118.016H308.73V119.231ZM305.965 118.016V114.467L303.469 118.016H305.965ZM313.366 116.801C313.701 116.885 313.989 117.027 314.228 117.226C314.467 117.422 314.649 117.659 314.773 117.938C314.9 118.214 314.964 118.509 314.964 118.824C314.964 119.315 314.834 119.758 314.575 120.153C314.32 120.548 313.959 120.857 313.492 121.081C313.029 121.304 312.494 121.416 311.888 121.416C311.433 121.416 311.018 121.364 310.643 121.26C310.272 121.16 309.909 121.003 309.553 120.787V119.363C309.793 119.574 310.084 119.748 310.427 119.884C310.774 120.015 311.177 120.081 311.636 120.081C311.999 120.081 312.313 120.027 312.576 119.919C312.839 119.812 313.041 119.66 313.18 119.465C313.32 119.265 313.39 119.034 313.39 118.77C313.39 118.431 313.264 118.152 313.013 117.932C312.766 117.709 312.357 117.597 311.786 117.597H310.056L310.26 116.472H311.696C312.207 116.472 312.576 116.368 312.803 116.161C313.035 115.953 313.151 115.67 313.151 115.311C313.151 114.984 313.021 114.726 312.762 114.539C312.502 114.347 312.121 114.251 311.618 114.251C311.155 114.251 310.752 114.321 310.409 114.461C310.07 114.596 309.789 114.764 309.565 114.964V113.545C309.92 113.322 310.288 113.156 310.667 113.048C311.046 112.937 311.463 112.881 311.918 112.881C312.488 112.881 312.983 112.972 313.402 113.156C313.825 113.34 314.148 113.595 314.372 113.922C314.595 114.249 314.707 114.622 314.707 115.041C314.707 115.468 314.591 115.845 314.36 116.173C314.132 116.496 313.801 116.705 313.366 116.801ZM321.329 119.854V121.218H315.997V120.117L318.295 117.956C318.782 117.513 319.127 117.118 319.33 116.771C319.534 116.424 319.636 116.073 319.636 115.718C319.636 115.279 319.496 114.932 319.217 114.676C318.941 114.417 318.552 114.287 318.05 114.287C317.635 114.287 317.251 114.375 316.9 114.551C316.549 114.722 316.242 114.948 315.979 115.227V113.707C316.314 113.439 316.679 113.236 317.074 113.096C317.473 112.953 317.922 112.881 318.421 112.881C318.987 112.881 319.48 112.988 319.899 113.204C320.322 113.415 320.647 113.717 320.875 114.108C321.102 114.495 321.216 114.948 321.216 115.466C321.216 116.009 321.076 116.524 320.797 117.011C320.517 117.493 320.089 117.99 319.51 118.501L318.056 119.854H321.329ZM326.097 112.635C326.683 112.635 327.192 112.751 327.623 112.982C328.058 113.21 328.391 113.535 328.623 113.958C328.858 114.381 328.976 114.878 328.976 115.448C328.976 116.003 328.856 116.49 328.617 116.909C328.377 117.328 328.026 117.655 327.563 117.89C327.104 118.122 326.556 118.238 325.917 118.238H324.397V121.218H322.817V112.635H326.097ZM325.672 116.993C326.218 116.993 326.633 116.859 326.917 116.592C327.2 116.324 327.342 115.941 327.342 115.442C327.342 114.976 327.208 114.618 326.941 114.371C326.673 114.12 326.3 113.994 325.821 113.994H324.397V116.993H325.672ZM333.486 114.874C333.925 114.874 334.306 114.972 334.629 115.167C334.952 115.363 335.199 115.648 335.371 116.023C335.547 116.394 335.634 116.839 335.634 117.358V121.218H334.114V117.693C334.114 117.17 334.018 116.787 333.827 116.544C333.639 116.296 333.334 116.173 332.911 116.173C332.464 116.173 332.117 116.326 331.87 116.633C331.622 116.941 331.498 117.366 331.498 117.908V121.218H329.978V112.39H331.498V115.987C331.678 115.632 331.935 115.359 332.271 115.167C332.61 114.972 333.015 114.874 333.486 114.874ZM337.876 114.12C337.708 114.12 337.555 114.082 337.415 114.006C337.275 113.93 337.166 113.826 337.086 113.695C337.006 113.559 336.966 113.409 336.966 113.246C336.966 113.002 337.052 112.801 337.223 112.641C337.399 112.478 337.616 112.396 337.876 112.396C338.139 112.396 338.355 112.476 338.522 112.635C338.69 112.795 338.774 112.998 338.774 113.246C338.774 113.497 338.688 113.707 338.516 113.874C338.349 114.038 338.135 114.12 337.876 114.12ZM337.116 115.059H338.636V121.218H337.116V115.059ZM340.219 112.39H341.739V121.218H340.219V112.39Z"
      fill="#353535" fill-opacity="0.5" />
    <path
      d="M299.514 93.0097C300.325 93.0097 301.019 93.1595 301.599 93.4591C302.183 93.7587 302.628 94.181 302.932 94.7261C303.237 95.2664 303.389 95.895 303.389 96.612C303.389 97.3192 303.22 97.9429 302.881 98.4831C302.547 99.0233 302.051 99.4457 301.393 99.7501C300.74 100.05 299.954 100.2 299.035 100.2H296.059V103.588H293.415V93.0097H299.514ZM298.468 98.3579C299.18 98.3579 299.725 98.2105 300.104 97.9159C300.487 97.6212 300.678 97.2038 300.678 96.6636C300.678 96.1381 300.504 95.728 300.155 95.4333C299.806 95.1387 299.315 94.9913 298.682 94.9913H296.059V98.3579H298.468ZM310.328 94.5125C311.09 94.5125 311.735 94.6746 312.266 94.9987C312.796 95.3179 313.199 95.7894 313.474 96.4131C313.754 97.0319 313.894 97.7857 313.894 98.6746V103.588H311.33V99.2419C311.33 98.3824 311.158 97.7415 310.815 97.3192C310.471 96.8919 309.95 96.6783 309.253 96.6783C308.757 96.6783 308.334 96.7814 307.986 96.9877C307.642 97.1939 307.382 97.4862 307.205 97.8643C307.033 98.2425 306.947 98.682 306.947 99.1829V103.588H304.391V92.7224H306.947V96.8183C307.256 96.0423 307.689 95.4653 308.244 95.0871C308.803 94.704 309.498 94.5125 310.328 94.5125ZM316.811 94.4904C316.526 94.4904 316.271 94.4388 316.045 94.3357C315.819 94.2277 315.642 94.0803 315.514 93.8937C315.387 93.7071 315.323 93.4984 315.323 93.2676C315.323 93.0417 315.387 92.8378 315.514 92.6561C315.647 92.4744 315.826 92.332 316.052 92.2289C316.278 92.1257 316.531 92.0742 316.811 92.0742C317.086 92.0742 317.334 92.1257 317.555 92.2289C317.776 92.332 317.948 92.4744 318.071 92.6561C318.198 92.8378 318.262 93.0417 318.262 93.2676C318.262 93.4984 318.198 93.7071 318.071 93.8937C317.948 94.0803 317.776 94.2277 317.555 94.3357C317.334 94.4388 317.086 94.4904 316.811 94.4904ZM315.514 95.1755H318.078V103.588H315.514V95.1755ZM319.846 92.7224H322.395V103.588H319.846V92.7224ZM324.163 92.7224H326.712V103.588H324.163V92.7224ZM329.776 94.4904C329.491 94.4904 329.236 94.4388 329.01 94.3357C328.784 94.2277 328.607 94.0803 328.48 93.8937C328.352 93.7071 328.288 93.4984 328.288 93.2676C328.288 93.0417 328.352 92.8378 328.48 92.6561C328.612 92.4744 328.791 92.332 329.017 92.2289C329.243 92.1257 329.496 92.0742 329.776 92.0742C330.051 92.0742 330.299 92.1257 330.52 92.2289C330.741 92.332 330.913 92.4744 331.036 92.6561C331.163 92.8378 331.227 93.0417 331.227 93.2676C331.227 93.4984 331.163 93.7071 331.036 93.8937C330.913 94.0803 330.741 94.2277 330.52 94.3357C330.299 94.4388 330.051 94.4904 329.776 94.4904ZM328.48 95.1755H331.043V103.588H328.48V95.1755ZM339.043 94.5125C339.849 94.5125 340.561 94.7139 341.18 95.1166C341.798 95.5193 342.275 96.0742 342.609 96.7814C342.948 97.4837 343.117 98.2695 343.117 99.1387C343.117 100.057 342.93 100.875 342.557 101.592C342.189 102.309 341.685 102.866 341.047 103.264C340.409 103.657 339.699 103.853 338.918 103.853C338.083 103.853 337.361 103.677 336.752 103.323C336.143 102.969 335.672 102.459 335.338 101.791V106.454H332.782V94.8735H335.338V96.9361C335.618 96.1749 336.072 95.5807 336.701 95.1534C337.334 94.7261 338.115 94.5125 339.043 94.5125ZM337.857 101.776C338.378 101.776 338.835 101.665 339.227 101.444C339.62 101.219 339.922 100.909 340.134 100.516C340.345 100.118 340.45 99.6716 340.45 99.1756C340.45 98.6845 340.347 98.2425 340.141 97.8496C339.935 97.4567 339.637 97.1497 339.25 96.9287C338.866 96.7028 338.417 96.5899 337.901 96.5899C337.386 96.5899 336.932 96.7053 336.539 96.9361C336.146 97.162 335.844 97.4739 335.633 97.8717C335.421 98.2695 335.316 98.7188 335.316 99.2198C335.316 99.7109 335.419 100.15 335.625 100.538C335.831 100.921 336.126 101.223 336.509 101.444C336.892 101.665 337.342 101.776 337.857 101.776ZM348.119 103.853C347.343 103.853 346.592 103.753 345.865 103.551C345.143 103.35 344.487 103.055 343.898 102.667V100.7C344.438 101.113 345.062 101.432 345.769 101.658C346.481 101.884 347.196 101.997 347.913 101.997C348.453 101.997 348.86 101.916 349.135 101.754C349.41 101.592 349.548 101.368 349.548 101.083C349.548 100.877 349.477 100.698 349.334 100.546C349.197 100.389 348.927 100.258 348.524 100.155L346.601 99.6986C345.658 99.4678 344.978 99.1461 344.561 98.7336C344.148 98.321 343.942 97.8054 343.942 97.1866C343.942 96.6562 344.107 96.1896 344.436 95.7869C344.77 95.3842 345.246 95.0724 345.865 94.8514C346.488 94.6255 347.218 94.5125 348.053 94.5125C348.809 94.5125 349.496 94.6009 350.115 94.7777C350.734 94.9496 351.267 95.1804 351.714 95.4702V97.3707C351.262 97.0613 350.744 96.8158 350.159 96.6341C349.575 96.4475 348.954 96.3542 348.296 96.3542C347.711 96.3542 347.274 96.4278 346.984 96.5752C346.695 96.7176 346.55 96.9189 346.55 97.1792C346.55 97.3953 346.648 97.5672 346.844 97.6949C347.046 97.8226 347.377 97.938 347.839 98.0411L349.563 98.4168C350.427 98.5936 351.083 98.8858 351.53 99.2934C351.977 99.701 352.2 100.273 352.2 101.01C352.2 101.575 352.038 102.073 351.714 102.505C351.395 102.933 350.928 103.264 350.314 103.5C349.7 103.735 348.968 103.853 348.119 103.853ZM362.248 101.26H360.473V103.588H358.152V101.26H352.62V99.3303L357.18 93.5401H360.473V99.5734H362.248V101.26ZM358.152 99.5734V95.2934L354.874 99.5734H358.152ZM368.782 98.1663C369.524 98.3137 370.091 98.6182 370.484 99.0798C370.877 99.5365 371.073 100.096 371.073 100.759C371.073 101.354 370.887 101.884 370.513 102.351C370.145 102.817 369.624 103.183 368.952 103.448C368.284 103.708 367.52 103.839 366.661 103.839C365.271 103.839 364.063 103.541 363.036 102.947V101.179C363.375 101.405 363.807 101.597 364.333 101.754C364.863 101.911 365.467 101.99 366.145 101.99C366.872 101.99 367.436 101.862 367.839 101.607C368.242 101.351 368.443 101.002 368.443 100.56C368.443 100.172 368.271 99.8656 367.928 99.6396C367.589 99.4088 367.049 99.2934 366.307 99.2934H363.817L364.163 97.6728H366.359C367.017 97.6728 367.491 97.5672 367.78 97.356C368.075 97.1448 368.222 96.8428 368.222 96.4499C368.222 96.0767 368.041 95.782 367.677 95.5659C367.314 95.3449 366.774 95.2344 366.056 95.2344C365.389 95.2344 364.799 95.3179 364.289 95.4849C363.778 95.6519 363.368 95.8508 363.058 96.0816V94.1C363.544 93.8446 364.09 93.6482 364.694 93.5107C365.303 93.3731 365.953 93.3044 366.646 93.3044C367.505 93.3044 368.244 93.4198 368.863 93.6506C369.487 93.8814 369.961 94.2007 370.285 94.6083C370.609 95.0159 370.771 95.4775 370.771 95.9932C370.771 96.5383 370.599 97.0049 370.255 97.3928C369.917 97.7808 369.425 98.0386 368.782 98.1663ZM377.386 93.5328V103.588H374.911V95.9416L371.721 97.7833V95.6028L375.331 93.5328H377.386Z"
      fill="#317b8a" />
    <path
      d="M396.153 91.3599C395.823 91.3596 395.496 91.4244 395.191 91.5507C394.886 91.6769 394.608 91.8622 394.375 92.0957C394.141 92.3292 393.956 92.6066 393.83 92.9118C393.703 93.217 393.639 93.5441 393.639 93.8743C393.639 93.2075 393.374 92.5679 392.902 92.0963C392.431 91.6248 391.791 91.3599 391.124 91.3599C390.458 91.3599 389.818 91.6248 389.346 92.0963C388.875 92.5679 388.61 93.2075 388.61 93.8743C388.61 93.2075 388.345 92.5679 387.874 92.0963C387.402 91.6248 386.762 91.3599 386.096 91.3599C385.429 91.3599 384.789 91.6248 384.318 92.0963C383.846 92.5679 383.581 93.2075 383.581 93.8743V97.4897C383.581 99.4903 384.376 101.409 385.79 102.824C387.205 104.238 389.124 105.033 391.124 105.033C393.125 105.033 395.043 104.238 396.458 102.823C397.872 101.409 398.667 99.4902 398.668 97.4897V93.8743C398.668 93.2075 398.403 92.5679 397.931 92.0963C397.46 91.6248 396.82 91.3599 396.153 91.3599Z"
      fill="#317b8a" />
    <path d="M388.69 98.6057L390.551 100.395L394.134 96.1099" stroke="white" stroke-opacity="0.9" stroke-width="2.31674" stroke-linecap="round"
      stroke-linejoin="round" />
    <g opacity="0.5" filter="url(#filter0_d_6358_49563)">
      <rect x="292" y="141" width="160" height="17" rx="8.5" fill="black" fill-opacity="0.3" shape-rendering="crispEdges" />
    </g>
    <g opacity="0.5" filter="url(#filter1_d_6358_49563)">
      <rect x="292" y="236" width="160" height="16" rx="8" fill="black" fill-opacity="0.3" shape-rendering="crispEdges" />
    </g>
    <g opacity="0.5" filter="url(#filter2_d_6358_49563)">
      <rect x="292" y="257" width="112" height="17" rx="8.5" fill="black" fill-opacity="0.3" shape-rendering="crispEdges" />
    </g>
    <g opacity="0.5" filter="url(#filter3_d_6358_49563)">
      <rect x="292" y="178" width="138" height="16" rx="8" fill="black" fill-opacity="0.3" shape-rendering="crispEdges" />
    </g>
    <g opacity="0.5" filter="url(#filter4_d_6358_49563)">
      <rect x="292" y="199" width="112" height="17" rx="8.5" fill="black" fill-opacity="0.3" shape-rendering="crispEdges" />
    </g>
    <circle cx="492.5" cy="92.5" r="1.5" fill="#317b8a" />
    <circle cx="492.5" cy="97.8999" r="1.5" fill="#317b8a" />
    <circle cx="492.5" cy="103.3" r="1.5" fill="#317b8a" />
  </g>
  <rect x="217.614" y="61.6139" width="300.772" height="257.537" rx="25.0984" stroke="#317b8a" stroke-width="0.772258" />
  <path
    d="M62.0099 113.533C62.0099 112.981 61.5621 112.533 61.0099 112.533L55.4666 112.533C54.9144 112.533 54.4666 112.981 54.4667 113.533C54.4667 114.085 54.9144 114.533 55.4667 114.533L58.1128 114.533C58.291 114.533 58.3802 114.748 58.2542 114.874L53.2367 119.892C53.2304 119.898 53.2243 119.904 53.2182 119.911L52.3415 120.788C52.2155 120.914 52 120.824 52 120.646L52.0001 118C52.0001 117.448 51.5524 117 51.0001 117C50.4478 117 50.0001 117.448 50.0001 118L50 123.543C50 124.096 50.4477 124.543 51 124.543L56.9668 124.543C57.519 124.543 57.9668 124.096 57.9668 123.543C57.9668 122.991 57.519 122.543 56.9668 122.543L53.8971 122.543C53.7189 122.543 53.6297 122.328 53.7557 122.202L58.7732 117.184C58.7794 117.178 58.7856 117.172 58.7917 117.165L59.6685 116.289C59.7945 116.163 60.0099 116.252 60.0099 116.43L60.01 119.5C60.01 120.052 60.4577 120.5 61.01 120.5C61.5623 120.5 62.01 120.052 62.01 119.5L62.0099 113.533Z"
    fill="#317b8a" />
  <path
    d="M79.0459 125L78.29 114.629L75.1523 125H72.6035L69.501 114.523L68.8682 125H66.6973L67.4883 112.396H71.0566L73.9482 122.126L76.9365 112.396H80.373L81.375 125H79.0459ZM84.8379 114.576C84.5918 114.576 84.3662 114.521 84.1611 114.409C83.9561 114.298 83.7949 114.146 83.6777 113.952C83.5605 113.753 83.502 113.533 83.502 113.293C83.502 112.936 83.6279 112.64 83.8799 112.405C84.1377 112.165 84.457 112.045 84.8379 112.045C85.2246 112.045 85.541 112.162 85.7871 112.396C86.0332 112.631 86.1562 112.93 86.1562 113.293C86.1562 113.662 86.0303 113.97 85.7783 114.216C85.5322 114.456 85.2188 114.576 84.8379 114.576ZM83.7217 115.956H85.9541V125H83.7217V115.956ZM92.959 115.789C93.4102 115.789 93.8027 115.924 94.1367 116.193V118.276C93.7559 118.007 93.2754 117.872 92.6953 117.872C92.3145 117.872 91.9775 117.975 91.6846 118.18C91.3975 118.379 91.1719 118.675 91.0078 119.067C90.8438 119.454 90.7588 119.92 90.7529 120.465V125H88.5205V115.956H90.7529V117.767C90.958 117.116 91.251 116.624 91.6318 116.29C92.0127 115.956 92.4551 115.789 92.959 115.789ZM100.148 115.789C100.6 115.789 100.992 115.924 101.326 116.193V118.276C100.945 118.007 100.465 117.872 99.8848 117.872C99.5039 117.872 99.167 117.975 98.874 118.18C98.5869 118.379 98.3613 118.675 98.1973 119.067C98.0332 119.454 97.9482 119.92 97.9424 120.465V125H95.71V115.956H97.9424V117.767C98.1475 117.116 98.4404 116.624 98.8213 116.29C99.2021 115.956 99.6445 115.789 100.148 115.789ZM106.775 125.272C105.879 125.272 105.079 125.07 104.376 124.666C103.679 124.256 103.134 123.688 102.741 122.961C102.349 122.234 102.152 121.411 102.152 120.491C102.152 119.56 102.346 118.73 102.732 118.004C103.125 117.277 103.67 116.709 104.367 116.299C105.07 115.889 105.873 115.684 106.775 115.684C107.689 115.684 108.498 115.889 109.201 116.299C109.904 116.709 110.449 117.277 110.836 118.004C111.229 118.73 111.425 119.56 111.425 120.491C111.425 121.411 111.229 122.234 110.836 122.961C110.443 123.688 109.893 124.256 109.184 124.666C108.48 125.07 107.678 125.272 106.775 125.272ZM106.775 123.33C107.262 123.33 107.684 123.21 108.041 122.97C108.398 122.729 108.671 122.396 108.858 121.968C109.046 121.54 109.14 121.045 109.14 120.482C109.14 119.92 109.046 119.425 108.858 118.997C108.671 118.563 108.398 118.227 108.041 117.986C107.684 117.746 107.262 117.626 106.775 117.626C106.289 117.626 105.87 117.746 105.519 117.986C105.167 118.227 104.897 118.563 104.71 118.997C104.528 119.425 104.438 119.92 104.438 120.482C104.438 121.045 104.531 121.54 104.719 121.968C104.906 122.396 105.176 122.729 105.527 122.97C105.879 123.21 106.295 123.33 106.775 123.33ZM117.814 115.789C118.266 115.789 118.658 115.924 118.992 116.193V118.276C118.611 118.007 118.131 117.872 117.551 117.872C117.17 117.872 116.833 117.975 116.54 118.18C116.253 118.379 116.027 118.675 115.863 119.067C115.699 119.454 115.614 119.92 115.608 120.465V125H113.376V115.956H115.608V117.767C115.813 117.116 116.106 116.624 116.487 116.29C116.868 115.956 117.311 115.789 117.814 115.789ZM128.493 120.957H122.104C122.209 121.742 122.534 122.346 123.079 122.768C123.624 123.189 124.362 123.4 125.294 123.4C125.815 123.4 126.328 123.321 126.832 123.163C127.342 122.999 127.778 122.776 128.142 122.495V124.323C127.778 124.604 127.307 124.833 126.727 125.009C126.152 125.185 125.531 125.272 124.863 125.272C123.85 125.272 122.962 125.076 122.2 124.684C121.444 124.285 120.858 123.72 120.442 122.987C120.026 122.255 119.818 121.399 119.818 120.421C119.818 119.501 120 118.684 120.363 117.969C120.732 117.248 121.263 116.688 121.954 116.29C122.651 115.886 123.475 115.684 124.424 115.684C125.262 115.684 125.985 115.845 126.595 116.167C127.204 116.483 127.673 116.949 128.001 117.564C128.329 118.174 128.493 118.912 128.493 119.779V120.957ZM124.424 117.494C123.773 117.494 123.255 117.679 122.868 118.048C122.487 118.411 122.25 118.912 122.156 119.551H126.48C126.469 118.895 126.278 118.388 125.909 118.03C125.546 117.673 125.051 117.494 124.424 117.494ZM139.154 112.036V125H136.948V123.304C136.69 123.884 136.304 124.358 135.788 124.728C135.272 125.091 134.64 125.272 133.89 125.272C133.099 125.272 132.401 125.07 131.798 124.666C131.194 124.256 130.729 123.69 130.4 122.97C130.078 122.249 129.917 121.432 129.917 120.518C129.917 119.609 130.093 118.789 130.444 118.057C130.796 117.318 131.288 116.738 131.921 116.316C132.554 115.895 133.274 115.684 134.083 115.684C135.372 115.684 136.318 116.255 136.922 117.397V112.036H139.154ZM134.54 123.33C135.026 123.33 135.451 123.207 135.814 122.961C136.184 122.715 136.468 122.375 136.667 121.941C136.866 121.502 136.966 121.004 136.966 120.447C136.966 119.896 136.869 119.407 136.676 118.979C136.482 118.552 136.207 118.218 135.85 117.978C135.492 117.737 135.073 117.617 134.593 117.617C134.112 117.617 133.69 117.737 133.327 117.978C132.97 118.218 132.691 118.558 132.492 118.997C132.299 119.431 132.202 119.938 132.202 120.518C132.202 121.086 132.299 121.584 132.492 122.012C132.686 122.434 132.958 122.759 133.31 122.987C133.661 123.216 134.071 123.33 134.54 123.33ZM151.608 115.684C152.399 115.684 153.091 115.892 153.683 116.308C154.28 116.724 154.74 117.292 155.062 118.013C155.385 118.728 155.546 119.521 155.546 120.395C155.546 121.303 155.37 122.129 155.019 122.873C154.667 123.617 154.178 124.203 153.551 124.631C152.93 125.059 152.232 125.272 151.459 125.272C150.809 125.272 150.226 125.111 149.71 124.789C149.194 124.461 148.799 124.019 148.523 123.462V125H146.317V112.036H148.55V117.582C148.831 117.02 149.232 116.562 149.754 116.211C150.281 115.859 150.899 115.684 151.608 115.684ZM150.835 123.339C151.315 123.339 151.74 123.219 152.109 122.979C152.479 122.732 152.763 122.396 152.962 121.968C153.167 121.534 153.27 121.039 153.27 120.482C153.27 119.932 153.17 119.442 152.971 119.015C152.771 118.581 152.49 118.244 152.127 118.004C151.77 117.764 151.356 117.644 150.888 117.644C150.407 117.644 149.985 117.767 149.622 118.013C149.265 118.259 148.989 118.602 148.796 119.041C148.603 119.475 148.506 119.976 148.506 120.544C148.506 121.089 148.6 121.572 148.787 121.994C148.975 122.416 149.244 122.747 149.596 122.987C149.947 123.222 150.36 123.339 150.835 123.339ZM165.653 115.956L159.993 128.419H157.576L159.686 124.042L156.275 115.956H158.648L160.881 121.687L163.28 115.956H165.653ZM178.222 122.003H173.476L172.544 125H170.145L174.284 112.396H177.466L181.632 125H179.171L178.222 122.003ZM177.65 120.175L175.831 114.418L174.038 120.175H177.65ZM188.399 115.684C189.044 115.684 189.604 115.827 190.078 116.114C190.553 116.401 190.916 116.82 191.168 117.371C191.426 117.916 191.555 118.569 191.555 119.331V125H189.322V119.823C189.322 119.056 189.182 118.493 188.9 118.136C188.625 117.772 188.177 117.591 187.556 117.591C186.899 117.591 186.39 117.816 186.026 118.268C185.663 118.719 185.481 119.343 185.481 120.14V125H183.249V115.956H185.455V117.424C185.713 116.873 186.091 116.445 186.589 116.141C187.087 115.836 187.69 115.684 188.399 115.684ZM199.122 115.684C199.767 115.684 200.326 115.827 200.801 116.114C201.275 116.401 201.639 116.82 201.891 117.371C202.148 117.916 202.277 118.569 202.277 119.331V125H200.045V119.823C200.045 119.056 199.904 118.493 199.623 118.136C199.348 117.772 198.899 117.591 198.278 117.591C197.622 117.591 197.112 117.816 196.749 118.268C196.386 118.719 196.204 119.343 196.204 120.14V125H193.972V115.956H196.178V117.424C196.436 116.873 196.813 116.445 197.312 116.141C197.81 115.836 198.413 115.684 199.122 115.684Z"
    fill="#317b8a" />
  <g opacity="0.94">
    <rect x="32.5" y="63.5" width="222" height="41" rx="20.5" fill="white" fill-opacity="0.9" />
    <g opacity="0.5" filter="url(#filter5_d_6358_49563)">
      <rect x="81" y="73" width="163" height="9" rx="4.5" fill="black" fill-opacity="0.3" shape-rendering="crispEdges" />
    </g>
    <g opacity="0.5" filter="url(#filter6_d_6358_49563)">
      <rect x="81" y="86" width="118" height="9" rx="4.5" fill="black" fill-opacity="0.3" shape-rendering="crispEdges" />
    </g>
    <path fill-rule="evenodd" clip-rule="evenodd"
      d="M64.7831 78.792C66.2585 77.6041 67.9049 77.1521 69.4837 77.2664C71.1679 77.3883 72.7265 78.15 73.8904 79.2564C75.0544 80.363 75.854 81.843 75.982 83.4402C76.1112 85.0521 75.5519 86.7402 74.0773 88.2219C73.9424 88.3582 73.8046 88.4929 73.6638 88.6259C66.9755 94.9832 58.091 95 58.0001 95C57.9547 95 49.0415 94.9997 42.3358 88.625L42.3344 88.6236C42.1959 88.4912 42.0596 88.358 41.9253 88.2239L41.9243 88.2228C40.4489 86.7425 39.8891 85.0547 40.0179 83.4429C40.1454 81.8459 40.9446 80.3657 42.1082 79.2588C43.2717 78.152 44.8301 77.3896 46.5146 77.2672C48.0934 77.1525 49.74 77.6039 51.2164 78.7913C51.3751 76.9599 52.2022 75.5346 53.4028 74.5547C54.6832 73.5097 56.3519 73 57.9997 73C59.6475 73 61.3161 73.5097 62.5966 74.5547C63.7973 75.5348 64.6245 76.9603 64.7831 78.792Z"
      fill="#317b8a" />
    <rect x="32.5" y="63.5" width="222" height="41" rx="20.5" stroke="#317b8a" />
  </g>
  <path
    d="M551.01 70.5329C551.01 69.9807 550.562 69.533 550.01 69.533L544.467 69.533C543.914 69.533 543.467 69.9807 543.467 70.533C543.467 71.0853 543.914 71.533 544.467 71.533L547.113 71.533C547.291 71.533 547.38 71.7484 547.254 71.8744L542.237 76.8919C542.23 76.8982 542.224 76.9045 542.218 76.9109L541.341 77.7876C541.215 77.9136 541 77.8244 541 77.6462L541 75.0001C541 74.4478 540.552 74.0001 540 74.0001C539.448 74.0001 539 74.4478 539 75.0001L539 80.5433C539 81.0956 539.448 81.5433 540 81.5433L545.967 81.5433C546.519 81.5433 546.967 81.0956 546.967 80.5433C546.967 79.991 546.519 79.5433 545.967 79.5433L542.897 79.5433C542.719 79.5433 542.63 79.3279 542.756 79.2019L547.773 74.1844C547.779 74.1781 547.786 74.1718 547.792 74.1654L548.669 73.2885C548.795 73.1625 549.01 73.2518 549.01 73.4299L549.01 76.5001C549.01 77.0524 549.458 77.5001 550.01 77.5001C550.562 77.5001 551.01 77.0523 551.01 76.5001L551.01 70.5329Z"
    fill="#317b8a" />
  <path
    d="M568.046 82L567.29 71.6289L564.152 82H561.604L558.501 71.5234L557.868 82H555.697L556.488 69.3965H560.057L562.948 79.126L565.937 69.3965H569.373L570.375 82H568.046ZM573.838 71.5762C573.592 71.5762 573.366 71.5205 573.161 71.4092C572.956 71.2979 572.795 71.1455 572.678 70.9521C572.561 70.7529 572.502 70.5332 572.502 70.293C572.502 69.9355 572.628 69.6396 572.88 69.4053C573.138 69.165 573.457 69.0449 573.838 69.0449C574.225 69.0449 574.541 69.1621 574.787 69.3965C575.033 69.6309 575.156 69.9297 575.156 70.293C575.156 70.6621 575.03 70.9697 574.778 71.2158C574.532 71.4561 574.219 71.5762 573.838 71.5762ZM572.722 72.9561H574.954V82H572.722V72.9561ZM581.959 72.7891C582.41 72.7891 582.803 72.9238 583.137 73.1934V75.2764C582.756 75.0068 582.275 74.8721 581.695 74.8721C581.314 74.8721 580.978 74.9746 580.685 75.1797C580.397 75.3789 580.172 75.6748 580.008 76.0674C579.844 76.4541 579.759 76.9199 579.753 77.4648V82H577.521V72.9561H579.753V74.7666C579.958 74.1162 580.251 73.624 580.632 73.29C581.013 72.9561 581.455 72.7891 581.959 72.7891ZM589.148 72.7891C589.6 72.7891 589.992 72.9238 590.326 73.1934V75.2764C589.945 75.0068 589.465 74.8721 588.885 74.8721C588.504 74.8721 588.167 74.9746 587.874 75.1797C587.587 75.3789 587.361 75.6748 587.197 76.0674C587.033 76.4541 586.948 76.9199 586.942 77.4648V82H584.71V72.9561H586.942V74.7666C587.147 74.1162 587.44 73.624 587.821 73.29C588.202 72.9561 588.645 72.7891 589.148 72.7891ZM595.775 82.2725C594.879 82.2725 594.079 82.0703 593.376 81.666C592.679 81.2559 592.134 80.6875 591.741 79.9609C591.349 79.2344 591.152 78.4111 591.152 77.4912C591.152 76.5596 591.346 75.7305 591.732 75.0039C592.125 74.2773 592.67 73.709 593.367 73.2988C594.07 72.8887 594.873 72.6836 595.775 72.6836C596.689 72.6836 597.498 72.8887 598.201 73.2988C598.904 73.709 599.449 74.2773 599.836 75.0039C600.229 75.7305 600.425 76.5596 600.425 77.4912C600.425 78.4111 600.229 79.2344 599.836 79.9609C599.443 80.6875 598.893 81.2559 598.184 81.666C597.48 82.0703 596.678 82.2725 595.775 82.2725ZM595.775 80.3301C596.262 80.3301 596.684 80.21 597.041 79.9697C597.398 79.7295 597.671 79.3955 597.858 78.9678C598.046 78.54 598.14 78.0449 598.14 77.4824C598.14 76.9199 598.046 76.4248 597.858 75.9971C597.671 75.5635 597.398 75.2266 597.041 74.9863C596.684 74.7461 596.262 74.626 595.775 74.626C595.289 74.626 594.87 74.7461 594.519 74.9863C594.167 75.2266 593.897 75.5635 593.71 75.9971C593.528 76.4248 593.438 76.9199 593.438 77.4824C593.438 78.0449 593.531 78.54 593.719 78.9678C593.906 79.3955 594.176 79.7295 594.527 79.9697C594.879 80.21 595.295 80.3301 595.775 80.3301ZM606.814 72.7891C607.266 72.7891 607.658 72.9238 607.992 73.1934V75.2764C607.611 75.0068 607.131 74.8721 606.551 74.8721C606.17 74.8721 605.833 74.9746 605.54 75.1797C605.253 75.3789 605.027 75.6748 604.863 76.0674C604.699 76.4541 604.614 76.9199 604.608 77.4648V82H602.376V72.9561H604.608V74.7666C604.813 74.1162 605.106 73.624 605.487 73.29C605.868 72.9561 606.311 72.7891 606.814 72.7891ZM617.493 77.957H611.104C611.209 78.7422 611.534 79.3457 612.079 79.7676C612.624 80.1895 613.362 80.4004 614.294 80.4004C614.815 80.4004 615.328 80.3213 615.832 80.1631C616.342 79.999 616.778 79.7764 617.142 79.4951V81.3232C616.778 81.6045 616.307 81.833 615.727 82.0088C615.152 82.1846 614.531 82.2725 613.863 82.2725C612.85 82.2725 611.962 82.0762 611.2 81.6836C610.444 81.2852 609.858 80.7197 609.442 79.9873C609.026 79.2549 608.818 78.3994 608.818 77.4209C608.818 76.501 609 75.6836 609.363 74.9688C609.732 74.248 610.263 73.6885 610.954 73.29C611.651 72.8857 612.475 72.6836 613.424 72.6836C614.262 72.6836 614.985 72.8447 615.595 73.167C616.204 73.4834 616.673 73.9492 617.001 74.5645C617.329 75.1738 617.493 75.9121 617.493 76.7793V77.957ZM613.424 74.4941C612.773 74.4941 612.255 74.6787 611.868 75.0479C611.487 75.4111 611.25 75.9121 611.156 76.5508H615.48C615.469 75.8945 615.278 75.3877 614.909 75.0303C614.546 74.6729 614.051 74.4941 613.424 74.4941ZM628.154 69.0361V82H625.948V80.3037C625.69 80.8838 625.304 81.3584 624.788 81.7275C624.272 82.0908 623.64 82.2725 622.89 82.2725C622.099 82.2725 621.401 82.0703 620.798 81.666C620.194 81.2559 619.729 80.6904 619.4 79.9697C619.078 79.249 618.917 78.4316 618.917 77.5176C618.917 76.6094 619.093 75.7891 619.444 75.0566C619.796 74.3184 620.288 73.7383 620.921 73.3164C621.554 72.8945 622.274 72.6836 623.083 72.6836C624.372 72.6836 625.318 73.2549 625.922 74.3975V69.0361H628.154ZM623.54 80.3301C624.026 80.3301 624.451 80.207 624.814 79.9609C625.184 79.7148 625.468 79.375 625.667 78.9414C625.866 78.502 625.966 78.0039 625.966 77.4473C625.966 76.8965 625.869 76.4072 625.676 75.9795C625.482 75.5518 625.207 75.2178 624.85 74.9775C624.492 74.7373 624.073 74.6172 623.593 74.6172C623.112 74.6172 622.69 74.7373 622.327 74.9775C621.97 75.2178 621.691 75.5576 621.492 75.9971C621.299 76.4307 621.202 76.9375 621.202 77.5176C621.202 78.0859 621.299 78.584 621.492 79.0117C621.686 79.4336 621.958 79.7588 622.31 79.9873C622.661 80.2158 623.071 80.3301 623.54 80.3301ZM640.608 72.6836C641.399 72.6836 642.091 72.8916 642.683 73.3076C643.28 73.7236 643.74 74.292 644.062 75.0127C644.385 75.7275 644.546 76.5215 644.546 77.3945C644.546 78.3027 644.37 79.1289 644.019 79.873C643.667 80.6172 643.178 81.2031 642.551 81.6309C641.93 82.0586 641.232 82.2725 640.459 82.2725C639.809 82.2725 639.226 82.1113 638.71 81.7891C638.194 81.4609 637.799 81.0186 637.523 80.4619V82H635.317V69.0361H637.55V74.582C637.831 74.0195 638.232 73.5625 638.754 73.2109C639.281 72.8594 639.899 72.6836 640.608 72.6836ZM639.835 80.3389C640.315 80.3389 640.74 80.2188 641.109 79.9785C641.479 79.7324 641.763 79.3955 641.962 78.9678C642.167 78.5342 642.27 78.0391 642.27 77.4824C642.27 76.9316 642.17 76.4424 641.971 76.0146C641.771 75.5811 641.49 75.2441 641.127 75.0039C640.77 74.7637 640.356 74.6436 639.888 74.6436C639.407 74.6436 638.985 74.7666 638.622 75.0127C638.265 75.2588 637.989 75.6016 637.796 76.041C637.603 76.4746 637.506 76.9756 637.506 77.5439C637.506 78.0889 637.6 78.5723 637.787 78.9941C637.975 79.416 638.244 79.7471 638.596 79.9873C638.947 80.2217 639.36 80.3389 639.835 80.3389ZM654.653 72.9561L648.993 85.4189H646.576L648.686 81.042L645.275 72.9561H647.648L649.881 78.6865L652.28 72.9561H654.653ZM668.663 79.8379V82H660.771V69.3965H663.091V79.8379H668.663ZM673.383 72.6836C674.238 72.6836 674.974 72.8447 675.589 73.167C676.204 73.4834 676.673 73.9404 676.995 74.5381C677.317 75.1357 677.479 75.8447 677.479 76.665V82H675.281V80.8662C675.041 81.3115 674.701 81.6572 674.262 81.9033C673.828 82.1494 673.321 82.2725 672.741 82.2725C672.155 82.2725 671.625 82.1465 671.15 81.8945C670.682 81.6367 670.315 81.2852 670.052 80.8398C669.788 80.3887 669.656 79.8848 669.656 79.3281C669.656 78.748 669.794 78.2383 670.069 77.7988C670.345 77.3594 670.729 77.0195 671.221 76.7793C671.719 76.5332 672.287 76.4102 672.926 76.4102C673.459 76.4102 673.925 76.5039 674.323 76.6914C674.728 76.8789 675.047 77.1309 675.281 77.4473V76.8936C675.281 76.1553 675.073 75.5869 674.657 75.1885C674.247 74.7842 673.679 74.582 672.952 74.582C672.407 74.582 671.895 74.6816 671.414 74.8809C670.939 75.0801 670.518 75.3584 670.148 75.7158V73.6943C670.588 73.3838 671.077 73.1377 671.616 72.9561C672.161 72.7744 672.75 72.6836 673.383 72.6836ZM673.541 80.6904C673.893 80.6904 674.2 80.626 674.464 80.4971C674.733 80.3682 674.941 80.1895 675.088 79.9609C675.234 79.7324 675.308 79.4775 675.308 79.1963C675.308 78.9268 675.234 78.6836 675.088 78.4668C674.947 78.25 674.745 78.083 674.481 77.9658C674.218 77.8428 673.91 77.7812 673.559 77.7812C673.014 77.7812 672.586 77.9131 672.275 78.1768C671.965 78.4346 671.81 78.7832 671.81 79.2227C671.81 79.6738 671.962 80.0312 672.267 80.2949C672.571 80.5586 672.996 80.6904 673.541 80.6904ZM688.025 72.9561V82H685.819V80.418C685.567 80.998 685.201 81.4492 684.721 81.7715C684.24 82.0879 683.675 82.2461 683.024 82.2461C682.339 82.2461 681.753 82.1055 681.267 81.8242C680.78 81.5371 680.408 81.127 680.15 80.5938C679.898 80.0605 679.772 79.4189 679.772 78.6689V72.9561H682.005V78.1416C682.005 79.6357 682.608 80.3828 683.815 80.3828C684.454 80.3828 684.943 80.1484 685.283 79.6797C685.623 79.2109 685.793 78.5459 685.793 77.6846V72.9561H688.025ZM694.986 72.7891C695.438 72.7891 695.83 72.9238 696.164 73.1934V75.2764C695.783 75.0068 695.303 74.8721 694.723 74.8721C694.342 74.8721 694.005 74.9746 693.712 75.1797C693.425 75.3789 693.199 75.6748 693.035 76.0674C692.871 76.4541 692.786 76.9199 692.78 77.4648V82H690.548V72.9561H692.78V74.7666C692.985 74.1162 693.278 73.624 693.659 73.29C694.04 72.9561 694.482 72.7891 694.986 72.7891ZM700.787 72.6836C701.643 72.6836 702.378 72.8447 702.993 73.167C703.608 73.4834 704.077 73.9404 704.399 74.5381C704.722 75.1357 704.883 75.8447 704.883 76.665V82H702.686V80.8662C702.445 81.3115 702.105 81.6572 701.666 81.9033C701.232 82.1494 700.726 82.2725 700.146 82.2725C699.56 82.2725 699.029 82.1465 698.555 81.8945C698.086 81.6367 697.72 81.2852 697.456 80.8398C697.192 80.3887 697.061 79.8848 697.061 79.3281C697.061 78.748 697.198 78.2383 697.474 77.7988C697.749 77.3594 698.133 77.0195 698.625 76.7793C699.123 76.5332 699.691 76.4102 700.33 76.4102C700.863 76.4102 701.329 76.5039 701.728 76.6914C702.132 76.8789 702.451 77.1309 702.686 77.4473V76.8936C702.686 76.1553 702.478 75.5869 702.062 75.1885C701.651 74.7842 701.083 74.582 700.356 74.582C699.812 74.582 699.299 74.6816 698.818 74.8809C698.344 75.0801 697.922 75.3584 697.553 75.7158V73.6943C697.992 73.3838 698.481 73.1377 699.021 72.9561C699.565 72.7744 700.154 72.6836 700.787 72.6836ZM700.945 80.6904C701.297 80.6904 701.604 80.626 701.868 80.4971C702.138 80.3682 702.346 80.1895 702.492 79.9609C702.639 79.7324 702.712 79.4775 702.712 79.1963C702.712 78.9268 702.639 78.6836 702.492 78.4668C702.352 78.25 702.149 78.083 701.886 77.9658C701.622 77.8428 701.314 77.7812 700.963 77.7812C700.418 77.7812 699.99 77.9131 699.68 78.1768C699.369 78.4346 699.214 78.7832 699.214 79.2227C699.214 79.6738 699.366 80.0312 699.671 80.2949C699.976 80.5586 700.4 80.6904 700.945 80.6904Z"
    fill="#317b8a" />
  <g opacity="0.94">
    <g clip-path="url(#clip2_6358_49563)">
      <rect x="505" y="21" width="221" height="40" rx="20" fill="white" fill-opacity="0.9" />
      <g opacity="0.5" filter="url(#filter7_d_6358_49563)">
        <rect x="553" y="30" width="163" height="9" rx="4.5" fill="black" fill-opacity="0.3" shape-rendering="crispEdges" />
      </g>
      <g opacity="0.5" filter="url(#filter8_d_6358_49563)">
        <rect x="553" y="43" width="118" height="9" rx="4.5" fill="black" fill-opacity="0.3" shape-rendering="crispEdges" />
      </g>
      <path fill-rule="evenodd" clip-rule="evenodd"
        d="M536.783 35.792C538.259 34.6041 539.905 34.1521 541.484 34.2664C543.168 34.3883 544.726 35.15 545.89 36.2564C547.054 37.363 547.854 38.843 547.982 40.4402C548.111 42.0521 547.552 43.7402 546.077 45.2219C545.942 45.3582 545.805 45.4929 545.664 45.6259C538.976 51.9832 530.091 52 530 52C529.955 52 521.042 51.9997 514.336 45.625L514.334 45.6236C514.196 45.4912 514.06 45.358 513.925 45.2239L513.924 45.2228C512.449 43.7425 511.889 42.0547 512.018 40.4429C512.145 38.8459 512.945 37.3657 514.108 36.2588C515.272 35.152 516.83 34.3896 518.515 34.2672C520.093 34.1525 521.74 34.6039 523.216 35.7913C523.375 33.9599 524.202 32.5346 525.403 31.5547C526.683 30.5097 528.352 30 530 30C531.647 30 533.316 30.5097 534.597 31.5547C535.797 32.5348 536.624 33.9603 536.783 35.792Z"
        fill="#317b8a" />
    </g>
    <rect x="504.5" y="20.5" width="222" height="41" rx="20.5" stroke="#317b8a" />
  </g>
  <path
    d="M560.01 340.533C560.01 339.981 559.562 339.533 559.01 339.533L553.467 339.533C552.914 339.533 552.467 339.981 552.467 340.533C552.467 341.085 552.914 341.533 553.467 341.533L556.113 341.533C556.291 341.533 556.38 341.748 556.254 341.874L551.237 346.892C551.23 346.898 551.224 346.904 551.218 346.911L550.341 347.788C550.215 347.914 550 347.824 550 347.646L550 345C550 344.448 549.552 344 549 344C548.448 344 548 344.448 548 345L548 350.543C548 351.096 548.448 351.543 549 351.543L554.967 351.543C555.519 351.543 555.967 351.096 555.967 350.543C555.967 349.991 555.519 349.543 554.967 349.543L551.897 349.543C551.719 349.543 551.63 349.328 551.756 349.202L556.773 344.184C556.779 344.178 556.786 344.172 556.792 344.165L557.669 343.289C557.795 343.163 558.01 343.252 558.01 343.43L558.01 346.5C558.01 347.052 558.458 347.5 559.01 347.5C559.562 347.5 560.01 347.052 560.01 346.5L560.01 340.533Z"
    fill="#317b8a" />
  <path
    d="M577.046 352L576.29 341.629L573.152 352H570.604L567.501 341.523L566.868 352H564.697L565.488 339.396H569.057L571.948 349.126L574.937 339.396H578.373L579.375 352H577.046ZM582.838 341.576C582.592 341.576 582.366 341.521 582.161 341.409C581.956 341.298 581.795 341.146 581.678 340.952C581.561 340.753 581.502 340.533 581.502 340.293C581.502 339.936 581.628 339.64 581.88 339.405C582.138 339.165 582.457 339.045 582.838 339.045C583.225 339.045 583.541 339.162 583.787 339.396C584.033 339.631 584.156 339.93 584.156 340.293C584.156 340.662 584.03 340.97 583.778 341.216C583.532 341.456 583.219 341.576 582.838 341.576ZM581.722 342.956H583.954V352H581.722V342.956ZM590.959 342.789C591.41 342.789 591.803 342.924 592.137 343.193V345.276C591.756 345.007 591.275 344.872 590.695 344.872C590.314 344.872 589.978 344.975 589.685 345.18C589.397 345.379 589.172 345.675 589.008 346.067C588.844 346.454 588.759 346.92 588.753 347.465V352H586.521V342.956H588.753V344.767C588.958 344.116 589.251 343.624 589.632 343.29C590.013 342.956 590.455 342.789 590.959 342.789ZM598.148 342.789C598.6 342.789 598.992 342.924 599.326 343.193V345.276C598.945 345.007 598.465 344.872 597.885 344.872C597.504 344.872 597.167 344.975 596.874 345.18C596.587 345.379 596.361 345.675 596.197 346.067C596.033 346.454 595.948 346.92 595.942 347.465V352H593.71V342.956H595.942V344.767C596.147 344.116 596.44 343.624 596.821 343.29C597.202 342.956 597.645 342.789 598.148 342.789ZM604.775 352.272C603.879 352.272 603.079 352.07 602.376 351.666C601.679 351.256 601.134 350.688 600.741 349.961C600.349 349.234 600.152 348.411 600.152 347.491C600.152 346.56 600.346 345.73 600.732 345.004C601.125 344.277 601.67 343.709 602.367 343.299C603.07 342.889 603.873 342.684 604.775 342.684C605.689 342.684 606.498 342.889 607.201 343.299C607.904 343.709 608.449 344.277 608.836 345.004C609.229 345.73 609.425 346.56 609.425 347.491C609.425 348.411 609.229 349.234 608.836 349.961C608.443 350.688 607.893 351.256 607.184 351.666C606.48 352.07 605.678 352.272 604.775 352.272ZM604.775 350.33C605.262 350.33 605.684 350.21 606.041 349.97C606.398 349.729 606.671 349.396 606.858 348.968C607.046 348.54 607.14 348.045 607.14 347.482C607.14 346.92 607.046 346.425 606.858 345.997C606.671 345.563 606.398 345.227 606.041 344.986C605.684 344.746 605.262 344.626 604.775 344.626C604.289 344.626 603.87 344.746 603.519 344.986C603.167 345.227 602.897 345.563 602.71 345.997C602.528 346.425 602.438 346.92 602.438 347.482C602.438 348.045 602.531 348.54 602.719 348.968C602.906 349.396 603.176 349.729 603.527 349.97C603.879 350.21 604.295 350.33 604.775 350.33ZM615.814 342.789C616.266 342.789 616.658 342.924 616.992 343.193V345.276C616.611 345.007 616.131 344.872 615.551 344.872C615.17 344.872 614.833 344.975 614.54 345.18C614.253 345.379 614.027 345.675 613.863 346.067C613.699 346.454 613.614 346.92 613.608 347.465V352H611.376V342.956H613.608V344.767C613.813 344.116 614.106 343.624 614.487 343.29C614.868 342.956 615.311 342.789 615.814 342.789ZM626.493 347.957H620.104C620.209 348.742 620.534 349.346 621.079 349.768C621.624 350.189 622.362 350.4 623.294 350.4C623.815 350.4 624.328 350.321 624.832 350.163C625.342 349.999 625.778 349.776 626.142 349.495V351.323C625.778 351.604 625.307 351.833 624.727 352.009C624.152 352.185 623.531 352.272 622.863 352.272C621.85 352.272 620.962 352.076 620.2 351.684C619.444 351.285 618.858 350.72 618.442 349.987C618.026 349.255 617.818 348.399 617.818 347.421C617.818 346.501 618 345.684 618.363 344.969C618.732 344.248 619.263 343.688 619.954 343.29C620.651 342.886 621.475 342.684 622.424 342.684C623.262 342.684 623.985 342.845 624.595 343.167C625.204 343.483 625.673 343.949 626.001 344.564C626.329 345.174 626.493 345.912 626.493 346.779V347.957ZM622.424 344.494C621.773 344.494 621.255 344.679 620.868 345.048C620.487 345.411 620.25 345.912 620.156 346.551H624.48C624.469 345.895 624.278 345.388 623.909 345.03C623.546 344.673 623.051 344.494 622.424 344.494ZM637.154 339.036V352H634.948V350.304C634.69 350.884 634.304 351.358 633.788 351.728C633.272 352.091 632.64 352.272 631.89 352.272C631.099 352.272 630.401 352.07 629.798 351.666C629.194 351.256 628.729 350.69 628.4 349.97C628.078 349.249 627.917 348.432 627.917 347.518C627.917 346.609 628.093 345.789 628.444 345.057C628.796 344.318 629.288 343.738 629.921 343.316C630.554 342.895 631.274 342.684 632.083 342.684C633.372 342.684 634.318 343.255 634.922 344.397V339.036H637.154ZM632.54 350.33C633.026 350.33 633.451 350.207 633.814 349.961C634.184 349.715 634.468 349.375 634.667 348.941C634.866 348.502 634.966 348.004 634.966 347.447C634.966 346.896 634.869 346.407 634.676 345.979C634.482 345.552 634.207 345.218 633.85 344.978C633.492 344.737 633.073 344.617 632.593 344.617C632.112 344.617 631.69 344.737 631.327 344.978C630.97 345.218 630.691 345.558 630.492 345.997C630.299 346.431 630.202 346.938 630.202 347.518C630.202 348.086 630.299 348.584 630.492 349.012C630.686 349.434 630.958 349.759 631.31 349.987C631.661 350.216 632.071 350.33 632.54 350.33ZM649.608 342.684C650.399 342.684 651.091 342.892 651.683 343.308C652.28 343.724 652.74 344.292 653.062 345.013C653.385 345.728 653.546 346.521 653.546 347.395C653.546 348.303 653.37 349.129 653.019 349.873C652.667 350.617 652.178 351.203 651.551 351.631C650.93 352.059 650.232 352.272 649.459 352.272C648.809 352.272 648.226 352.111 647.71 351.789C647.194 351.461 646.799 351.019 646.523 350.462V352H644.317V339.036H646.55V344.582C646.831 344.02 647.232 343.562 647.754 343.211C648.281 342.859 648.899 342.684 649.608 342.684ZM648.835 350.339C649.315 350.339 649.74 350.219 650.109 349.979C650.479 349.732 650.763 349.396 650.962 348.968C651.167 348.534 651.27 348.039 651.27 347.482C651.27 346.932 651.17 346.442 650.971 346.015C650.771 345.581 650.49 345.244 650.127 345.004C649.77 344.764 649.356 344.644 648.888 344.644C648.407 344.644 647.985 344.767 647.622 345.013C647.265 345.259 646.989 345.602 646.796 346.041C646.603 346.475 646.506 346.976 646.506 347.544C646.506 348.089 646.6 348.572 646.787 348.994C646.975 349.416 647.244 349.747 647.596 349.987C647.947 350.222 648.36 350.339 648.835 350.339ZM663.653 342.956L657.993 355.419H655.576L657.686 351.042L654.275 342.956H656.648L658.881 348.687L661.28 342.956H663.653ZM681.759 352L681.003 341.629L677.865 352H675.316L672.214 341.523L671.581 352H669.41L670.201 339.396H673.77L676.661 349.126L679.649 339.396H683.086L684.088 352H681.759ZM687.551 341.576C687.305 341.576 687.079 341.521 686.874 341.409C686.669 341.298 686.508 341.146 686.391 340.952C686.273 340.753 686.215 340.533 686.215 340.293C686.215 339.936 686.341 339.64 686.593 339.405C686.851 339.165 687.17 339.045 687.551 339.045C687.938 339.045 688.254 339.162 688.5 339.396C688.746 339.631 688.869 339.93 688.869 340.293C688.869 340.662 688.743 340.97 688.491 341.216C688.245 341.456 687.932 341.576 687.551 341.576ZM686.435 342.956H688.667V352H686.435V342.956ZM696.885 352L693.457 347.588V352H691.233V339.036H693.457V346.577L696.586 342.956H699.39L695.479 347.008L699.618 352H696.885ZM708.425 347.957H702.035C702.141 348.742 702.466 349.346 703.011 349.768C703.556 350.189 704.294 350.4 705.226 350.4C705.747 350.4 706.26 350.321 706.764 350.163C707.273 349.999 707.71 349.776 708.073 349.495V351.323C707.71 351.604 707.238 351.833 706.658 352.009C706.084 352.185 705.463 352.272 704.795 352.272C703.781 352.272 702.894 352.076 702.132 351.684C701.376 351.285 700.79 350.72 700.374 349.987C699.958 349.255 699.75 348.399 699.75 347.421C699.75 346.501 699.932 345.684 700.295 344.969C700.664 344.248 701.194 343.688 701.886 343.29C702.583 342.886 703.406 342.684 704.355 342.684C705.193 342.684 705.917 342.845 706.526 343.167C707.136 343.483 707.604 343.949 707.933 344.564C708.261 345.174 708.425 345.912 708.425 346.779V347.957ZM704.355 344.494C703.705 344.494 703.187 344.679 702.8 345.048C702.419 345.411 702.182 345.912 702.088 346.551H706.412C706.4 345.895 706.21 345.388 705.841 345.03C705.478 344.673 704.982 344.494 704.355 344.494Z"
    fill="#317b8a" />
  <g opacity="0.94">
    <rect x="513.5" y="290.5" width="222" height="41" rx="20.5" fill="white" fill-opacity="0.9" />
    <g opacity="0.5" filter="url(#filter9_d_6358_49563)">
      <rect x="562" y="300" width="163" height="9" rx="4.5" fill="black" fill-opacity="0.3" shape-rendering="crispEdges" />
    </g>
    <g opacity="0.5" filter="url(#filter10_d_6358_49563)">
      <rect x="562" y="313" width="118" height="9" rx="4.5" fill="black" fill-opacity="0.3" shape-rendering="crispEdges" />
    </g>
    <path fill-rule="evenodd" clip-rule="evenodd"
      d="M545.783 305.792C547.259 304.604 548.905 304.152 550.484 304.266C552.168 304.388 553.726 305.15 554.89 306.256C556.054 307.363 556.854 308.843 556.982 310.44C557.111 312.052 556.552 313.74 555.077 315.222C554.942 315.358 554.805 315.493 554.664 315.626C547.976 321.983 539.091 322 539 322C538.955 322 530.042 322 523.336 315.625L523.334 315.624C523.196 315.491 523.06 315.358 522.925 315.224L522.924 315.223C521.449 313.742 520.889 312.055 521.018 310.443C521.145 308.846 521.945 307.366 523.108 306.259C524.272 305.152 525.83 304.39 527.515 304.267C529.093 304.153 530.74 304.604 532.216 305.791C532.375 303.96 533.202 302.535 534.403 301.555C535.683 300.51 537.352 300 539 300C540.647 300 542.316 300.51 543.597 301.555C544.797 302.535 545.624 303.96 545.783 305.792Z"
      fill="#317b8a" />
    <rect x="513.5" y="290.5" width="222" height="41" rx="20.5" stroke="#317b8a" />
  </g>
  <path
    d="M542.01 208.533C542.01 207.981 541.562 207.533 541.01 207.533L535.467 207.533C534.914 207.533 534.467 207.981 534.467 208.533C534.467 209.085 534.914 209.533 535.467 209.533L538.113 209.533C538.291 209.533 538.38 209.748 538.254 209.874L533.237 214.892C533.23 214.898 533.224 214.904 533.218 214.911L532.341 215.788C532.215 215.914 532 215.824 532 215.646L532 213C532 212.448 531.552 212 531 212C530.448 212 530 212.448 530 213L530 218.543C530 219.096 530.448 219.543 531 219.543L536.967 219.543C537.519 219.543 537.967 219.096 537.967 218.543C537.967 217.991 537.519 217.543 536.967 217.543L533.897 217.543C533.719 217.543 533.63 217.328 533.756 217.202L538.773 212.184C538.779 212.178 538.786 212.172 538.792 212.165L539.669 211.289C539.795 211.163 540.01 211.252 540.01 211.43L540.01 214.5C540.01 215.052 540.458 215.5 541.01 215.5C541.562 215.5 542.01 215.052 542.01 214.5L542.01 208.533Z"
    fill="#317b8a" />
  <path
    d="M560.046 220L559.29 209.629L556.152 220H553.604L550.501 209.523L549.868 220H547.697L548.488 207.396H552.057L554.948 217.126L557.937 207.396H561.373L562.375 220H560.046ZM565.838 209.576C565.592 209.576 565.366 209.521 565.161 209.409C564.956 209.298 564.795 209.146 564.678 208.952C564.561 208.753 564.502 208.533 564.502 208.293C564.502 207.936 564.628 207.64 564.88 207.405C565.138 207.165 565.457 207.045 565.838 207.045C566.225 207.045 566.541 207.162 566.787 207.396C567.033 207.631 567.156 207.93 567.156 208.293C567.156 208.662 567.03 208.97 566.778 209.216C566.532 209.456 566.219 209.576 565.838 209.576ZM564.722 210.956H566.954V220H564.722V210.956ZM573.959 210.789C574.41 210.789 574.803 210.924 575.137 211.193V213.276C574.756 213.007 574.275 212.872 573.695 212.872C573.314 212.872 572.978 212.975 572.685 213.18C572.397 213.379 572.172 213.675 572.008 214.067C571.844 214.454 571.759 214.92 571.753 215.465V220H569.521V210.956H571.753V212.767C571.958 212.116 572.251 211.624 572.632 211.29C573.013 210.956 573.455 210.789 573.959 210.789ZM581.148 210.789C581.6 210.789 581.992 210.924 582.326 211.193V213.276C581.945 213.007 581.465 212.872 580.885 212.872C580.504 212.872 580.167 212.975 579.874 213.18C579.587 213.379 579.361 213.675 579.197 214.067C579.033 214.454 578.948 214.92 578.942 215.465V220H576.71V210.956H578.942V212.767C579.147 212.116 579.44 211.624 579.821 211.29C580.202 210.956 580.645 210.789 581.148 210.789ZM587.775 220.272C586.879 220.272 586.079 220.07 585.376 219.666C584.679 219.256 584.134 218.688 583.741 217.961C583.349 217.234 583.152 216.411 583.152 215.491C583.152 214.56 583.346 213.73 583.732 213.004C584.125 212.277 584.67 211.709 585.367 211.299C586.07 210.889 586.873 210.684 587.775 210.684C588.689 210.684 589.498 210.889 590.201 211.299C590.904 211.709 591.449 212.277 591.836 213.004C592.229 213.73 592.425 214.56 592.425 215.491C592.425 216.411 592.229 217.234 591.836 217.961C591.443 218.688 590.893 219.256 590.184 219.666C589.48 220.07 588.678 220.272 587.775 220.272ZM587.775 218.33C588.262 218.33 588.684 218.21 589.041 217.97C589.398 217.729 589.671 217.396 589.858 216.968C590.046 216.54 590.14 216.045 590.14 215.482C590.14 214.92 590.046 214.425 589.858 213.997C589.671 213.563 589.398 213.227 589.041 212.986C588.684 212.746 588.262 212.626 587.775 212.626C587.289 212.626 586.87 212.746 586.519 212.986C586.167 213.227 585.897 213.563 585.71 213.997C585.528 214.425 585.438 214.92 585.438 215.482C585.438 216.045 585.531 216.54 585.719 216.968C585.906 217.396 586.176 217.729 586.527 217.97C586.879 218.21 587.295 218.33 587.775 218.33ZM598.814 210.789C599.266 210.789 599.658 210.924 599.992 211.193V213.276C599.611 213.007 599.131 212.872 598.551 212.872C598.17 212.872 597.833 212.975 597.54 213.18C597.253 213.379 597.027 213.675 596.863 214.067C596.699 214.454 596.614 214.92 596.608 215.465V220H594.376V210.956H596.608V212.767C596.813 212.116 597.106 211.624 597.487 211.29C597.868 210.956 598.311 210.789 598.814 210.789ZM609.493 215.957H603.104C603.209 216.742 603.534 217.346 604.079 217.768C604.624 218.189 605.362 218.4 606.294 218.4C606.815 218.4 607.328 218.321 607.832 218.163C608.342 217.999 608.778 217.776 609.142 217.495V219.323C608.778 219.604 608.307 219.833 607.727 220.009C607.152 220.185 606.531 220.272 605.863 220.272C604.85 220.272 603.962 220.076 603.2 219.684C602.444 219.285 601.858 218.72 601.442 217.987C601.026 217.255 600.818 216.399 600.818 215.421C600.818 214.501 601 213.684 601.363 212.969C601.732 212.248 602.263 211.688 602.954 211.29C603.651 210.886 604.475 210.684 605.424 210.684C606.262 210.684 606.985 210.845 607.595 211.167C608.204 211.483 608.673 211.949 609.001 212.564C609.329 213.174 609.493 213.912 609.493 214.779V215.957ZM605.424 212.494C604.773 212.494 604.255 212.679 603.868 213.048C603.487 213.411 603.25 213.912 603.156 214.551H607.48C607.469 213.895 607.278 213.388 606.909 213.03C606.546 212.673 606.051 212.494 605.424 212.494ZM620.154 207.036V220H617.948V218.304C617.69 218.884 617.304 219.358 616.788 219.728C616.272 220.091 615.64 220.272 614.89 220.272C614.099 220.272 613.401 220.07 612.798 219.666C612.194 219.256 611.729 218.69 611.4 217.97C611.078 217.249 610.917 216.432 610.917 215.518C610.917 214.609 611.093 213.789 611.444 213.057C611.796 212.318 612.288 211.738 612.921 211.316C613.554 210.895 614.274 210.684 615.083 210.684C616.372 210.684 617.318 211.255 617.922 212.397V207.036H620.154ZM615.54 218.33C616.026 218.33 616.451 218.207 616.814 217.961C617.184 217.715 617.468 217.375 617.667 216.941C617.866 216.502 617.966 216.004 617.966 215.447C617.966 214.896 617.869 214.407 617.676 213.979C617.482 213.552 617.207 213.218 616.85 212.978C616.492 212.737 616.073 212.617 615.593 212.617C615.112 212.617 614.69 212.737 614.327 212.978C613.97 213.218 613.691 213.558 613.492 213.997C613.299 214.431 613.202 214.938 613.202 215.518C613.202 216.086 613.299 216.584 613.492 217.012C613.686 217.434 613.958 217.759 614.31 217.987C614.661 218.216 615.071 218.33 615.54 218.33ZM632.608 210.684C633.399 210.684 634.091 210.892 634.683 211.308C635.28 211.724 635.74 212.292 636.062 213.013C636.385 213.728 636.546 214.521 636.546 215.395C636.546 216.303 636.37 217.129 636.019 217.873C635.667 218.617 635.178 219.203 634.551 219.631C633.93 220.059 633.232 220.272 632.459 220.272C631.809 220.272 631.226 220.111 630.71 219.789C630.194 219.461 629.799 219.019 629.523 218.462V220H627.317V207.036H629.55V212.582C629.831 212.02 630.232 211.562 630.754 211.211C631.281 210.859 631.899 210.684 632.608 210.684ZM631.835 218.339C632.315 218.339 632.74 218.219 633.109 217.979C633.479 217.732 633.763 217.396 633.962 216.968C634.167 216.534 634.27 216.039 634.27 215.482C634.27 214.932 634.17 214.442 633.971 214.015C633.771 213.581 633.49 213.244 633.127 213.004C632.77 212.764 632.356 212.644 631.888 212.644C631.407 212.644 630.985 212.767 630.622 213.013C630.265 213.259 629.989 213.602 629.796 214.041C629.603 214.475 629.506 214.976 629.506 215.544C629.506 216.089 629.6 216.572 629.787 216.994C629.975 217.416 630.244 217.747 630.596 217.987C630.947 218.222 631.36 218.339 631.835 218.339ZM646.653 210.956L640.993 223.419H638.576L640.686 219.042L637.275 210.956H639.648L641.881 216.687L644.28 210.956H646.653ZM656.356 220.36C655.601 220.36 654.859 220.246 654.133 220.018C653.412 219.789 652.738 219.44 652.111 218.972V216.687C652.686 217.173 653.315 217.557 654.001 217.838C654.687 218.113 655.398 218.251 656.137 218.251C656.852 218.251 657.388 218.11 657.745 217.829C658.108 217.548 658.29 217.144 658.29 216.616C658.29 216.335 658.234 216.098 658.123 215.904C658.012 215.705 657.821 215.518 657.552 215.342C657.282 215.166 656.896 214.973 656.392 214.762L655.091 214.261C654.089 213.88 653.348 213.402 652.867 212.828C652.393 212.248 652.155 211.542 652.155 210.71C652.155 209.972 652.328 209.327 652.674 208.776C653.025 208.22 653.529 207.789 654.186 207.484C654.842 207.18 655.618 207.027 656.515 207.027C657.288 207.027 657.994 207.139 658.633 207.361C659.271 207.584 659.819 207.868 660.276 208.214V210.499C659.737 210.054 659.172 209.714 658.58 209.479C657.994 209.239 657.361 209.119 656.682 209.119C655.99 209.119 655.469 209.245 655.117 209.497C654.766 209.749 654.59 210.112 654.59 210.587C654.59 210.997 654.728 211.331 655.003 211.589C655.284 211.847 655.738 212.107 656.365 212.371L657.648 212.863C658.404 213.156 659.014 213.476 659.477 213.821C659.945 214.167 660.288 214.56 660.505 214.999C660.722 215.438 660.83 215.945 660.83 216.52C660.83 217.287 660.648 217.961 660.285 218.541C659.928 219.121 659.412 219.569 658.738 219.886C658.064 220.202 657.271 220.36 656.356 220.36ZM668.38 212.793H666.007V220H663.774V212.793H661.63V210.956H663.774V208.618L666.007 208.038V210.956H668.38V212.793ZM677.784 215.957H671.395C671.5 216.742 671.825 217.346 672.37 217.768C672.915 218.189 673.653 218.4 674.585 218.4C675.106 218.4 675.619 218.321 676.123 218.163C676.633 217.999 677.069 217.776 677.433 217.495V219.323C677.069 219.604 676.598 219.833 676.018 220.009C675.443 220.185 674.822 220.272 674.154 220.272C673.141 220.272 672.253 220.076 671.491 219.684C670.735 219.285 670.149 218.72 669.733 217.987C669.317 217.255 669.109 216.399 669.109 215.421C669.109 214.501 669.291 213.684 669.654 212.969C670.023 212.248 670.554 211.688 671.245 211.29C671.942 210.886 672.766 210.684 673.715 210.684C674.553 210.684 675.276 210.845 675.886 211.167C676.495 211.483 676.964 211.949 677.292 212.564C677.62 213.174 677.784 213.912 677.784 214.779V215.957ZM673.715 212.494C673.064 212.494 672.546 212.679 672.159 213.048C671.778 213.411 671.541 213.912 671.447 214.551H675.771C675.76 213.895 675.569 213.388 675.2 213.03C674.837 212.673 674.342 212.494 673.715 212.494ZM685.062 210.684C685.835 210.684 686.518 210.889 687.109 211.299C687.707 211.703 688.17 212.263 688.498 212.978C688.832 213.692 688.999 214.498 688.999 215.395C688.999 216.35 688.814 217.199 688.445 217.943C688.082 218.682 687.587 219.256 686.96 219.666C686.333 220.07 685.642 220.272 684.886 220.272C684.253 220.272 683.685 220.132 683.181 219.851C682.677 219.563 682.284 219.18 682.003 218.699V223.419H679.771V210.956H681.977V212.67C682.246 212.096 682.642 211.621 683.163 211.246C683.69 210.871 684.323 210.684 685.062 210.684ZM684.288 218.339C684.769 218.339 685.193 218.219 685.562 217.979C685.932 217.732 686.216 217.393 686.415 216.959C686.62 216.525 686.723 216.033 686.723 215.482C686.723 214.932 686.623 214.442 686.424 214.015C686.23 213.581 685.952 213.244 685.589 213.004C685.231 212.764 684.815 212.644 684.341 212.644C683.86 212.644 683.438 212.767 683.075 213.013C682.718 213.259 682.442 213.602 682.249 214.041C682.056 214.475 681.959 214.976 681.959 215.544C681.959 216.089 682.053 216.572 682.24 216.994C682.428 217.416 682.697 217.747 683.049 217.987C683.4 218.222 683.813 218.339 684.288 218.339ZM696.118 210.684C696.763 210.684 697.322 210.827 697.797 211.114C698.271 211.401 698.635 211.82 698.887 212.371C699.145 212.916 699.273 213.569 699.273 214.331V220H697.041V214.823C697.041 214.056 696.9 213.493 696.619 213.136C696.344 212.772 695.896 212.591 695.274 212.591C694.618 212.591 694.108 212.816 693.745 213.268C693.382 213.719 693.2 214.343 693.2 215.14V220H690.968V207.036H693.2V212.318C693.464 211.797 693.842 211.396 694.334 211.114C694.832 210.827 695.427 210.684 696.118 210.684Z"
    fill="#317b8a" />
  <g opacity="0.94">
    <rect x="490.5" y="158.5" width="190" height="41" rx="20.5" fill="white" fill-opacity="0.9" />
    <g opacity="0.5" filter="url(#filter11_d_6358_49563)">
      <rect x="539" y="168" width="126" height="9" rx="4.5" fill="black" fill-opacity="0.3" shape-rendering="crispEdges" />
    </g>
    <g opacity="0.5" filter="url(#filter12_d_6358_49563)">
      <rect x="539" y="181" width="91.7368" height="9" rx="4.5" fill="black" fill-opacity="0.3" shape-rendering="crispEdges" />
    </g>
    <path fill-rule="evenodd" clip-rule="evenodd"
      d="M522.783 173.792C524.259 172.604 525.905 172.152 527.484 172.266C529.168 172.388 530.726 173.15 531.89 174.256C533.054 175.363 533.854 176.843 533.982 178.44C534.111 180.052 533.552 181.74 532.077 183.222C531.942 183.358 531.805 183.493 531.664 183.626C524.976 189.983 516.091 190 516 190C515.955 190 507.042 190 500.336 183.625L500.334 183.624C500.196 183.491 500.06 183.358 499.925 183.224L499.924 183.223C498.449 181.742 497.889 180.055 498.018 178.443C498.145 176.846 498.945 175.366 500.108 174.259C501.272 173.152 502.83 172.39 504.515 172.267C506.093 172.153 507.74 172.604 509.216 173.791C509.375 171.96 510.202 170.535 511.403 169.555C512.683 168.51 514.352 168 516 168C517.647 168 519.316 168.51 520.597 169.555C521.797 170.535 522.624 171.96 522.783 173.792Z"
      fill="#317b8a" />
    <rect x="490.5" y="158.5" width="190" height="41" rx="20.5" stroke="#317b8a" />
  </g>
  <path
    d="M97.0099 323.533C97.0099 322.981 96.5621 322.533 96.0099 322.533L90.4666 322.533C89.9144 322.533 89.4666 322.981 89.4667 323.533C89.4667 324.085 89.9144 324.533 90.4667 324.533L93.1128 324.533C93.291 324.533 93.3802 324.748 93.2542 324.874L88.2367 329.892C88.2304 329.898 88.2243 329.904 88.2182 329.911L87.3415 330.788C87.2155 330.914 87 330.824 87 330.646L87.0001 328C87.0001 327.448 86.5524 327 86.0001 327C85.4478 327 85.0001 327.448 85.0001 328L85 333.543C85 334.096 85.4477 334.543 86 334.543L91.9668 334.543C92.519 334.543 92.9668 334.096 92.9668 333.543C92.9668 332.991 92.519 332.543 91.9668 332.543L88.8971 332.543C88.7189 332.543 88.6297 332.328 88.7557 332.202L93.7732 327.184C93.7794 327.178 93.7856 327.172 93.7917 327.165L94.6685 326.289C94.7945 326.163 95.0099 326.252 95.0099 326.43L95.01 329.5C95.01 330.052 95.4577 330.5 96.01 330.5C96.5623 330.5 97.01 330.052 97.01 329.5L97.0099 323.533Z"
    fill="#317b8a" />
  <path
    d="M114.046 335L113.29 324.629L110.152 335H107.604L104.501 324.523L103.868 335H101.697L102.488 322.396H106.057L108.948 332.126L111.937 322.396H115.373L116.375 335H114.046ZM119.838 324.576C119.592 324.576 119.366 324.521 119.161 324.409C118.956 324.298 118.795 324.146 118.678 323.952C118.561 323.753 118.502 323.533 118.502 323.293C118.502 322.936 118.628 322.64 118.88 322.405C119.138 322.165 119.457 322.045 119.838 322.045C120.225 322.045 120.541 322.162 120.787 322.396C121.033 322.631 121.156 322.93 121.156 323.293C121.156 323.662 121.03 323.97 120.778 324.216C120.532 324.456 120.219 324.576 119.838 324.576ZM118.722 325.956H120.954V335H118.722V325.956ZM127.959 325.789C128.41 325.789 128.803 325.924 129.137 326.193V328.276C128.756 328.007 128.275 327.872 127.695 327.872C127.314 327.872 126.978 327.975 126.685 328.18C126.397 328.379 126.172 328.675 126.008 329.067C125.844 329.454 125.759 329.92 125.753 330.465V335H123.521V325.956H125.753V327.767C125.958 327.116 126.251 326.624 126.632 326.29C127.013 325.956 127.455 325.789 127.959 325.789ZM135.148 325.789C135.6 325.789 135.992 325.924 136.326 326.193V328.276C135.945 328.007 135.465 327.872 134.885 327.872C134.504 327.872 134.167 327.975 133.874 328.18C133.587 328.379 133.361 328.675 133.197 329.067C133.033 329.454 132.948 329.92 132.942 330.465V335H130.71V325.956H132.942V327.767C133.147 327.116 133.44 326.624 133.821 326.29C134.202 325.956 134.645 325.789 135.148 325.789ZM141.775 335.272C140.879 335.272 140.079 335.07 139.376 334.666C138.679 334.256 138.134 333.688 137.741 332.961C137.349 332.234 137.152 331.411 137.152 330.491C137.152 329.56 137.346 328.73 137.732 328.004C138.125 327.277 138.67 326.709 139.367 326.299C140.07 325.889 140.873 325.684 141.775 325.684C142.689 325.684 143.498 325.889 144.201 326.299C144.904 326.709 145.449 327.277 145.836 328.004C146.229 328.73 146.425 329.56 146.425 330.491C146.425 331.411 146.229 332.234 145.836 332.961C145.443 333.688 144.893 334.256 144.184 334.666C143.48 335.07 142.678 335.272 141.775 335.272ZM141.775 333.33C142.262 333.33 142.684 333.21 143.041 332.97C143.398 332.729 143.671 332.396 143.858 331.968C144.046 331.54 144.14 331.045 144.14 330.482C144.14 329.92 144.046 329.425 143.858 328.997C143.671 328.563 143.398 328.227 143.041 327.986C142.684 327.746 142.262 327.626 141.775 327.626C141.289 327.626 140.87 327.746 140.519 327.986C140.167 328.227 139.897 328.563 139.71 328.997C139.528 329.425 139.438 329.92 139.438 330.482C139.438 331.045 139.531 331.54 139.719 331.968C139.906 332.396 140.176 332.729 140.527 332.97C140.879 333.21 141.295 333.33 141.775 333.33ZM152.814 325.789C153.266 325.789 153.658 325.924 153.992 326.193V328.276C153.611 328.007 153.131 327.872 152.551 327.872C152.17 327.872 151.833 327.975 151.54 328.18C151.253 328.379 151.027 328.675 150.863 329.067C150.699 329.454 150.614 329.92 150.608 330.465V335H148.376V325.956H150.608V327.767C150.813 327.116 151.106 326.624 151.487 326.29C151.868 325.956 152.311 325.789 152.814 325.789ZM163.493 330.957H157.104C157.209 331.742 157.534 332.346 158.079 332.768C158.624 333.189 159.362 333.4 160.294 333.4C160.815 333.4 161.328 333.321 161.832 333.163C162.342 332.999 162.778 332.776 163.142 332.495V334.323C162.778 334.604 162.307 334.833 161.727 335.009C161.152 335.185 160.531 335.272 159.863 335.272C158.85 335.272 157.962 335.076 157.2 334.684C156.444 334.285 155.858 333.72 155.442 332.987C155.026 332.255 154.818 331.399 154.818 330.421C154.818 329.501 155 328.684 155.363 327.969C155.732 327.248 156.263 326.688 156.954 326.29C157.651 325.886 158.475 325.684 159.424 325.684C160.262 325.684 160.985 325.845 161.595 326.167C162.204 326.483 162.673 326.949 163.001 327.564C163.329 328.174 163.493 328.912 163.493 329.779V330.957ZM159.424 327.494C158.773 327.494 158.255 327.679 157.868 328.048C157.487 328.411 157.25 328.912 157.156 329.551H161.48C161.469 328.895 161.278 328.388 160.909 328.03C160.546 327.673 160.051 327.494 159.424 327.494ZM174.154 322.036V335H171.948V333.304C171.69 333.884 171.304 334.358 170.788 334.728C170.272 335.091 169.64 335.272 168.89 335.272C168.099 335.272 167.401 335.07 166.798 334.666C166.194 334.256 165.729 333.69 165.4 332.97C165.078 332.249 164.917 331.432 164.917 330.518C164.917 329.609 165.093 328.789 165.444 328.057C165.796 327.318 166.288 326.738 166.921 326.316C167.554 325.895 168.274 325.684 169.083 325.684C170.372 325.684 171.318 326.255 171.922 327.397V322.036H174.154ZM169.54 333.33C170.026 333.33 170.451 333.207 170.814 332.961C171.184 332.715 171.468 332.375 171.667 331.941C171.866 331.502 171.966 331.004 171.966 330.447C171.966 329.896 171.869 329.407 171.676 328.979C171.482 328.552 171.207 328.218 170.85 327.978C170.492 327.737 170.073 327.617 169.593 327.617C169.112 327.617 168.69 327.737 168.327 327.978C167.97 328.218 167.691 328.558 167.492 328.997C167.299 329.431 167.202 329.938 167.202 330.518C167.202 331.086 167.299 331.584 167.492 332.012C167.686 332.434 167.958 332.759 168.31 332.987C168.661 333.216 169.071 333.33 169.54 333.33ZM186.608 325.684C187.399 325.684 188.091 325.892 188.683 326.308C189.28 326.724 189.74 327.292 190.062 328.013C190.385 328.728 190.546 329.521 190.546 330.395C190.546 331.303 190.37 332.129 190.019 332.873C189.667 333.617 189.178 334.203 188.551 334.631C187.93 335.059 187.232 335.272 186.459 335.272C185.809 335.272 185.226 335.111 184.71 334.789C184.194 334.461 183.799 334.019 183.523 333.462V335H181.317V322.036H183.55V327.582C183.831 327.02 184.232 326.562 184.754 326.211C185.281 325.859 185.899 325.684 186.608 325.684ZM185.835 333.339C186.315 333.339 186.74 333.219 187.109 332.979C187.479 332.732 187.763 332.396 187.962 331.968C188.167 331.534 188.27 331.039 188.27 330.482C188.27 329.932 188.17 329.442 187.971 329.015C187.771 328.581 187.49 328.244 187.127 328.004C186.77 327.764 186.356 327.644 185.888 327.644C185.407 327.644 184.985 327.767 184.622 328.013C184.265 328.259 183.989 328.602 183.796 329.041C183.603 329.475 183.506 329.976 183.506 330.544C183.506 331.089 183.6 331.572 183.787 331.994C183.975 332.416 184.244 332.747 184.596 332.987C184.947 333.222 185.36 333.339 185.835 333.339ZM200.653 325.956L194.993 338.419H192.576L194.686 334.042L191.275 325.956H193.648L195.881 331.687L198.28 325.956H200.653ZM207.526 335.36C207.011 335.36 206.521 335.293 206.059 335.158C205.602 335.023 205.241 334.856 204.978 334.657V332.442C205.265 332.665 205.575 332.841 205.909 332.97C206.243 333.099 206.65 333.163 207.131 333.163C207.723 333.163 208.186 332.979 208.52 332.609C208.859 332.24 209.029 331.689 209.029 330.957V322.396H211.35V331.221C211.35 332.135 211.188 332.902 210.866 333.523C210.55 334.139 210.104 334.599 209.53 334.903C208.962 335.208 208.294 335.36 207.526 335.36ZM217.924 335.272C217.027 335.272 216.228 335.07 215.524 334.666C214.827 334.256 214.282 333.688 213.89 332.961C213.497 332.234 213.301 331.411 213.301 330.491C213.301 329.56 213.494 328.73 213.881 328.004C214.273 327.277 214.818 326.709 215.516 326.299C216.219 325.889 217.021 325.684 217.924 325.684C218.838 325.684 219.646 325.889 220.35 326.299C221.053 326.709 221.598 327.277 221.984 328.004C222.377 328.73 222.573 329.56 222.573 330.491C222.573 331.411 222.377 332.234 221.984 332.961C221.592 333.688 221.041 334.256 220.332 334.666C219.629 335.07 218.826 335.272 217.924 335.272ZM217.924 333.33C218.41 333.33 218.832 333.21 219.189 332.97C219.547 332.729 219.819 332.396 220.007 331.968C220.194 331.54 220.288 331.045 220.288 330.482C220.288 329.92 220.194 329.425 220.007 328.997C219.819 328.563 219.547 328.227 219.189 327.986C218.832 327.746 218.41 327.626 217.924 327.626C217.438 327.626 217.019 327.746 216.667 327.986C216.315 328.227 216.046 328.563 215.858 328.997C215.677 329.425 215.586 329.92 215.586 330.482C215.586 331.045 215.68 331.54 215.867 331.968C216.055 332.396 216.324 332.729 216.676 332.97C217.027 333.21 217.443 333.33 217.924 333.33ZM229.675 325.684C230.319 325.684 230.879 325.827 231.354 326.114C231.828 326.401 232.191 326.82 232.443 327.371C232.701 327.916 232.83 328.569 232.83 329.331V335H230.598V329.823C230.598 329.056 230.457 328.493 230.176 328.136C229.9 327.772 229.452 327.591 228.831 327.591C228.175 327.591 227.665 327.816 227.302 328.268C226.938 328.719 226.757 329.343 226.757 330.14V335H224.524V322.036H226.757V327.318C227.021 326.797 227.398 326.396 227.891 326.114C228.389 325.827 228.983 325.684 229.675 325.684ZM240.397 325.684C241.042 325.684 241.602 325.827 242.076 326.114C242.551 326.401 242.914 326.82 243.166 327.371C243.424 327.916 243.553 328.569 243.553 329.331V335H241.32V329.823C241.32 329.056 241.18 328.493 240.898 328.136C240.623 327.772 240.175 327.591 239.554 327.591C238.897 327.591 238.388 327.816 238.024 328.268C237.661 328.719 237.479 329.343 237.479 330.14V335H235.247V325.956H237.453V327.424C237.711 326.873 238.089 326.445 238.587 326.141C239.085 325.836 239.688 325.684 240.397 325.684Z"
    fill="#317b8a" />
  <g opacity="0.94">
    <rect x="40.5" y="273.5" width="242" height="41" rx="20.5" fill="white" fill-opacity="0.9" />
    <g opacity="0.5" filter="url(#filter13_d_6358_49563)">
      <rect x="89" y="283" width="178" height="9" rx="4.5" fill="black" fill-opacity="0.3" shape-rendering="crispEdges" />
    </g>
    <g opacity="0.5" filter="url(#filter14_d_6358_49563)">
      <rect x="89" y="296" width="130" height="9" rx="4.5" fill="black" fill-opacity="0.3" shape-rendering="crispEdges" />
    </g>
    <path fill-rule="evenodd" clip-rule="evenodd"
      d="M72.7831 288.792C74.2585 287.604 75.9049 287.152 77.4837 287.266C79.1679 287.388 80.7265 288.15 81.8904 289.256C83.0544 290.363 83.854 291.843 83.982 293.44C84.1112 295.052 83.5519 296.74 82.0773 298.222C81.9424 298.358 81.8046 298.493 81.6638 298.626C74.9755 304.983 66.091 305 66.0001 305C65.9547 305 57.0415 305 50.3358 298.625L50.3344 298.624C50.1959 298.491 50.0596 298.358 49.9253 298.224L49.9243 298.223C48.4489 296.742 47.8891 295.055 48.0179 293.443C48.1454 291.846 48.9446 290.366 50.1082 289.259C51.2717 288.152 52.8301 287.39 54.5146 287.267C56.0934 287.153 57.74 287.604 59.2164 288.791C59.3751 286.96 60.2022 285.535 61.4028 284.555C62.6832 283.51 64.3519 283 65.9997 283C67.6475 283 69.3161 283.51 70.5966 284.555C71.7973 285.535 72.6245 286.96 72.7831 288.792Z"
      fill="#317b8a" />
    <rect x="40.5" y="273.5" width="242" height="41" rx="20.5" stroke="#317b8a" />
  </g>
  <path d="M154 267V267C154 240.49 175.49 219 202 219H217" stroke="#317b8a" stroke-linecap="round" />
  <path d="M640 290V290C640 262.386 617.614 240 590 240L518.5 240" stroke="#317b8a" stroke-linecap="round" />
  <path d="M582 158V158C582 138.67 566.33 123 547 123H518.5" stroke="#317b8a" stroke-linecap="round" />
  <path d="M582 88V88C582 107.33 566.33 123 547 123H518.5" stroke="#317b8a" stroke-linecap="round" />
  <path d="M171 138V138C171 157.33 186.67 173 206 173H217" stroke="#317b8a" stroke-linecap="round" />
  <defs>
    <filter id="filter0_d_6358_49563" x="288.84" y="137.84" width="166.321" height="23.3206" filterUnits="userSpaceOnUse" color-interpolation-filters="sRGB">
      <feFlood flood-opacity="0" result="BackgroundImageFix" />
      <feColorMatrix in="SourceAlpha" type="matrix" values="0 0 0 0 0 0 0 0 0 0 0 0 0 0 0 0 0 0 127 0" result="hardAlpha" />
      <feOffset />
      <feGaussianBlur stdDeviation="1.58015" />
      <feComposite in2="hardAlpha" operator="out" />
      <feColorMatrix type="matrix" values="0 0 0 0 0 0 0 0 0 0 0 0 0 0 0 0 0 0 0.05 0" />
      <feBlend mode="normal" in2="BackgroundImageFix" result="effect1_dropShadow_6358_49563" />
      <feBlend mode="normal" in="SourceGraphic" in2="effect1_dropShadow_6358_49563" result="shape" />
    </filter>
    <filter id="filter1_d_6358_49563" x="288.84" y="232.84" width="166.321" height="22.3206" filterUnits="userSpaceOnUse" color-interpolation-filters="sRGB">
      <feFlood flood-opacity="0" result="BackgroundImageFix" />
      <feColorMatrix in="SourceAlpha" type="matrix" values="0 0 0 0 0 0 0 0 0 0 0 0 0 0 0 0 0 0 127 0" result="hardAlpha" />
      <feOffset />
      <feGaussianBlur stdDeviation="1.58015" />
      <feComposite in2="hardAlpha" operator="out" />
      <feColorMatrix type="matrix" values="0 0 0 0 0 0 0 0 0 0 0 0 0 0 0 0 0 0 0.05 0" />
      <feBlend mode="normal" in2="BackgroundImageFix" result="effect1_dropShadow_6358_49563" />
      <feBlend mode="normal" in="SourceGraphic" in2="effect1_dropShadow_6358_49563" result="shape" />
    </filter>
    <filter id="filter2_d_6358_49563" x="288.84" y="253.84" width="118.321" height="23.3206" filterUnits="userSpaceOnUse" color-interpolation-filters="sRGB">
      <feFlood flood-opacity="0" result="BackgroundImageFix" />
      <feColorMatrix in="SourceAlpha" type="matrix" values="0 0 0 0 0 0 0 0 0 0 0 0 0 0 0 0 0 0 127 0" result="hardAlpha" />
      <feOffset />
      <feGaussianBlur stdDeviation="1.58015" />
      <feComposite in2="hardAlpha" operator="out" />
      <feColorMatrix type="matrix" values="0 0 0 0 0 0 0 0 0 0 0 0 0 0 0 0 0 0 0.05 0" />
      <feBlend mode="normal" in2="BackgroundImageFix" result="effect1_dropShadow_6358_49563" />
      <feBlend mode="normal" in="SourceGraphic" in2="effect1_dropShadow_6358_49563" result="shape" />
    </filter>
    <filter id="filter3_d_6358_49563" x="288.84" y="174.84" width="144.321" height="22.3206" filterUnits="userSpaceOnUse" color-interpolation-filters="sRGB">
      <feFlood flood-opacity="0" result="BackgroundImageFix" />
      <feColorMatrix in="SourceAlpha" type="matrix" values="0 0 0 0 0 0 0 0 0 0 0 0 0 0 0 0 0 0 127 0" result="hardAlpha" />
      <feOffset />
      <feGaussianBlur stdDeviation="1.58015" />
      <feComposite in2="hardAlpha" operator="out" />
      <feColorMatrix type="matrix" values="0 0 0 0 0 0 0 0 0 0 0 0 0 0 0 0 0 0 0.05 0" />
      <feBlend mode="normal" in2="BackgroundImageFix" result="effect1_dropShadow_6358_49563" />
      <feBlend mode="normal" in="SourceGraphic" in2="effect1_dropShadow_6358_49563" result="shape" />
    </filter>
    <filter id="filter4_d_6358_49563" x="288.84" y="195.84" width="118.321" height="23.3206" filterUnits="userSpaceOnUse" color-interpolation-filters="sRGB">
      <feFlood flood-opacity="0" result="BackgroundImageFix" />
      <feColorMatrix in="SourceAlpha" type="matrix" values="0 0 0 0 0 0 0 0 0 0 0 0 0 0 0 0 0 0 127 0" result="hardAlpha" />
      <feOffset />
      <feGaussianBlur stdDeviation="1.58015" />
      <feComposite in2="hardAlpha" operator="out" />
      <feColorMatrix type="matrix" values="0 0 0 0 0 0 0 0 0 0 0 0 0 0 0 0 0 0 0.05 0" />
      <feBlend mode="normal" in2="BackgroundImageFix" result="effect1_dropShadow_6358_49563" />
      <feBlend mode="normal" in="SourceGraphic" in2="effect1_dropShadow_6358_49563" result="shape" />
    </filter>
    <filter id="filter5_d_6358_49563" x="77.8397" y="69.8397" width="169.321" height="15.3206" filterUnits="userSpaceOnUse" color-interpolation-filters="sRGB">
      <feFlood flood-opacity="0" result="BackgroundImageFix" />
      <feColorMatrix in="SourceAlpha" type="matrix" values="0 0 0 0 0 0 0 0 0 0 0 0 0 0 0 0 0 0 127 0" result="hardAlpha" />
      <feOffset />
      <feGaussianBlur stdDeviation="1.58015" />
      <feComposite in2="hardAlpha" operator="out" />
      <feColorMatrix type="matrix" values="0 0 0 0 0 0 0 0 0 0 0 0 0 0 0 0 0 0 0.05 0" />
      <feBlend mode="normal" in2="BackgroundImageFix" result="effect1_dropShadow_6358_49563" />
      <feBlend mode="normal" in="SourceGraphic" in2="effect1_dropShadow_6358_49563" result="shape" />
    </filter>
    <filter id="filter6_d_6358_49563" x="77.8397" y="82.8397" width="124.321" height="15.3206" filterUnits="userSpaceOnUse" color-interpolation-filters="sRGB">
      <feFlood flood-opacity="0" result="BackgroundImageFix" />
      <feColorMatrix in="SourceAlpha" type="matrix" values="0 0 0 0 0 0 0 0 0 0 0 0 0 0 0 0 0 0 127 0" result="hardAlpha" />
      <feOffset />
      <feGaussianBlur stdDeviation="1.58015" />
      <feComposite in2="hardAlpha" operator="out" />
      <feColorMatrix type="matrix" values="0 0 0 0 0 0 0 0 0 0 0 0 0 0 0 0 0 0 0.05 0" />
      <feBlend mode="normal" in2="BackgroundImageFix" result="effect1_dropShadow_6358_49563" />
      <feBlend mode="normal" in="SourceGraphic" in2="effect1_dropShadow_6358_49563" result="shape" />
    </filter>
    <filter id="filter7_d_6358_49563" x="549.84" y="26.8397" width="169.321" height="15.3206" filterUnits="userSpaceOnUse" color-interpolation-filters="sRGB">
      <feFlood flood-opacity="0" result="BackgroundImageFix" />
      <feColorMatrix in="SourceAlpha" type="matrix" values="0 0 0 0 0 0 0 0 0 0 0 0 0 0 0 0 0 0 127 0" result="hardAlpha" />
      <feOffset />
      <feGaussianBlur stdDeviation="1.58015" />
      <feComposite in2="hardAlpha" operator="out" />
      <feColorMatrix type="matrix" values="0 0 0 0 0 0 0 0 0 0 0 0 0 0 0 0 0 0 0.05 0" />
      <feBlend mode="normal" in2="BackgroundImageFix" result="effect1_dropShadow_6358_49563" />
      <feBlend mode="normal" in="SourceGraphic" in2="effect1_dropShadow_6358_49563" result="shape" />
    </filter>
    <filter id="filter8_d_6358_49563" x="549.84" y="39.8397" width="124.321" height="15.3206" filterUnits="userSpaceOnUse" color-interpolation-filters="sRGB">
      <feFlood flood-opacity="0" result="BackgroundImageFix" />
      <feColorMatrix in="SourceAlpha" type="matrix" values="0 0 0 0 0 0 0 0 0 0 0 0 0 0 0 0 0 0 127 0" result="hardAlpha" />
      <feOffset />
      <feGaussianBlur stdDeviation="1.58015" />
      <feComposite in2="hardAlpha" operator="out" />
      <feColorMatrix type="matrix" values="0 0 0 0 0 0 0 0 0 0 0 0 0 0 0 0 0 0 0.05 0" />
      <feBlend mode="normal" in2="BackgroundImageFix" result="effect1_dropShadow_6358_49563" />
      <feBlend mode="normal" in="SourceGraphic" in2="effect1_dropShadow_6358_49563" result="shape" />
    </filter>
    <filter id="filter9_d_6358_49563" x="558.84" y="296.84" width="169.321" height="15.3206" filterUnits="userSpaceOnUse" color-interpolation-filters="sRGB">
      <feFlood flood-opacity="0" result="BackgroundImageFix" />
      <feColorMatrix in="SourceAlpha" type="matrix" values="0 0 0 0 0 0 0 0 0 0 0 0 0 0 0 0 0 0 127 0" result="hardAlpha" />
      <feOffset />
      <feGaussianBlur stdDeviation="1.58015" />
      <feComposite in2="hardAlpha" operator="out" />
      <feColorMatrix type="matrix" values="0 0 0 0 0 0 0 0 0 0 0 0 0 0 0 0 0 0 0.05 0" />
      <feBlend mode="normal" in2="BackgroundImageFix" result="effect1_dropShadow_6358_49563" />
      <feBlend mode="normal" in="SourceGraphic" in2="effect1_dropShadow_6358_49563" result="shape" />
    </filter>
    <filter id="filter10_d_6358_49563" x="558.84" y="309.84" width="124.321" height="15.3206" filterUnits="userSpaceOnUse" color-interpolation-filters="sRGB">
      <feFlood flood-opacity="0" result="BackgroundImageFix" />
      <feColorMatrix in="SourceAlpha" type="matrix" values="0 0 0 0 0 0 0 0 0 0 0 0 0 0 0 0 0 0 127 0" result="hardAlpha" />
      <feOffset />
      <feGaussianBlur stdDeviation="1.58015" />
      <feComposite in2="hardAlpha" operator="out" />
      <feColorMatrix type="matrix" values="0 0 0 0 0 0 0 0 0 0 0 0 0 0 0 0 0 0 0.05 0" />
      <feBlend mode="normal" in2="BackgroundImageFix" result="effect1_dropShadow_6358_49563" />
      <feBlend mode="normal" in="SourceGraphic" in2="effect1_dropShadow_6358_49563" result="shape" />
    </filter>
    <filter id="filter11_d_6358_49563" x="535.84" y="164.84" width="132.321" height="15.3206" filterUnits="userSpaceOnUse" color-interpolation-filters="sRGB">
      <feFlood flood-opacity="0" result="BackgroundImageFix" />
      <feColorMatrix in="SourceAlpha" type="matrix" values="0 0 0 0 0 0 0 0 0 0 0 0 0 0 0 0 0 0 127 0" result="hardAlpha" />
      <feOffset />
      <feGaussianBlur stdDeviation="1.58015" />
      <feComposite in2="hardAlpha" operator="out" />
      <feColorMatrix type="matrix" values="0 0 0 0 0 0 0 0 0 0 0 0 0 0 0 0 0 0 0.05 0" />
      <feBlend mode="normal" in2="BackgroundImageFix" result="effect1_dropShadow_6358_49563" />
      <feBlend mode="normal" in="SourceGraphic" in2="effect1_dropShadow_6358_49563" result="shape" />
    </filter>
    <filter id="filter12_d_6358_49563" x="535.84" y="177.84" width="98.0579" height="15.3206" filterUnits="userSpaceOnUse" color-interpolation-filters="sRGB">
      <feFlood flood-opacity="0" result="BackgroundImageFix" />
      <feColorMatrix in="SourceAlpha" type="matrix" values="0 0 0 0 0 0 0 0 0 0 0 0 0 0 0 0 0 0 127 0" result="hardAlpha" />
      <feOffset />
      <feGaussianBlur stdDeviation="1.58015" />
      <feComposite in2="hardAlpha" operator="out" />
      <feColorMatrix type="matrix" values="0 0 0 0 0 0 0 0 0 0 0 0 0 0 0 0 0 0 0.05 0" />
      <feBlend mode="normal" in2="BackgroundImageFix" result="effect1_dropShadow_6358_49563" />
      <feBlend mode="normal" in="SourceGraphic" in2="effect1_dropShadow_6358_49563" result="shape" />
    </filter>
    <filter id="filter13_d_6358_49563" x="85.8397" y="279.84" width="184.321" height="15.3206" filterUnits="userSpaceOnUse" color-interpolation-filters="sRGB">
      <feFlood flood-opacity="0" result="BackgroundImageFix" />
      <feColorMatrix in="SourceAlpha" type="matrix" values="0 0 0 0 0 0 0 0 0 0 0 0 0 0 0 0 0 0 127 0" result="hardAlpha" />
      <feOffset />
      <feGaussianBlur stdDeviation="1.58015" />
      <feComposite in2="hardAlpha" operator="out" />
      <feColorMatrix type="matrix" values="0 0 0 0 0 0 0 0 0 0 0 0 0 0 0 0 0 0 0.05 0" />
      <feBlend mode="normal" in2="BackgroundImageFix" result="effect1_dropShadow_6358_49563" />
      <feBlend mode="normal" in="SourceGraphic" in2="effect1_dropShadow_6358_49563" result="shape" />
    </filter>
    <filter id="filter14_d_6358_49563" x="85.8397" y="292.84" width="136.321" height="15.3206" filterUnits="userSpaceOnUse" color-interpolation-filters="sRGB">
      <feFlood flood-opacity="0" result="BackgroundImageFix" />
      <feColorMatrix in="SourceAlpha" type="matrix" values="0 0 0 0 0 0 0 0 0 0 0 0 0 0 0 0 0 0 127 0" result="hardAlpha" />
      <feOffset />
      <feGaussianBlur stdDeviation="1.58015" />
      <feComposite in2="hardAlpha" operator="out" />
      <feColorMatrix type="matrix" values="0 0 0 0 0 0 0 0 0 0 0 0 0 0 0 0 0 0 0.05 0" />
      <feBlend mode="normal" in2="BackgroundImageFix" result="effect1_dropShadow_6358_49563" />
      <feBlend mode="normal" in="SourceGraphic" in2="effect1_dropShadow_6358_49563" result="shape" />
    </filter>
    <clipPath id="clip0_6358_49563">
      <rect x="218" y="62" width="300" height="256.765" rx="24.7123" fill="white" />
    </clipPath>
    <clipPath id="clip1_6358_49563">
      <rect x="242.712" y="86.7122" width="37.0684" height="37.0684" rx="18.5342" fill="white" />
    </clipPath>
    <clipPath id="clip2_6358_49563">
      <rect x="505" y="21" width="221" height="40" rx="20" fill="white" />
    </clipPath>
  </defs>
</svg>