<svg width="735" height="357" viewBox="0 0 735 357" fill="none" xmlns="http://www.w3.org/2000/svg">
  <path d="M269.135 0L269.135 357" stroke="white" stroke-opacity="0.08" stroke-dasharray="7 4" />
  <path d="M465.865 0L465.865 357" stroke="white" stroke-opacity="0.08" stroke-dasharray="7 4" />
  <path d="M0 65.5H735" stroke="white" stroke-opacity="0.08" stroke-dasharray="7 4" />
  <path d="M0 178.5H735" stroke="white" stroke-opacity="0.08" stroke-dasharray="7 4" />
  <path d="M0 292.5H735" stroke="white" stroke-opacity="0.08" stroke-dasharray="7 4" />
  <g opacity="0.94">
    <rect x="242" y="130" width="259.991" height="109.335" rx="54.6674" fill="#317b8a" />
    <path
      d="M337.921 174.509C339.859 174.509 341.489 174.853 342.812 175.54C344.145 176.217 345.145 177.176 345.812 178.415C346.489 179.655 346.827 181.108 346.827 182.775C346.827 184.42 346.442 185.874 345.671 187.134C344.911 188.384 343.77 189.363 342.249 190.072C340.728 190.769 338.874 191.118 336.687 191.118H330.437V196.947H322.437V174.509H337.921ZM334.593 186.04C335.895 186.04 336.89 185.775 337.577 185.243C338.275 184.702 338.624 183.952 338.624 182.993C338.624 182.066 338.312 181.348 337.687 180.837C337.072 180.316 336.192 180.056 335.046 180.056H330.437V186.04H334.593ZM361.83 197.681C358.924 197.681 356.367 197.144 354.159 196.072C351.95 194.999 350.247 193.545 349.049 191.712C347.851 189.879 347.252 187.848 347.252 185.618C347.252 183.348 347.846 181.322 349.034 179.54C350.232 177.749 351.935 176.348 354.143 175.337C356.351 174.316 358.924 173.806 361.862 173.806C364.778 173.806 367.336 174.316 369.534 175.337C371.742 176.348 373.44 177.749 374.627 179.54C375.825 181.322 376.424 183.348 376.424 185.618C376.424 187.858 375.82 189.894 374.612 191.728C373.414 193.561 371.711 195.014 369.502 196.087C367.294 197.15 364.737 197.681 361.83 197.681ZM361.83 191.181C363.028 191.181 364.08 190.952 364.987 190.493C365.893 190.025 366.591 189.374 367.08 188.54C367.57 187.707 367.815 186.754 367.815 185.681C367.815 184.618 367.57 183.681 367.08 182.868C366.591 182.056 365.893 181.426 364.987 180.978C364.08 180.53 363.028 180.306 361.83 180.306C360.622 180.306 359.565 180.53 358.659 180.978C357.752 181.426 357.049 182.056 356.549 182.868C356.06 183.681 355.815 184.618 355.815 185.681C355.815 186.754 356.06 187.707 356.549 188.54C357.049 189.374 357.752 190.025 358.659 190.493C359.565 190.952 360.622 191.181 361.83 191.181ZM388.584 197.618C386.469 197.618 384.485 197.368 382.63 196.868C380.787 196.358 379.177 195.681 377.802 194.837V189.04C379.219 189.926 380.782 190.629 382.49 191.15C384.198 191.66 385.933 191.915 387.693 191.915C388.964 191.915 389.907 191.801 390.521 191.572C391.136 191.342 391.443 190.978 391.443 190.478C391.443 190.04 391.229 189.691 390.802 189.431C390.375 189.17 389.615 188.947 388.521 188.759L385.334 188.181C382.677 187.702 380.729 186.884 379.49 185.728C378.261 184.572 377.646 183.04 377.646 181.134C377.646 179.686 378.068 178.42 378.912 177.337C379.766 176.243 381.047 175.394 382.755 174.79C384.474 174.176 386.589 173.868 389.099 173.868C391.245 173.868 393.094 174.087 394.646 174.525C396.209 174.962 397.495 175.493 398.505 176.118V181.681C397.558 181.15 396.349 180.691 394.88 180.306C393.422 179.92 391.839 179.728 390.13 179.728C387.38 179.728 386.005 180.176 386.005 181.072C386.005 181.322 386.078 181.53 386.224 181.697C386.38 181.853 386.646 181.988 387.021 182.103C387.396 182.217 387.933 182.322 388.63 182.415L392.209 182.993C393.969 183.285 395.407 183.717 396.521 184.29C397.636 184.853 398.469 185.598 399.021 186.525C399.573 187.441 399.849 188.577 399.849 189.931C399.849 191.473 399.38 192.827 398.443 193.993C397.516 195.15 396.198 196.045 394.49 196.681C392.792 197.306 390.823 197.618 388.584 197.618ZM423.227 180.853H415.602V196.947H407.602V180.853H399.837V174.54H423.227V180.853Z"
      fill="#273973" />
  </g>
  <path opacity="0.94"
    d="M550.379 236.921L464.49 205.945C457.894 203.566 451.512 209.956 453.888 216.562L484.82 302.569C487.256 309.341 496.56 310.007 499.932 303.649L511.708 281.451C512.532 279.897 514.622 279.583 515.865 280.828L543.399 308.399C546.877 311.882 552.516 311.882 555.994 308.399C559.472 304.916 559.472 299.27 555.994 295.787L528.396 268.152C527.153 266.907 527.466 264.814 529.018 263.989L551.458 252.053C557.807 248.676 557.143 239.36 550.379 236.921Z"
    fill="white" stroke="#3D4B41" />
  <path opacity="0.94"
    d="M206.876 117.198L276.417 142.277C281.834 144.231 287.074 138.984 285.123 133.56L260.078 63.9236C258.078 58.3625 250.439 57.8161 247.67 63.0361L238.135 81.0094C237.498 82.2112 235.881 82.4535 234.92 81.4912L212.628 59.1681C209.775 56.3111 205.149 56.3111 202.296 59.1681C199.443 62.0251 199.443 66.6572 202.296 69.5142L224.64 91.889C225.601 92.8513 225.359 94.4699 224.159 95.1083L205.99 104.772C200.777 107.545 201.323 115.195 206.876 117.198Z"
    fill="white" stroke="#3D4B41" />
  <path opacity="0.94"
    d="M244.338 263.314L263.454 210.165C264.977 205.931 260.886 201.835 256.658 203.36L203.58 222.501C199.245 224.065 198.819 230.036 202.888 232.201L216.588 239.488C217.433 239.938 217.604 241.079 216.927 241.757L199.912 258.795C197.688 261.022 197.688 264.632 199.912 266.859C202.135 269.086 205.741 269.086 207.965 266.859L225.019 249.781C225.697 249.103 226.836 249.274 227.285 250.121L234.651 264.007C236.813 268.082 242.776 267.656 244.338 263.314Z"
    fill="white" stroke="#3D4B41" />
</svg>